<svg xmlns="http://www.w3.org/2000/svg" width="48.4" height="6.64" viewBox="0 0 48.4 6.64" xml:space="preserve"><path d="M17.579 0.05V1.515q0 0.206 0.046 0.35c0.031 0.096 0.076 0.175 0.136 0.235 0.06 0.061 0.133 0.105 0.219 0.133 0.086 0.028 0.183 0.042 0.291 0.042 0.111 0 0.209 -0.014 0.295 -0.042 0.086 -0.028 0.159 -0.072 0.218 -0.133 0.06 -0.061 0.105 -0.139 0.136 -0.235 0.031 -0.096 0.046 -0.212 0.046 -0.35V0.05h0.226v1.515a1.163 1.163 0 0 1 -0.051 0.347c-0.035 0.109 -0.088 0.205 -0.162 0.287 -0.074 0.082 -0.169 0.146 -0.285 0.194 -0.116 0.048 -0.257 0.071 -0.423 0.071 -0.163 0 -0.303 -0.023 -0.419 -0.071q-0.174 -0.071 -0.285 -0.194a0.756 0.756 0 0 1 -0.162 -0.287 1.155 1.155 0 0 1 -0.051 -0.347V0.05zM19.813 0.706v0.295h0.007c0.04 -0.104 0.11 -0.187 0.212 -0.25 0.102 -0.063 0.213 -0.095 0.335 -0.095q0.179 0 0.3 0.047c0.081 0.031 0.145 0.074 0.194 0.131 0.049 0.056 0.083 0.125 0.103 0.207 0.02 0.082 0.03 0.173 0.03 0.275v1.101h-0.209V1.349c0 -0.073 -0.007 -0.141 -0.02 -0.204q-0.02 -0.095 -0.07 -0.164 -0.05 -0.07 -0.134 -0.109 -0.085 -0.04 -0.211 -0.04c-0.084 0 -0.158 0.015 -0.224 0.045a0.485 0.485 0 0 0 -0.166 0.123q-0.068 0.078 -0.106 0.186 -0.038 0.108 -0.042 0.234v0.998h-0.209V0.706zM21.6 0.05V0.384h-0.208V0.05zm0 0.656v1.711h-0.208V0.706zm0.441 0 0.537 1.502h0.007L23.115 0.706h0.215l-0.64 1.711h-0.222L21.808 0.706zm1.649 1.145a0.642 0.642 0 0 0 0.101 0.217 0.581 0.581 0 0 0 0.176 0.159q0.106 0.063 0.255 0.063c0.152 0 0.272 -0.04 0.358 -0.119q0.129 -0.119 0.179 -0.318h0.209c-0.044 0.195 -0.125 0.345 -0.243 0.451 -0.119 0.106 -0.286 0.159 -0.502 0.159 -0.135 0 -0.251 -0.023 -0.35 -0.071 -0.099 -0.047 -0.178 -0.112 -0.241 -0.195 -0.062 -0.083 -0.108 -0.179 -0.138 -0.288a1.32 1.32 0 0 1 -0.044 -0.346q0 -0.169 0.044 -0.331c0.03 -0.108 0.076 -0.205 0.138 -0.29 0.062 -0.085 0.142 -0.154 0.241 -0.206q0.147 -0.078 0.35 -0.078c0.137 0 0.254 0.028 0.351 0.083a0.702 0.702 0 0 1 0.237 0.217q0.091 0.134 0.131 0.308c0.026 0.116 0.037 0.234 0.033 0.353h-1.316a0.906 0.906 0 0 0 0.032 0.234m1.034 -0.638a0.635 0.635 0 0 0 -0.108 -0.194 0.535 0.535 0 0 0 -0.169 -0.136q-0.099 -0.052 -0.225 -0.052 -0.13 0 -0.229 0.052a0.528 0.528 0 0 0 -0.169 0.136 0.67 0.67 0 0 0 -0.111 0.196 0.97 0.97 0 0 0 -0.055 0.227h1.107a0.756 0.756 0 0 0 -0.041 -0.228M25.448 0.706v0.401h0.007q0.079 -0.209 0.247 -0.322 0.167 -0.112 0.4 -0.103V0.892q-0.143 -0.006 -0.259 0.038a0.585 0.585 0 0 0 -0.201 0.128 0.578 0.578 0 0 0 -0.131 0.197q-0.046 0.115 -0.046 0.25v0.912h-0.208V0.706zm1.836 0.333a0.342 0.342 0 0 0 -0.098 -0.118 0.414 0.414 0 0 0 -0.141 -0.068 0.663 0.663 0 0 0 -0.169 -0.021c-0.046 0 -0.093 0.005 -0.141 0.015a0.442 0.442 0 0 0 -0.131 0.05 0.278 0.278 0 0 0 -0.096 0.091c-0.024 0.037 -0.037 0.084 -0.037 0.139 0 0.046 0.012 0.086 0.035 0.118q0.034 0.048 0.088 0.082a0.549 0.549 0 0 0 0.116 0.054c0.042 0.015 0.08 0.026 0.116 0.035l0.278 0.063c0.059 0.009 0.119 0.025 0.177 0.048a0.585 0.585 0 0 1 0.156 0.091 0.449 0.449 0 0 1 0.111 0.139q0.043 0.083 0.043 0.196 0 0.139 -0.063 0.237a0.506 0.506 0 0 1 -0.161 0.159c-0.065 0.041 -0.139 0.07 -0.22 0.088a1.155 1.155 0 0 1 -0.242 0.026c-0.202 0 -0.364 -0.047 -0.489 -0.142q-0.187 -0.142 -0.214 -0.457h0.209q0.013 0.212 0.154 0.32c0.094 0.072 0.211 0.107 0.35 0.107 0.051 0 0.104 -0.005 0.158 -0.016a0.514 0.514 0 0 0 0.151 -0.056 0.357 0.357 0 0 0 0.114 -0.102q0.045 -0.061 0.045 -0.151c0 -0.051 -0.01 -0.093 -0.031 -0.128a0.278 0.278 0 0 0 -0.085 -0.086 0.528 0.528 0 0 0 -0.121 -0.058 1.498 1.498 0 0 0 -0.138 -0.04l-0.268 -0.06a1.569 1.569 0 0 1 -0.189 -0.061 0.599 0.599 0 0 1 -0.151 -0.086 0.357 0.357 0 0 1 -0.101 -0.126q-0.037 -0.074 -0.037 -0.184c0 -0.086 0.019 -0.16 0.058 -0.222a0.449 0.449 0 0 1 0.151 -0.149 0.713 0.713 0 0 1 0.208 -0.083 0.999 0.999 0 0 1 0.227 -0.026q0.129 0 0.24 0.033a0.556 0.556 0 0 1 0.195 0.103 0.499 0.499 0 0 1 0.134 0.172q0.05 0.103 0.056 0.242h-0.208c-0.002 -0.064 -0.015 -0.12 -0.04 -0.167M28.107 0.05V0.384h-0.209V0.05zm0 0.656v1.711h-0.209V0.706zm1.08 0v0.176h-0.348V2.036c0 0.068 0.01 0.122 0.028 0.16q0.028 0.058 0.141 0.065 0.089 0 0.179 -0.01v0.176c-0.031 0 -0.062 0.001 -0.093 0.003 -0.031 0.002 -0.062 0.003 -0.093 0.003q-0.209 0 -0.292 -0.081c-0.055 -0.054 -0.082 -0.154 -0.08 -0.3V0.882h-0.298V0.706h0.298V0.192h0.209V0.706zm0.332 0 0.564 1.459L30.609 0.706h0.209l-0.742 1.969q-0.047 0.109 -0.086 0.18c-0.026 0.048 -0.056 0.085 -0.088 0.113a0.3 0.3 0 0 1 -0.113 0.06q-0.064 0.018 -0.164 0.018l-0.098 -0.005a0.2 0.2 0 0 1 -0.061 -0.012v-0.176c0.024 0.004 0.048 0.008 0.071 0.012q0.035 0.005 0.071 0.005c0.047 0 0.085 -0.006 0.115 -0.02a0.243 0.243 0 0 0 0.078 -0.055 0.328 0.328 0 0 0 0.056 -0.084c0.015 -0.033 0.032 -0.07 0.049 -0.109l0.073 -0.192L29.297 0.706zm3.495 0.023q0.151 0.073 0.254 0.195c0.068 0.082 0.12 0.178 0.155 0.287q0.054 0.164 0.054 0.35c0 0.124 -0.018 0.24 -0.054 0.35 -0.035 0.109 -0.087 0.205 -0.155 0.287a0.728 0.728 0 0 1 -0.254 0.194c-0.1 0.048 -0.216 0.071 -0.347 0.071 -0.13 0 -0.246 -0.023 -0.346 -0.071a0.731 0.731 0 0 1 -0.253 -0.194c-0.069 -0.082 -0.121 -0.177 -0.156 -0.287a1.141 1.141 0 0 1 -0.053 -0.35c0 -0.124 0.018 -0.24 0.053 -0.35 0.035 -0.109 0.087 -0.205 0.156 -0.287a0.756 0.756 0 0 1 0.253 -0.195c0.1 -0.049 0.216 -0.073 0.346 -0.073 0.13 0 0.246 0.024 0.347 0.073m-0.608 0.166a0.571 0.571 0 0 0 -0.187 0.166 0.749 0.749 0 0 0 -0.113 0.234 0.949 0.949 0 0 0 -0.038 0.267c0 0.091 0.013 0.179 0.038 0.267a0.749 0.749 0 0 0 0.113 0.233 0.571 0.571 0 0 0 0.187 0.166c0.075 0.042 0.162 0.063 0.262 0.063q0.149 0 0.262 -0.063a0.578 0.578 0 0 0 0.188 -0.166 0.763 0.763 0 0 0 0.112 -0.233c0.025 -0.088 0.038 -0.176 0.038 -0.267 0 -0.091 -0.013 -0.18 -0.038 -0.267a0.763 0.763 0 0 0 -0.112 -0.234 0.578 0.578 0 0 0 -0.188 -0.166q-0.112 -0.063 -0.262 -0.063c-0.099 0 -0.187 0.021 -0.262 0.063m1.704 -0.014v1.535H33.901V0.882h-0.292V0.706h0.292V0.55c0 -0.073 0.005 -0.14 0.016 -0.202 0.011 -0.062 0.032 -0.115 0.063 -0.159 0.031 -0.044 0.073 -0.078 0.128 -0.103 0.054 -0.024 0.123 -0.037 0.207 -0.037 0.031 0 0.06 0.001 0.086 0.003 0.026 0.002 0.056 0.006 0.09 0.01v0.179a5.207 5.207 0 0 0 -0.08 -0.012 0.571 0.571 0 0 0 -0.073 -0.005q-0.086 0 -0.132 0.027a0.164 0.164 0 0 0 -0.068 0.071q-0.021 0.044 -0.025 0.104a2.639 2.639 0 0 0 -0.003 0.129V0.706h0.338v0.176zm3.131 -0.36a0.663 0.663 0 0 0 -0.166 -0.181 0.728 0.728 0 0 0 -0.215 -0.111 0.799 0.799 0 0 0 -0.247 -0.038c-0.157 0 -0.291 0.03 -0.404 0.089 -0.112 0.06 -0.205 0.139 -0.277 0.237q-0.108 0.148 -0.159 0.333a1.427 1.427 0 0 0 -0.051 0.381q0 0.192 0.051 0.379c0.034 0.125 0.087 0.236 0.159 0.335 0.072 0.098 0.164 0.177 0.277 0.237 0.113 0.06 0.247 0.09 0.404 0.09 0.111 0 0.21 -0.02 0.298 -0.06a0.699 0.699 0 0 0 0.229 -0.162c0.064 -0.068 0.116 -0.149 0.156 -0.24a0.999 0.999 0 0 0 0.076 -0.297h0.226c-0.016 0.146 -0.049 0.277 -0.103 0.394q-0.08 0.176 -0.206 0.299a0.87 0.87 0 0 1 -0.297 0.189q-0.17 0.066 -0.38 0.066 -0.279 0 -0.489 -0.101c-0.14 -0.067 -0.257 -0.158 -0.35 -0.27 -0.093 -0.113 -0.162 -0.243 -0.209 -0.391a1.562 1.562 0 0 1 -0.07 -0.467c0 -0.163 0.023 -0.319 0.07 -0.467 0.047 -0.148 0.116 -0.279 0.209 -0.393 0.093 -0.114 0.21 -0.204 0.35 -0.272Q36.334 0 36.612 0q0.169 0 0.33 0.05a0.97 0.97 0 0 1 0.291 0.147 0.856 0.856 0 0 1 0.219 0.241c0.059 0.095 0.096 0.204 0.111 0.328h-0.226a0.756 0.756 0 0 0 -0.098 -0.244m1.73 0.207a0.756 0.756 0 0 1 0.254 0.195c0.068 0.082 0.12 0.178 0.156 0.287q0.053 0.164 0.053 0.35c0 0.124 -0.018 0.24 -0.053 0.35 -0.035 0.109 -0.088 0.205 -0.156 0.287a0.728 0.728 0 0 1 -0.254 0.194c-0.101 0.048 -0.216 0.071 -0.346 0.071 -0.13 0 -0.246 -0.023 -0.346 -0.071q-0.151 -0.071 -0.254 -0.194 -0.103 -0.123 -0.156 -0.287c-0.035 -0.109 -0.052 -0.226 -0.052 -0.35q0 -0.186 0.052 -0.35c0.036 -0.109 0.088 -0.205 0.156 -0.287q0.102 -0.123 0.254 -0.195 0.151 -0.073 0.346 -0.073 0.196 0 0.346 0.073m-0.608 0.166a0.578 0.578 0 0 0 -0.188 0.166 0.77 0.77 0 0 0 -0.112 0.234 0.956 0.956 0 0 0 -0.038 0.267c0 0.091 0.012 0.179 0.038 0.267 0.026 0.087 0.063 0.165 0.112 0.233a0.578 0.578 0 0 0 0.188 0.166q0.113 0.063 0.261 0.063c0.1 0 0.187 -0.021 0.262 -0.063a0.568 0.568 0 0 0 0.187 -0.166c0.05 -0.068 0.087 -0.146 0.113 -0.233a0.946 0.946 0 0 0 0 -0.534c-0.026 -0.087 -0.063 -0.165 -0.113 -0.234a0.571 0.571 0 0 0 -0.187 -0.166c-0.075 -0.042 -0.162 -0.063 -0.262 -0.063q-0.149 0 -0.261 0.063M39.957 0.05v2.367h-0.209V0.05zm1.47 0.68a0.756 0.756 0 0 1 0.254 0.195c0.068 0.082 0.121 0.178 0.156 0.287q0.053 0.164 0.053 0.35c0 0.124 -0.017 0.24 -0.053 0.35s-0.087 0.205 -0.156 0.287a0.731 0.731 0 0 1 -0.254 0.194c-0.1 0.048 -0.216 0.071 -0.346 0.071 -0.131 0 -0.246 -0.023 -0.346 -0.071a0.728 0.728 0 0 1 -0.254 -0.194c-0.069 -0.082 -0.12 -0.177 -0.156 -0.287 -0.035 -0.109 -0.053 -0.226 -0.053 -0.35q0 -0.186 0.053 -0.35c0.036 -0.109 0.087 -0.205 0.156 -0.287a0.749 0.749 0 0 1 0.254 -0.195q0.15 -0.073 0.346 -0.073 0.195 0 0.346 0.073m-0.608 0.166a0.571 0.571 0 0 0 -0.188 0.166q-0.074 0.103 -0.113 0.234a0.963 0.963 0 0 0 -0.038 0.267c0 0.091 0.013 0.179 0.038 0.267q0.039 0.131 0.113 0.233a0.571 0.571 0 0 0 0.188 0.166q0.112 0.063 0.262 0.063 0.149 0 0.262 -0.063a0.571 0.571 0 0 0 0.187 -0.166 0.77 0.77 0 0 0 0.113 -0.233 0.963 0.963 0 0 0 0 -0.534 0.77 0.77 0 0 0 -0.113 -0.234 0.571 0.571 0 0 0 -0.187 -0.166c-0.075 -0.042 -0.162 -0.063 -0.262 -0.063q-0.149 0 -0.262 0.063M42.394 0.706v0.401h0.006q0.08 -0.209 0.247 -0.322c0.112 -0.075 0.245 -0.109 0.399 -0.103V0.892c-0.095 -0.004 -0.181 0.009 -0.258 0.038a0.585 0.585 0 0 0 -0.2 0.128 0.578 0.578 0 0 0 -0.131 0.197c-0.031 0.076 -0.046 0.16 -0.046 0.25v0.912h-0.209V0.706zm0.895 0.265a0.489 0.489 0 0 1 0.144 -0.179q0.092 -0.069 0.214 -0.103 0.123 -0.033 0.272 -0.033 0.112 0 0.226 0.022a0.549 0.549 0 0 1 0.202 0.081c0.06 0.04 0.108 0.096 0.146 0.168q0.056 0.108 0.056 0.28v0.908q0 0.126 0.123 0.126c0.025 0 0.046 -0.004 0.066 -0.013v0.176c-0.025 0.005 -0.046 0.008 -0.064 0.01a0.713 0.713 0 0 1 -0.071 0.003c-0.053 0 -0.096 -0.007 -0.128 -0.022q-0.048 -0.021 -0.075 -0.061a0.235 0.235 0 0 1 -0.035 -0.095 0.785 0.785 0 0 1 -0.008 -0.121h-0.007a1.498 1.498 0 0 1 -0.114 0.148 0.592 0.592 0 0 1 -0.129 0.108 0.585 0.585 0 0 1 -0.162 0.066c-0.061 0.015 -0.133 0.023 -0.217 0.023 -0.08 0 -0.154 -0.009 -0.224 -0.028 -0.07 -0.019 -0.13 -0.049 -0.183 -0.089a0.428 0.428 0 0 1 -0.123 -0.156q-0.045 -0.094 -0.045 -0.224c0 -0.119 0.027 -0.213 0.08 -0.28q0.08 -0.101 0.211 -0.154c0.087 -0.035 0.186 -0.06 0.295 -0.074a24.608 24.608 0 0 1 0.333 -0.042c0.044 -0.004 0.083 -0.01 0.116 -0.017 0.033 -0.006 0.061 -0.018 0.083 -0.034 0.022 -0.017 0.04 -0.04 0.052 -0.068q0.018 -0.043 0.018 -0.113c0 -0.071 -0.011 -0.129 -0.035 -0.174a0.271 0.271 0 0 0 -0.096 -0.108q-0.061 -0.04 -0.142 -0.055a0.999 0.999 0 0 0 -0.174 -0.015q-0.198 0 -0.325 0.095c-0.084 0.063 -0.128 0.164 -0.133 0.303h-0.209c0.006 -0.1 0.028 -0.186 0.063 -0.259m1.044 0.511c-0.013 0.024 -0.039 0.042 -0.077 0.053 -0.037 0.011 -0.07 0.019 -0.099 0.023a6.348 6.348 0 0 1 -0.274 0.041 1.519 1.519 0 0 0 -0.257 0.055c-0.078 0.024 -0.141 0.059 -0.191 0.104q-0.074 0.068 -0.074 0.194 0 0.079 0.032 0.141a0.339 0.339 0 0 0 0.085 0.106 0.371 0.371 0 0 0 0.123 0.068 0.442 0.442 0 0 0 0.142 0.023 0.713 0.713 0 0 0 0.229 -0.036 0.556 0.556 0 0 0 0.191 -0.106 0.521 0.521 0 0 0 0.13 -0.169q0.048 -0.099 0.048 -0.225v-0.272zm1.946 0.935v-0.325h-0.007a0.492 0.492 0 0 1 -0.098 0.152 0.628 0.628 0 0 1 -0.148 0.118c-0.055 0.032 -0.114 0.057 -0.177 0.075a0.699 0.699 0 0 1 -0.187 0.026c-0.13 0 -0.244 -0.023 -0.34 -0.071a0.678 0.678 0 0 1 -0.24 -0.195q-0.096 -0.124 -0.143 -0.288a1.284 1.284 0 0 1 -0.046 -0.346q0 -0.182 0.046 -0.346c0.031 -0.11 0.078 -0.206 0.143 -0.289a0.699 0.699 0 0 1 0.24 -0.197q0.144 -0.073 0.34 -0.073c0.064 0 0.127 0.008 0.187 0.023q0.091 0.024 0.171 0.071a0.599 0.599 0 0 1 0.141 0.118c0.041 0.046 0.072 0.1 0.094 0.162h0.007V0.05h0.209v2.367zm-1.145 -0.592c0.021 0.087 0.054 0.166 0.1 0.234a0.549 0.549 0 0 0 0.174 0.168c0.071 0.043 0.156 0.064 0.255 0.064q0.166 0 0.28 -0.064a0.556 0.556 0 0 0 0.186 -0.168q0.071 -0.102 0.103 -0.234 0.031 -0.131 0.032 -0.263c0 -0.088 -0.011 -0.176 -0.032 -0.264q-0.032 -0.131 -0.103 -0.234a0.563 0.563 0 0 0 -0.186 -0.168c-0.076 -0.043 -0.17 -0.065 -0.28 -0.065 -0.099 0 -0.185 0.021 -0.255 0.065a0.556 0.556 0 0 0 -0.174 0.168q-0.068 0.103 -0.1 0.234a1.141 1.141 0 0 0 -0.031 0.264q0 0.133 0.031 0.263m2.804 -1.095a0.756 0.756 0 0 1 0.254 0.195c0.068 0.082 0.12 0.178 0.156 0.287q0.053 0.164 0.052 0.35c0 0.124 -0.017 0.24 -0.052 0.35 -0.036 0.109 -0.088 0.205 -0.156 0.287a0.735 0.735 0 0 1 -0.254 0.194c-0.1 0.048 -0.215 0.071 -0.346 0.071 -0.13 0 -0.246 -0.023 -0.346 -0.071a0.735 0.735 0 0 1 -0.254 -0.194c-0.068 -0.082 -0.12 -0.177 -0.156 -0.287 -0.035 -0.109 -0.053 -0.226 -0.053 -0.35s0.018 -0.24 0.053 -0.35c0.035 -0.109 0.088 -0.205 0.156 -0.287a0.756 0.756 0 0 1 0.254 -0.195q0.151 -0.073 0.346 -0.073 0.196 0 0.346 0.073m-0.608 0.166a0.571 0.571 0 0 0 -0.187 0.166 0.756 0.756 0 0 0 -0.113 0.234 0.949 0.949 0 0 0 -0.038 0.267c0 0.091 0.013 0.179 0.038 0.267a0.749 0.749 0 0 0 0.113 0.233 0.571 0.571 0 0 0 0.187 0.166c0.075 0.042 0.162 0.063 0.262 0.063 0.1 0 0.187 -0.021 0.262 -0.063a0.571 0.571 0 0 0 0.188 -0.166q0.075 -0.102 0.113 -0.233c0.025 -0.088 0.038 -0.176 0.038 -0.267 0 -0.091 -0.013 -0.18 -0.038 -0.267a0.756 0.756 0 0 0 -0.113 -0.234 0.571 0.571 0 0 0 -0.188 -0.166c-0.075 -0.042 -0.162 -0.063 -0.262 -0.063q-0.149 0 -0.262 0.063M19.009 4.066a0.678 0.678 0 0 0 -0.166 -0.181 0.749 0.749 0 0 0 -0.215 -0.111 0.806 0.806 0 0 0 -0.247 -0.038q-0.235 0 -0.404 0.089 -0.169 0.09 -0.277 0.237a1.034 1.034 0 0 0 -0.159 0.333 1.427 1.427 0 0 0 -0.051 0.381q0 0.193 0.051 0.38c0.034 0.125 0.088 0.237 0.159 0.335q0.108 0.147 0.277 0.237c0.113 0.06 0.247 0.09 0.404 0.09q0.166 0 0.298 -0.06a0.713 0.713 0 0 0 0.229 -0.162 0.849 0.849 0 0 0 0.156 -0.241q0.06 -0.137 0.076 -0.296h0.225c-0.015 0.146 -0.05 0.277 -0.103 0.394q-0.08 0.176 -0.206 0.298c-0.084 0.082 -0.183 0.145 -0.297 0.189q-0.17 0.066 -0.38 0.066 -0.278 0 -0.489 -0.101 -0.211 -0.101 -0.35 -0.27 -0.139 -0.169 -0.209 -0.391a1.562 1.562 0 0 1 -0.07 -0.467c0 -0.163 0.023 -0.319 0.07 -0.467 0.047 -0.148 0.116 -0.279 0.209 -0.393q0.139 -0.17 0.35 -0.272 0.21 -0.101 0.489 -0.101 0.169 0 0.33 0.05 0.16 0.05 0.292 0.148a0.863 0.863 0 0 1 0.219 0.241q0.088 0.143 0.111 0.328h-0.225c-0.02 -0.09 -0.052 -0.171 -0.098 -0.243m1.73 0.207c0.101 0.049 0.185 0.114 0.254 0.196 0.068 0.082 0.12 0.177 0.156 0.287a1.134 1.134 0 0 1 0.053 0.35q0 0.186 -0.053 0.35c-0.035 0.109 -0.087 0.205 -0.156 0.287a0.735 0.735 0 0 1 -0.254 0.194c-0.101 0.048 -0.216 0.071 -0.346 0.071 -0.131 0 -0.246 -0.024 -0.346 -0.071a0.728 0.728 0 0 1 -0.254 -0.194c-0.069 -0.082 -0.121 -0.177 -0.156 -0.287 -0.036 -0.109 -0.053 -0.226 -0.053 -0.35 0 -0.124 0.017 -0.24 0.053 -0.35q0.053 -0.164 0.156 -0.287c0.068 -0.082 0.153 -0.147 0.254 -0.196q0.15 -0.073 0.346 -0.073 0.196 0 0.346 0.073m-0.608 0.166a0.578 0.578 0 0 0 -0.187 0.165 0.763 0.763 0 0 0 -0.113 0.234 0.949 0.949 0 0 0 -0.038 0.267q0 0.136 0.038 0.267a0.749 0.749 0 0 0 0.113 0.233 0.571 0.571 0 0 0 0.187 0.166c0.075 0.043 0.162 0.063 0.262 0.063 0.099 0 0.187 -0.021 0.262 -0.063a0.571 0.571 0 0 0 0.187 -0.166c0.05 -0.068 0.087 -0.146 0.113 -0.233a0.952 0.952 0 0 0 0 -0.534q-0.038 -0.131 -0.113 -0.234a0.578 0.578 0 0 0 -0.187 -0.165q-0.113 -0.063 -0.262 -0.063 -0.149 0 -0.262 0.063m1.595 -0.846v2.367h-0.209V3.593zm1.47 0.68c0.1 0.049 0.185 0.114 0.254 0.196 0.068 0.082 0.12 0.177 0.156 0.287q0.053 0.164 0.053 0.35 0 0.186 -0.053 0.35c-0.036 0.109 -0.088 0.205 -0.156 0.287a0.735 0.735 0 0 1 -0.254 0.194c-0.101 0.048 -0.216 0.071 -0.346 0.071s-0.246 -0.024 -0.346 -0.071a0.735 0.735 0 0 1 -0.254 -0.194c-0.068 -0.082 -0.12 -0.177 -0.156 -0.287 -0.035 -0.109 -0.052 -0.226 -0.052 -0.35q0 -0.185 0.052 -0.35 0.053 -0.164 0.156 -0.287c0.069 -0.082 0.153 -0.147 0.254 -0.196q0.151 -0.073 0.346 -0.073c0.196 0 0.246 0.024 0.346 0.073m-0.608 0.166a0.578 0.578 0 0 0 -0.187 0.165 0.763 0.763 0 0 0 -0.112 0.234 0.949 0.949 0 0 0 0 0.534 0.756 0.756 0 0 0 0.112 0.233 0.571 0.571 0 0 0 0.187 0.166c0.075 0.043 0.163 0.063 0.262 0.063 0.099 0 0.187 -0.021 0.262 -0.063a0.571 0.571 0 0 0 0.187 -0.166c0.05 -0.068 0.087 -0.146 0.113 -0.233q0.038 -0.131 0.038 -0.267 0 -0.136 -0.038 -0.267a0.763 0.763 0 0 0 -0.113 -0.234 0.571 0.571 0 0 0 -0.187 -0.165q-0.113 -0.063 -0.262 -0.063 -0.149 0 -0.262 0.063m1.575 -0.189v0.401h0.007c0.053 -0.139 0.135 -0.246 0.247 -0.322q0.168 -0.112 0.399 -0.103v0.209q-0.142 -0.007 -0.258 0.038a0.585 0.585 0 0 0 -0.201 0.128 0.571 0.571 0 0 0 -0.131 0.198c-0.031 0.076 -0.046 0.16 -0.046 0.25v0.912h-0.209V4.25zm0.895 0.265q0.053 -0.109 0.144 -0.179 0.091 -0.07 0.214 -0.103c0.081 -0.022 0.172 -0.033 0.271 -0.033q0.113 0 0.226 0.021a0.549 0.549 0 0 1 0.202 0.081c0.06 0.04 0.108 0.096 0.146 0.168 0.037 0.072 0.056 0.165 0.056 0.28v0.908q0 0.126 0.123 0.126c0.024 0 0.046 -0.004 0.066 -0.014v0.176c-0.025 0.004 -0.046 0.008 -0.064 0.01a0.642 0.642 0 0 1 -0.071 0.003c-0.053 0 -0.096 -0.007 -0.128 -0.022a0.175 0.175 0 0 1 -0.075 -0.061 0.228 0.228 0 0 1 -0.035 -0.094 0.785 0.785 0 0 1 -0.008 -0.121h-0.006a1.355 1.355 0 0 1 -0.115 0.147 0.556 0.556 0 0 1 -0.129 0.108 0.613 0.613 0 0 1 -0.162 0.066q-0.091 0.023 -0.217 0.023a0.856 0.856 0 0 1 -0.224 -0.028c-0.07 -0.019 -0.13 -0.049 -0.182 -0.089a0.428 0.428 0 0 1 -0.123 -0.156q-0.045 -0.094 -0.045 -0.223 0 -0.179 0.08 -0.28c0.053 -0.067 0.123 -0.119 0.211 -0.154 0.087 -0.035 0.186 -0.06 0.295 -0.074q0.164 -0.021 0.333 -0.042a1.284 1.284 0 0 0 0.116 -0.017q0.049 -0.01 0.083 -0.034c0.022 -0.017 0.039 -0.04 0.051 -0.068 0.012 -0.029 0.018 -0.066 0.018 -0.112 0 -0.071 -0.011 -0.129 -0.035 -0.174a0.278 0.278 0 0 0 -0.096 -0.108 0.392 0.392 0 0 0 -0.143 -0.055 0.97 0.97 0 0 0 -0.174 -0.015q-0.199 0 -0.325 0.095 -0.126 0.094 -0.132 0.303h-0.209c0.006 -0.1 0.027 -0.186 0.063 -0.259m1.044 0.511c-0.013 0.024 -0.039 0.042 -0.076 0.053 -0.038 0.011 -0.071 0.019 -0.1 0.023a6.348 6.348 0 0 1 -0.273 0.042c-0.094 0.012 -0.18 0.03 -0.257 0.055q-0.116 0.036 -0.191 0.104c-0.05 0.045 -0.074 0.11 -0.074 0.194q0 0.08 0.031 0.141a0.357 0.357 0 0 0 0.085 0.106q0.053 0.044 0.123 0.068a0.456 0.456 0 0 0 0.142 0.023 0.728 0.728 0 0 0 0.229 -0.037 0.571 0.571 0 0 0 0.191 -0.106 0.521 0.521 0 0 0 0.129 -0.169c0.032 -0.066 0.048 -0.141 0.048 -0.225v-0.272zm1.946 0.935v-0.325h-0.007a0.492 0.492 0 0 1 -0.098 0.152 0.642 0.642 0 0 1 -0.148 0.118q-0.083 0.048 -0.177 0.074a0.692 0.692 0 0 1 -0.188 0.026c-0.13 0 -0.244 -0.024 -0.34 -0.071a0.678 0.678 0 0 1 -0.24 -0.195c-0.064 -0.083 -0.111 -0.179 -0.142 -0.289 -0.031 -0.109 -0.046 -0.225 -0.046 -0.346 0 -0.121 0.015 -0.237 0.046 -0.346 0.031 -0.109 0.078 -0.205 0.142 -0.288 0.064 -0.083 0.145 -0.149 0.24 -0.198 0.096 -0.049 0.21 -0.073 0.34 -0.073 0.064 0 0.127 0.007 0.188 0.023a0.642 0.642 0 0 1 0.171 0.071 0.606 0.606 0 0 1 0.141 0.118 0.492 0.492 0 0 1 0.095 0.163h0.006V3.593h0.209v2.367zm-1.146 -0.592q0.032 0.131 0.099 0.234A0.553 0.553 0 0 0 27.175 5.77q0.106 0.065 0.255 0.065c0.111 0 0.204 -0.022 0.28 -0.065a0.556 0.556 0 0 0 0.186 -0.167 0.685 0.685 0 0 0 0.103 -0.234c0.021 -0.087 0.032 -0.175 0.032 -0.264a1.141 1.141 0 0 0 -0.032 -0.263 0.685 0.685 0 0 0 -0.103 -0.233 0.556 0.556 0 0 0 -0.186 -0.168c-0.076 -0.043 -0.17 -0.064 -0.28 -0.064q-0.149 0 -0.255 0.064a0.549 0.549 0 0 0 -0.174 0.168q-0.068 0.103 -0.099 0.233a1.12 1.12 0 0 0 0 0.527m2.804 -1.096c0.101 0.049 0.186 0.114 0.254 0.196q0.103 0.123 0.156 0.287a1.141 1.141 0 0 1 0.053 0.35c0 0.124 -0.018 0.24 -0.053 0.35 -0.036 0.109 -0.088 0.205 -0.156 0.287a0.728 0.728 0 0 1 -0.254 0.194c-0.1 0.048 -0.216 0.071 -0.346 0.071 -0.131 0 -0.246 -0.024 -0.347 -0.071 -0.101 -0.047 -0.185 -0.112 -0.254 -0.194 -0.068 -0.082 -0.121 -0.177 -0.156 -0.287q-0.053 -0.164 -0.053 -0.35 0 -0.185 0.053 -0.35c0.035 -0.109 0.088 -0.205 0.156 -0.287 0.068 -0.082 0.153 -0.147 0.254 -0.196q0.151 -0.073 0.347 -0.073 0.195 0 0.346 0.073m-0.608 0.166a0.563 0.563 0 0 0 -0.187 0.165 0.756 0.756 0 0 0 -0.113 0.234 0.949 0.949 0 0 0 -0.038 0.267q0 0.136 0.038 0.267a0.749 0.749 0 0 0 0.113 0.233 0.561 0.561 0 0 0 0.187 0.166c0.075 0.043 0.162 0.063 0.262 0.063 0.099 0 0.187 -0.021 0.262 -0.063a0.578 0.578 0 0 0 0.187 -0.166c0.049 -0.068 0.087 -0.146 0.112 -0.233 0.025 -0.087 0.038 -0.176 0.038 -0.267s-0.012 -0.179 -0.038 -0.267a0.777 0.777 0 0 0 -0.112 -0.234 0.578 0.578 0 0 0 -0.187 -0.165q-0.113 -0.063 -0.262 -0.063c-0.1 0 -0.187 0.021 -0.262 0.063m2.506 1.047c0.04 0.081 0.095 0.147 0.164 0.196 0.07 0.049 0.152 0.083 0.247 0.104 0.095 0.021 0.197 0.032 0.305 0.032 0.062 0 0.13 -0.009 0.202 -0.027a0.692 0.692 0 0 0 0.204 -0.084 0.514 0.514 0 0 0 0.157 -0.149q0.063 -0.091 0.063 -0.22c0 -0.066 -0.015 -0.124 -0.045 -0.172a0.399 0.399 0 0 0 -0.116 -0.123 0.678 0.678 0 0 0 -0.158 -0.081 1.641 1.641 0 0 0 -0.169 -0.051l-0.527 -0.129a1.641 1.641 0 0 1 -0.201 -0.066 0.578 0.578 0 0 1 -0.171 -0.106 0.506 0.506 0 0 1 -0.117 -0.162q-0.045 -0.096 -0.045 -0.235 0 -0.086 0.033 -0.203c0.022 -0.077 0.063 -0.15 0.124 -0.218q0.091 -0.103 0.251 -0.174c0.106 -0.048 0.242 -0.071 0.408 -0.071 0.117 0 0.228 0.016 0.335 0.046 0.106 0.031 0.199 0.077 0.278 0.14a0.685 0.685 0 0 1 0.191 0.23c0.048 0.092 0.071 0.198 0.071 0.32h-0.225c-0.005 -0.091 -0.024 -0.17 -0.061 -0.237a0.546 0.546 0 0 0 -0.143 -0.169 0.621 0.621 0 0 0 -0.202 -0.103 0.827 0.827 0 0 0 -0.24 -0.035c-0.078 0 -0.152 0.008 -0.224 0.025q-0.107 0.025 -0.189 0.079a0.414 0.414 0 0 0 -0.131 0.144q-0.05 0.089 -0.05 0.222c0 0.055 0.01 0.103 0.028 0.145a0.303 0.303 0 0 0 0.078 0.104c0.033 0.028 0.071 0.052 0.114 0.07q0.065 0.027 0.138 0.043l0.577 0.143c0.083 0.022 0.162 0.049 0.237 0.081a0.785 0.785 0 0 1 0.196 0.119 0.506 0.506 0 0 1 0.132 0.174q0.048 0.103 0.048 0.249 0 0.04 -0.008 0.106 -0.008 0.066 -0.04 0.141a0.713 0.713 0 0 1 -0.089 0.151c-0.039 0.051 -0.092 0.097 -0.159 0.138q-0.101 0.061 -0.25 0.099c-0.1 0.025 -0.219 0.038 -0.358 0.038 -0.14 0 -0.269 -0.016 -0.388 -0.048 -0.119 -0.032 -0.221 -0.081 -0.305 -0.147 -0.085 -0.067 -0.149 -0.151 -0.194 -0.256q-0.068 -0.155 -0.058 -0.374h0.225c-0.002 0.122 0.017 0.223 0.056 0.305m2.078 -1.236v0.325h0.007c0.048 -0.12 0.127 -0.212 0.237 -0.277 0.11 -0.065 0.234 -0.098 0.373 -0.098 0.131 0 0.244 0.024 0.34 0.073 0.096 0.049 0.176 0.114 0.24 0.198q0.096 0.124 0.143 0.288c0.031 0.109 0.046 0.225 0.046 0.346q0 0.182 -0.046 0.346 -0.047 0.164 -0.143 0.289a0.674 0.674 0 0 1 -0.24 0.195c-0.096 0.048 -0.209 0.071 -0.34 0.071q-0.093 0 -0.186 -0.023a0.642 0.642 0 0 1 -0.172 -0.07 0.571 0.571 0 0 1 -0.141 -0.116 0.492 0.492 0 0 1 -0.094 -0.162h-0.007V6.59h-0.209V4.25zm1.146 0.592q-0.031 -0.131 -0.1 -0.233a0.549 0.549 0 0 0 -0.174 -0.168q-0.106 -0.064 -0.255 -0.064 -0.173 0 -0.288 0.06c-0.078 0.04 -0.139 0.093 -0.186 0.159q-0.07 0.1 -0.098 0.232a1.355 1.355 0 0 0 -0.028 0.278c0 0.089 0.01 0.177 0.031 0.264q0.032 0.131 0.103 0.234c0.047 0.068 0.109 0.124 0.185 0.167 0.077 0.043 0.17 0.065 0.28 0.065 0.099 0 0.184 -0.022 0.255 -0.065a0.549 0.549 0 0 0 0.174 -0.167c0.046 -0.068 0.079 -0.146 0.1 -0.234q0.031 -0.131 0.031 -0.264a1.141 1.141 0 0 0 -0.031 -0.264m0.757 -0.592v0.401h0.007c0.053 -0.139 0.135 -0.246 0.247 -0.322q0.168 -0.112 0.399 -0.103v0.209c-0.095 -0.004 -0.181 0.008 -0.258 0.038a0.585 0.585 0 0 0 -0.201 0.128 0.571 0.571 0 0 0 -0.131 0.198c-0.031 0.076 -0.046 0.16 -0.046 0.25v0.912h-0.209V4.25zm1.064 -0.657v0.335h-0.209v-0.335zm0 0.657v1.711h-0.209V4.25zm0.607 0v0.295h0.006c0.04 -0.104 0.111 -0.187 0.212 -0.25 0.101 -0.063 0.213 -0.094 0.335 -0.094 0.119 0 0.219 0.015 0.3 0.046 0.08 0.031 0.145 0.075 0.194 0.131 0.049 0.056 0.083 0.125 0.102 0.207 0.021 0.082 0.03 0.173 0.03 0.275v1.101h-0.209V4.893c0 -0.073 -0.007 -0.141 -0.02 -0.203 -0.013 -0.063 -0.036 -0.118 -0.07 -0.165q-0.049 -0.069 -0.134 -0.109c-0.056 -0.026 -0.126 -0.04 -0.21 -0.04 -0.084 0 -0.158 0.015 -0.224 0.045a0.478 0.478 0 0 0 -0.165 0.122q-0.068 0.078 -0.106 0.186c-0.025 0.072 -0.039 0.149 -0.041 0.234v0.998H37.047v-1.71zm2.978 1.913c-0.027 0.102 -0.071 0.188 -0.131 0.259 -0.06 0.071 -0.138 0.125 -0.234 0.162 -0.096 0.038 -0.214 0.056 -0.353 0.056 -0.086 0 -0.17 -0.01 -0.252 -0.03 -0.081 -0.02 -0.155 -0.051 -0.22 -0.093a0.549 0.549 0 0 1 -0.162 -0.161q-0.065 -0.098 -0.075 -0.234h0.209q0.016 0.096 0.065 0.161a0.385 0.385 0 0 0 0.116 0.104c0.045 0.026 0.096 0.046 0.151 0.058q0.083 0.018 0.168 0.018 0.292 0 0.421 -0.166c0.087 -0.111 0.129 -0.269 0.129 -0.477v-0.232h-0.006c-0.049 0.106 -0.12 0.191 -0.214 0.256 -0.094 0.064 -0.204 0.096 -0.33 0.096q-0.205 0 -0.351 -0.068 -0.146 -0.068 -0.241 -0.187 -0.094 -0.119 -0.138 -0.28c-0.028 -0.107 -0.043 -0.222 -0.043 -0.343 0 -0.117 0.016 -0.228 0.051 -0.333 0.034 -0.105 0.084 -0.197 0.149 -0.276a0.695 0.695 0 0 1 0.242 -0.185c0.096 -0.046 0.207 -0.068 0.33 -0.068a0.606 0.606 0 0 1 0.181 0.026 0.585 0.585 0 0 1 0.154 0.074c0.046 0.032 0.088 0.069 0.124 0.111a0.506 0.506 0 0 1 0.085 0.132h0.006v-0.295h0.209v1.571c0 0.126 -0.013 0.24 -0.041 0.341m-0.479 -0.456a0.549 0.549 0 0 0 0.173 -0.153q0.069 -0.094 0.104 -0.217a0.927 0.927 0 0 0 0.035 -0.252c0 -0.084 -0.01 -0.168 -0.03 -0.252a0.742 0.742 0 0 0 -0.096 -0.229 0.514 0.514 0 0 0 -0.171 -0.165q-0.104 -0.063 -0.254 -0.063c-0.099 0 -0.184 0.02 -0.255 0.061a0.538 0.538 0 0 0 -0.175 0.161c-0.047 0.066 -0.08 0.142 -0.101 0.227a1.07 1.07 0 0 0 -0.031 0.26q0 0.13 0.033 0.252 0.033 0.123 0.102 0.217a0.535 0.535 0 0 0 0.176 0.153q0.106 0.058 0.252 0.058 0.136 0 0.239 -0.058m1.903 -1.124a0.335 0.335 0 0 0 -0.098 -0.117 0.414 0.414 0 0 0 -0.141 -0.068 0.656 0.656 0 0 0 -0.169 -0.021q-0.07 0 -0.141 0.015a0.442 0.442 0 0 0 -0.131 0.05 0.275 0.275 0 0 0 -0.096 0.092c-0.025 0.037 -0.037 0.084 -0.037 0.139 0 0.046 0.011 0.085 0.034 0.117 0.024 0.032 0.052 0.059 0.088 0.082a0.592 0.592 0 0 0 0.117 0.054 1.569 1.569 0 0 0 0.115 0.035l0.279 0.063a0.799 0.799 0 0 1 0.178 0.048 0.556 0.556 0 0 1 0.155 0.091 0.435 0.435 0 0 1 0.111 0.139q0.043 0.083 0.044 0.195 0 0.139 -0.063 0.237a0.506 0.506 0 0 1 -0.161 0.159c-0.065 0.041 -0.139 0.07 -0.22 0.088a1.141 1.141 0 0 1 -0.242 0.026q-0.301 0 -0.489 -0.142 -0.187 -0.143 -0.213 -0.457h0.208c0.009 0.141 0.061 0.248 0.154 0.319q0.141 0.108 0.35 0.108a0.799 0.799 0 0 0 0.157 -0.017 0.514 0.514 0 0 0 0.151 -0.056 0.357 0.357 0 0 0 0.114 -0.101c0.029 -0.041 0.045 -0.091 0.045 -0.151q0 -0.076 -0.031 -0.128a0.278 0.278 0 0 0 -0.085 -0.086 0.535 0.535 0 0 0 -0.121 -0.058 1.498 1.498 0 0 0 -0.137 -0.04l-0.268 -0.06a1.498 1.498 0 0 1 -0.189 -0.061 0.592 0.592 0 0 1 -0.15 -0.086 0.357 0.357 0 0 1 -0.101 -0.126c-0.024 -0.049 -0.037 -0.111 -0.037 -0.184q0 -0.129 0.058 -0.222a0.464 0.464 0 0 1 0.151 -0.149c0.061 -0.037 0.131 -0.065 0.207 -0.083a0.999 0.999 0 0 1 0.227 -0.026q0.13 0 0.24 0.033a0.556 0.556 0 0 1 0.196 0.103 0.499 0.499 0 0 1 0.134 0.172q0.05 0.103 0.057 0.242h-0.209q-0.003 -0.096 -0.039 -0.167m-26.987 -3.615h-2.484l-0.616 0.625 -0.623 -0.625h-2.474l-0.625 0.626 -0.625 -0.626H4.751l-0.431 0.431v-0.431H2.569v0.36H1.777v-0.36H0.051v1.468H0.297v1.934l0.785 0.778h2.189l0.688 -0.69h0.105l0.688 0.688h2.472l0.623 -0.628 0.627 0.628h2.474l0.622 -0.627 0.617 0.627h2.481l0.779 -0.78V3.057l-0.298 -0.298h0.299V1.749z"/><path fill="#cfb87c" d="M3.291 5.199h-2.23l-0.051 -0.051L0.246 4.391V2.487H0V0.918h1.828v0.36h0.691v-0.36h1.852v0.359l0.359 -0.359h2.514l0.604 0.605 0.604 -0.605h2.516l0.602 0.604 0.596 -0.604h2.526l0.807 0.811v1.081h-0.228l0.227 0.227v1.352L14.688 5.197h-2.523l-0.596 -0.606 -0.601 0.606h-2.516l-0.606 -0.607 -0.602 0.607H4.73l-0.052 -0.052 -0.637 -0.636h-0.063zm-2.189 -0.101h2.147l0.688 -0.69h0.147l0.689 0.688h2.43l0.644 -0.649 0.649 0.649h2.432l0.643 -0.648 0.638 0.648h2.438l0.749 -0.75V3.078l-0.369 -0.37h0.371V1.77l-0.747 -0.751h-2.442l-0.637 0.647 -0.644 -0.647h-2.432l-0.646 0.647 -0.646 -0.647H4.771l-0.502 0.503v-0.503H2.62v0.36H1.727v-0.36H0.101v1.367h0.246v1.963z"/><path fill="#cfb87c" d="m12.339 4.782 -0.557 -0.567V3.713h0.758v0.316h1.788v-0.66l-2.085 0.001 -0.461 -0.461V1.898l0.557 -0.566 2.18 -0.001 0.564 0.568v0.496h-0.755v-0.324h-1.792v0.664h2.073l0.475 0.475v1.006l-0.566 0.567z"/><path fill="#fff" d="m14.496 1.386 0.532 0.535v0.418h-0.646v-0.324h-1.902v0.774h2.105l0.443 0.442v0.961l-0.534 0.534h-2.132l-0.525 -0.534v-0.425h0.648v0.316h1.898V3.314l-2.116 0.001 -0.429 -0.429V1.921l0.525 -0.534zm0.046 -0.11 -2.226 0.001 -0.589 0.599V2.932l0.494 0.493 2.052 -0.001v0.55h-1.677v-0.316h-0.868v0.58l0.589 0.599h2.223l0.598 -0.599V3.186l-0.507 -0.507h-2.041v-0.553h1.682v0.324h0.866v-0.573z"/><path fill="#cfb87c" d="m8.624 4.782 -0.566 -0.566 0.001 -2.317 0.565 -0.567h2.172l0.564 0.566 0 0.521H10.607v-0.348h-1.8v1.959h1.8V3.713h0.749v0.502l-0.56 0.567z"/><path fill="#fff" d="m10.773 1.387 0.531 0.534 0 0.444h-0.642v-0.349h-1.91v2.069h1.91v-0.316h0.64v0.425l-0.529 0.534h-2.126l-0.534 -0.533 0.001 -2.272 0.533 -0.535h2.126m0.046 -0.11h-2.218l-0.597 0.599 -0.001 2.363 0.598 0.598h2.218l0.593 -0.599v-0.58h-0.86v0.316h-1.69V2.126h1.69v0.349h0.862l0 -0.599z"/><path fill="#cfb87c" d="m4.901 4.782 -0.567 -0.566 0.001 -2.317 0.566 -0.567h2.172l0.564 0.566 -0.002 0.521H6.881v-0.348H5.088v1.959h1.792V3.713h0.753v0.502l-0.56 0.567z"/><path fill="#fff" d="m7.05 1.387 0.532 0.534 -0.001 0.444h-0.645v-0.349H5.032v2.069h1.902v-0.316h0.643v0.425l-0.528 0.534H4.924l-0.534 -0.533 0 -2.272 0.534 -0.535h2.126m0.046 -0.11H4.878l-0.598 0.599 -0.001 2.363 0.599 0.598h2.218l0.592 -0.599v-0.58H6.825v0.316H5.142V2.126h1.683v0.349h0.865l0.002 -0.599z"/><path fill="#cfb87c" d="m1.231 4.784 -0.57 -0.565V2.071H0.414v-0.739h0.999v2.698h1.52v-2.698h1.022v0.739h-0.269v2.144l-0.566 0.569z"/><path fill="#fff" d="M3.9 1.387v0.629h-0.269v2.177l-0.534 0.536H1.254l-0.538 -0.533V2.016H0.469v-0.629h0.889v2.698h1.63V1.387zm0.11 -0.11H2.878v2.698H1.468V1.277H0.36v0.849h0.246v2.115l0.603 0.598h1.934l0.598 -0.601V2.126h0.269z"/></svg>