<svg xmlns="http://www.w3.org/2000/svg" width="33.6" height="4.61" viewBox="0 0 33.6 4.61" xml:space="preserve"><path d="M12.204 0.035v1.017q0 0.143 0.032 0.243a0.369 0.369 0 0 0 0.246 0.255 0.694 0.694 0 0 0 0.202 0.029 0.694 0.694 0 0 0 0.205 -0.029 0.347 0.347 0 0 0 0.151 -0.092 0.417 0.417 0 0 0 0.094 -0.163q0.032 -0.099 0.032 -0.243V0.035h0.157v1.052a0.833 0.833 0 0 1 -0.035 0.241 0.555 0.555 0 0 1 -0.112 0.199 0.555 0.555 0 0 1 -0.198 0.135 0.764 0.764 0 0 1 -0.294 0.049q-0.17 0 -0.291 -0.049t-0.198 -0.135a0.528 0.528 0 0 1 -0.112 -0.199 0.833 0.833 0 0 1 -0.035 -0.241V0.035zm1.551 0.455v0.205h0.005a0.347 0.347 0 0 1 0.147 -0.174 0.43 0.43 0 0 1 0.233 -0.066q0.124 0 0.208 0.033a0.347 0.347 0 0 1 0.135 0.091 0.347 0.347 0 0 1 0.072 0.144q0.021 0.085 0.021 0.191v0.764h-0.145V0.936q0 -0.076 -0.014 -0.142 -0.014 -0.066 -0.049 -0.114 -0.035 -0.049 -0.093 -0.076 -0.059 -0.028 -0.146 -0.028a0.347 0.347 0 0 0 -0.156 0.031 0.347 0.347 0 0 0 -0.115 0.085q-0.047 0.054 -0.074 0.129t-0.029 0.162v0.693h-0.145V0.49zM14.995 0.035v0.232h-0.144V0.035zm0 0.455v1.188h-0.144V0.49zm0.306 0 0.373 1.043h0.005l0.368 -1.043h0.149l-0.444 1.188h-0.154l-0.458 -1.188zm1.145 0.795a0.417 0.417 0 0 0 0.07 0.151 0.417 0.417 0 0 0 0.122 0.11q0.074 0.044 0.177 0.044a0.347 0.347 0 0 0 0.249 -0.083q0.09 -0.083 0.124 -0.221h0.145a0.576 0.576 0 0 1 -0.169 0.313q-0.124 0.11 -0.348 0.11a0.555 0.555 0 0 1 -0.243 -0.049 0.444 0.444 0 0 1 -0.167 -0.135 0.625 0.625 0 0 1 -0.096 -0.2 0.902 0.902 0 0 1 -0.031 -0.24q0 -0.117 0.031 -0.23a0.625 0.625 0 0 1 0.096 -0.201 0.486 0.486 0 0 1 0.167 -0.143q0.102 -0.054 0.243 -0.054 0.143 0 0.244 0.058a0.486 0.486 0 0 1 0.165 0.151q0.063 0.093 0.091 0.214 0.027 0.121 0.023 0.245h-0.914a0.694 0.694 0 0 0 0.022 0.162m0.718 -0.443a0.417 0.417 0 0 0 -0.075 -0.135 0.347 0.347 0 0 0 -0.117 -0.094q-0.069 -0.036 -0.156 -0.036 -0.09 0 -0.159 0.036a0.347 0.347 0 0 0 -0.117 0.094 0.486 0.486 0 0 0 -0.077 0.136 0.694 0.694 0 0 0 -0.038 0.158h0.768a0.555 0.555 0 0 0 -0.028 -0.158m0.502 -0.354v0.278h0.005q0.055 -0.145 0.171 -0.224 0.116 -0.078 0.278 -0.072v0.146q-0.099 -0.004 -0.18 0.026a0.417 0.417 0 0 0 -0.14 0.089 0.417 0.417 0 0 0 -0.091 0.137q-0.032 0.08 -0.032 0.174v0.633h-0.144V0.49zm1.275 0.231a0.236 0.236 0 0 0 -0.068 -0.082 0.278 0.278 0 0 0 -0.098 -0.047 0.486 0.486 0 0 0 -0.117 -0.015 0.486 0.486 0 0 0 -0.098 0.01 0.278 0.278 0 0 0 -0.091 0.035 0.208 0.208 0 0 0 -0.067 0.063 0.174 0.174 0 0 0 -0.026 0.096q0 0.049 0.024 0.082 0.024 0.033 0.061 0.057a0.417 0.417 0 0 0 0.081 0.037q0.043 0.015 0.081 0.024l0.193 0.044a0.694 0.694 0 0 1 0.123 0.033 0.417 0.417 0 0 1 0.108 0.063 0.347 0.347 0 0 1 0.077 0.096q0.03 0.058 0.03 0.136 0 0.096 -0.044 0.165a0.347 0.347 0 0 1 -0.112 0.11 0.486 0.486 0 0 1 -0.153 0.061 0.833 0.833 0 0 1 -0.168 0.018 0.555 0.555 0 0 1 -0.339 -0.099q-0.13 -0.099 -0.149 -0.317h0.145q0.009 0.147 0.107 0.222a0.389 0.389 0 0 0 0.243 0.074 0.694 0.694 0 0 0 0.11 -0.011 0.347 0.347 0 0 0 0.105 -0.039 0.278 0.278 0 0 0 0.079 -0.071q0.031 -0.042 0.031 -0.105a0.167 0.167 0 0 0 -0.022 -0.089 0.208 0.208 0 0 0 -0.059 -0.06 0.347 0.347 0 0 0 -0.084 -0.04 1.388 1.388 0 0 0 -0.096 -0.028l-0.186 -0.042a1.388 1.388 0 0 1 -0.131 -0.042 0.417 0.417 0 0 1 -0.105 -0.06 0.25 0.25 0 0 1 -0.07 -0.087q-0.026 -0.051 -0.026 -0.128 0 -0.09 0.04 -0.154a0.312 0.312 0 0 1 0.105 -0.103 0.486 0.486 0 0 1 0.144 -0.058 0.694 0.694 0 0 1 0.158 -0.018q0.09 0 0.167 0.023a0.417 0.417 0 0 1 0.135 0.072 0.347 0.347 0 0 1 0.093 0.119q0.035 0.072 0.039 0.168h-0.144a0.278 0.278 0 0 0 -0.028 -0.116m0.572 -0.687v0.232h-0.145V0.035zm0 0.455v1.188h-0.145V0.49zm0.75 0v0.122h-0.242v0.801q0 0.072 0.019 0.111t0.098 0.045q0.062 0 0.124 -0.007v0.122l-0.065 0.002 -0.065 0.002q-0.145 0 -0.203 -0.056t-0.056 -0.208V0.612h-0.207V0.49h0.207V0.133h0.145v0.357zm0.23 0 0.392 1.013 0.365 -1.013h0.145l-0.515 1.367q-0.033 0.076 -0.06 0.125a0.278 0.278 0 0 1 -0.061 0.078 0.208 0.208 0 0 1 -0.078 0.042q-0.044 0.012 -0.114 0.012l-0.068 -0.003a0.139 0.139 0 0 1 -0.042 -0.008v-0.122l0.049 0.008q0.024 0.003 0.049 0.003a0.208 0.208 0 0 0 0.08 -0.014 0.167 0.167 0 0 0 0.054 -0.038 0.208 0.208 0 0 0 0.039 -0.058l0.034 -0.076 0.051 -0.133 -0.473 -1.183zm2.426 0.016q0.105 0.051 0.176 0.135 0.071 0.085 0.108 0.199t0.037 0.243 -0.037 0.243a0.625 0.625 0 0 1 -0.108 0.199 0.486 0.486 0 0 1 -0.176 0.135 0.555 0.555 0 0 1 -0.241 0.049 0.555 0.555 0 0 1 -0.24 -0.049 0.486 0.486 0 0 1 -0.176 -0.135 0.555 0.555 0 0 1 -0.108 -0.199 0.764 0.764 0 0 1 -0.037 -0.243q0 -0.128 0.037 -0.243a0.555 0.555 0 0 1 0.108 -0.199 0.555 0.555 0 0 1 0.176 -0.135 0.555 0.555 0 0 1 0.24 -0.051q0.135 0 0.241 0.051m-0.422 0.115a0.417 0.417 0 0 0 -0.13 0.115 0.555 0.555 0 0 0 -0.078 0.162 0.694 0.694 0 0 0 -0.026 0.185q0 0.094 0.026 0.185a0.555 0.555 0 0 0 0.078 0.162 0.417 0.417 0 0 0 0.13 0.115 0.347 0.347 0 0 0 0.182 0.044q0.103 0 0.182 -0.044a0.417 0.417 0 0 0 0.131 -0.115 0.555 0.555 0 0 0 0.078 -0.162 0.673 0.673 0 0 0 0 -0.371 0.555 0.555 0 0 0 -0.078 -0.162 0.417 0.417 0 0 0 -0.131 -0.115q-0.078 -0.044 -0.182 -0.044a0.368 0.368 0 0 0 -0.182 0.044M23.68 0.612v1.066h-0.145V0.612h-0.203V0.49h0.203V0.382q0 -0.076 0.011 -0.14a0.278 0.278 0 0 1 0.044 -0.11 0.208 0.208 0 0 1 0.089 -0.072 0.347 0.347 0 0 1 0.144 -0.026q0.033 0 0.06 0.002l0.062 0.007v0.124l-0.056 -0.008a0.694 0.694 0 0 0 -0.051 -0.003q-0.06 0 -0.092 0.019a0.111 0.111 0 0 0 -0.047 0.049q-0.015 0.031 -0.017 0.072l-0.002 0.09v0.105h0.235v0.122zm2.174 -0.25a0.486 0.486 0 0 0 -0.115 -0.126 0.486 0.486 0 0 0 -0.149 -0.077 0.555 0.555 0 0 0 -0.171 -0.026 0.597 0.597 0 0 0 -0.28 0.062 0.555 0.555 0 0 0 -0.192 0.165q-0.075 0.103 -0.11 0.231a0.972 0.972 0 0 0 -0.035 0.264q0 0.133 0.035 0.263t0.11 0.233a0.555 0.555 0 0 0 0.192 0.165q0.117 0.062 0.28 0.062 0.115 0 0.207 -0.042a0.486 0.486 0 0 0 0.159 -0.112 0.555 0.555 0 0 0 0.108 -0.167 0.694 0.694 0 0 0 0.053 -0.206h0.157a0.902 0.902 0 0 1 -0.072 0.274q-0.056 0.122 -0.143 0.208a0.625 0.625 0 0 1 -0.206 0.131q-0.118 0.046 -0.264 0.046 -0.194 0 -0.339 -0.07a0.694 0.694 0 0 1 -0.243 -0.187 0.833 0.833 0 0 1 -0.145 -0.271 1.111 1.111 0 0 1 -0.049 -0.324q0 -0.17 0.049 -0.324t0.145 -0.273 0.243 -0.189q0.146 -0.069 0.339 -0.069 0.117 0 0.229 0.035a0.694 0.694 0 0 1 0.202 0.102 0.625 0.625 0 0 1 0.152 0.167 0.555 0.555 0 0 1 0.077 0.228h-0.157a0.555 0.555 0 0 0 -0.068 -0.169m1.201 0.144a0.555 0.555 0 0 1 0.176 0.135q0.071 0.085 0.108 0.199 0.037 0.114 0.037 0.243t-0.037 0.243a0.625 0.625 0 0 1 -0.108 0.199 0.486 0.486 0 0 1 -0.176 0.135 0.555 0.555 0 0 1 -0.24 0.049 0.555 0.555 0 0 1 -0.24 -0.049q-0.105 -0.049 -0.176 -0.135t-0.108 -0.199a0.764 0.764 0 0 1 -0.036 -0.243q0 -0.129 0.036 -0.243a0.625 0.625 0 0 1 0.108 -0.199q0.071 -0.085 0.176 -0.135 0.105 -0.051 0.24 -0.051 0.136 0 0.24 0.051m-0.422 0.115a0.417 0.417 0 0 0 -0.131 0.115 0.555 0.555 0 0 0 -0.078 0.162 0.694 0.694 0 0 0 -0.026 0.185q0 0.094 0.026 0.185a0.555 0.555 0 0 0 0.078 0.162 0.417 0.417 0 0 0 0.131 0.115q0.078 0.044 0.181 0.044 0.104 0 0.182 -0.044a0.417 0.417 0 0 0 0.13 -0.115 0.555 0.555 0 0 0 0.078 -0.162 0.66 0.66 0 0 0 0 -0.371 0.555 0.555 0 0 0 -0.078 -0.162 0.417 0.417 0 0 0 -0.13 -0.115 0.347 0.347 0 0 0 -0.182 -0.044q-0.103 0 -0.181 0.044M27.739 0.035v1.643h-0.145V0.035zm1.02 0.472a0.555 0.555 0 0 1 0.176 0.135 0.625 0.625 0 0 1 0.108 0.199q0.037 0.114 0.037 0.243t-0.037 0.243a0.458 0.458 0 0 1 -0.108 0.199 0.486 0.486 0 0 1 -0.176 0.135 0.555 0.555 0 0 1 -0.24 0.049 0.555 0.555 0 0 1 -0.24 -0.049 0.486 0.486 0 0 1 -0.176 -0.135 0.625 0.625 0 0 1 -0.108 -0.199 0.764 0.764 0 0 1 -0.037 -0.243q0 -0.129 0.037 -0.243a0.625 0.625 0 0 1 0.108 -0.199 0.521 0.521 0 0 1 0.176 -0.135q0.104 -0.051 0.24 -0.051t0.24 0.051m-0.422 0.115a0.417 0.417 0 0 0 -0.131 0.115q-0.051 0.072 -0.078 0.162a0.694 0.694 0 0 0 -0.026 0.185q0 0.094 0.026 0.185 0.027 0.091 0.078 0.162a0.417 0.417 0 0 0 0.131 0.115q0.078 0.044 0.182 0.044 0.103 0 0.182 -0.044a0.417 0.417 0 0 0 0.13 -0.115 0.555 0.555 0 0 0 0.078 -0.162 0.666 0.666 0 0 0 0 -0.371 0.555 0.555 0 0 0 -0.078 -0.162 0.417 0.417 0 0 0 -0.13 -0.115 0.347 0.347 0 0 0 -0.182 -0.044q-0.103 0 -0.182 0.044m1.093 -0.132v0.278h0.004q0.056 -0.145 0.171 -0.224a0.451 0.451 0 0 1 0.277 -0.072v0.146a0.451 0.451 0 0 0 -0.179 0.026 0.417 0.417 0 0 0 -0.139 0.089 0.417 0.417 0 0 0 -0.091 0.137 0.486 0.486 0 0 0 -0.032 0.174v0.633h-0.145V0.49zm0.621 0.184a0.347 0.347 0 0 1 0.1 -0.124q0.064 -0.048 0.149 -0.072 0.085 -0.023 0.189 -0.023 0.078 0 0.157 0.015a0.417 0.417 0 0 1 0.14 0.056q0.062 0.042 0.101 0.117t0.039 0.194v0.63q0 0.087 0.085 0.087a0.139 0.139 0 0 0 0.046 -0.009v0.122l-0.044 0.007 -0.049 0.002a0.208 0.208 0 0 1 -0.089 -0.015q-0.033 -0.015 -0.052 -0.042a0.139 0.139 0 0 1 -0.024 -0.066 0.694 0.694 0 0 1 -0.006 -0.084h-0.005a1.388 1.388 0 0 1 -0.079 0.103 0.417 0.417 0 0 1 -0.09 0.075 0.417 0.417 0 0 1 -0.112 0.046 0.694 0.694 0 0 1 -0.151 0.016 0.625 0.625 0 0 1 -0.156 -0.019 0.347 0.347 0 0 1 -0.127 -0.062 0.278 0.278 0 0 1 -0.085 -0.108q-0.031 -0.065 -0.031 -0.156 0 -0.124 0.056 -0.194t0.146 -0.107 0.205 -0.051l0.231 -0.029a0.694 0.694 0 0 0 0.081 -0.012 0.139 0.139 0 0 0 0.058 -0.024 0.139 0.139 0 0 0 0.036 -0.047q0.012 -0.03 0.012 -0.078a0.278 0.278 0 0 0 -0.024 -0.121 0.208 0.208 0 0 0 -0.067 -0.075q-0.042 -0.028 -0.099 -0.038a0.694 0.694 0 0 0 -0.121 -0.01q-0.137 0 -0.226 0.066 -0.087 0.066 -0.092 0.21h-0.145a0.486 0.486 0 0 1 0.044 -0.18m0.725 0.355q-0.014 0.025 -0.053 0.037a0.694 0.694 0 0 1 -0.069 0.016 4.165 4.165 0 0 1 -0.19 0.028 1.041 1.041 0 0 0 -0.178 0.038 0.347 0.347 0 0 0 -0.133 0.072q-0.051 0.047 -0.051 0.135 0 0.055 0.022 0.098a0.208 0.208 0 0 0 0.059 0.074 0.278 0.278 0 0 0 0.085 0.047 0.278 0.278 0 0 0 0.099 0.016 0.486 0.486 0 0 0 0.159 -0.025 0.417 0.417 0 0 0 0.133 -0.074 0.347 0.347 0 0 0 0.09 -0.117q0.033 -0.069 0.033 -0.156v-0.189zm1.351 0.649v-0.226h-0.005a0.347 0.347 0 0 1 -0.068 0.106 0.417 0.417 0 0 1 -0.103 0.082 0.555 0.555 0 0 1 -0.123 0.052 0.486 0.486 0 0 1 -0.13 0.018 0.521 0.521 0 0 1 -0.236 -0.049 0.486 0.486 0 0 1 -0.167 -0.135q-0.067 -0.086 -0.099 -0.2a0.902 0.902 0 0 1 -0.032 -0.24q0 -0.126 0.032 -0.24a0.555 0.555 0 0 1 0.099 -0.201 0.486 0.486 0 0 1 0.167 -0.137q0.1 -0.051 0.236 -0.051 0.067 0 0.13 0.016 0.063 0.017 0.119 0.049a0.417 0.417 0 0 1 0.098 0.082q0.042 0.048 0.065 0.112h0.005V0.035h0.145v1.643zm-0.795 -0.411a0.486 0.486 0 0 0 0.069 0.162 0.382 0.382 0 0 0 0.121 0.117 0.347 0.347 0 0 0 0.177 0.044q0.115 0 0.194 -0.044a0.389 0.389 0 0 0 0.129 -0.117q0.049 -0.071 0.072 -0.162 0.022 -0.091 0.022 -0.183 0 -0.092 -0.022 -0.183 -0.022 -0.091 -0.072 -0.162a0.417 0.417 0 0 0 -0.129 -0.117 0.389 0.389 0 0 0 -0.194 -0.045 0.326 0.326 0 0 0 -0.177 0.045 0.417 0.417 0 0 0 -0.121 0.117q-0.047 0.072 -0.069 0.162a0.764 0.764 0 0 0 -0.022 0.183q0 0.092 0.022 0.183M33.28 0.507a0.555 0.555 0 0 1 0.176 0.135q0.071 0.085 0.108 0.199 0.037 0.114 0.036 0.243 0 0.129 -0.036 0.243a0.625 0.625 0 0 1 -0.108 0.199 0.486 0.486 0 0 1 -0.176 0.135 0.555 0.555 0 0 1 -0.24 0.049 0.555 0.555 0 0 1 -0.24 -0.049 0.486 0.486 0 0 1 -0.176 -0.135 0.625 0.625 0 0 1 -0.108 -0.199q-0.037 -0.114 -0.037 -0.243c0 -0.129 0.012 -0.167 0.037 -0.243a0.625 0.625 0 0 1 0.108 -0.199 0.555 0.555 0 0 1 0.176 -0.135q0.105 -0.051 0.24 -0.051 0.136 0 0.24 0.051m-0.422 0.115a0.417 0.417 0 0 0 -0.13 0.115 0.555 0.555 0 0 0 -0.078 0.162 0.694 0.694 0 0 0 -0.026 0.185q0 0.094 0.026 0.185a0.555 0.555 0 0 0 0.078 0.162 0.417 0.417 0 0 0 0.13 0.115 0.347 0.347 0 0 0 0.182 0.044q0.104 0 0.182 -0.044a0.417 0.417 0 0 0 0.131 -0.115q0.052 -0.071 0.078 -0.162a0.673 0.673 0 0 0 0 -0.371 0.555 0.555 0 0 0 -0.078 -0.162 0.417 0.417 0 0 0 -0.131 -0.115 0.347 0.347 0 0 0 -0.182 -0.044q-0.103 0 -0.182 0.044m-19.662 2.201a0.486 0.486 0 0 0 -0.115 -0.126 0.555 0.555 0 0 0 -0.149 -0.077 0.555 0.555 0 0 0 -0.171 -0.026q-0.163 0 -0.28 0.062 -0.117 0.062 -0.192 0.165a0.694 0.694 0 0 0 -0.11 0.231 0.972 0.972 0 0 0 -0.035 0.264q0 0.134 0.035 0.264 0.036 0.131 0.11 0.233t0.192 0.165q0.117 0.062 0.28 0.062 0.115 0 0.207 -0.042a0.486 0.486 0 0 0 0.159 -0.112 0.625 0.625 0 0 0 0.108 -0.167q0.042 -0.095 0.053 -0.205h0.156a0.902 0.902 0 0 1 -0.072 0.274q-0.056 0.122 -0.143 0.207a0.625 0.625 0 0 1 -0.206 0.131q-0.118 0.046 -0.264 0.046 -0.193 0 -0.339 -0.07t-0.243 -0.187 -0.145 -0.271a1.111 1.111 0 0 1 -0.049 -0.324q0 -0.17 0.049 -0.324t0.145 -0.273q0.096 -0.118 0.243 -0.189 0.146 -0.07 0.339 -0.07 0.117 0 0.229 0.035 0.111 0.035 0.203 0.103a0.625 0.625 0 0 1 0.152 0.167q0.061 0.099 0.077 0.228h-0.156a0.555 0.555 0 0 0 -0.068 -0.169m1.201 0.144a0.555 0.555 0 0 1 0.176 0.136q0.071 0.085 0.108 0.199a0.764 0.764 0 0 1 0.037 0.243q0 0.129 -0.037 0.243a0.555 0.555 0 0 1 -0.108 0.199 0.486 0.486 0 0 1 -0.176 0.135 0.555 0.555 0 0 1 -0.24 0.049 0.555 0.555 0 0 1 -0.24 -0.049 0.486 0.486 0 0 1 -0.176 -0.135 0.555 0.555 0 0 1 -0.108 -0.199 0.764 0.764 0 0 1 -0.037 -0.243q0 -0.128 0.037 -0.243t0.108 -0.199a0.521 0.521 0 0 1 0.176 -0.136q0.104 -0.051 0.24 -0.051t0.24 0.051m-0.422 0.115a0.417 0.417 0 0 0 -0.13 0.115 0.555 0.555 0 0 0 -0.078 0.162 0.694 0.694 0 0 0 -0.026 0.185q0 0.094 0.026 0.185a0.555 0.555 0 0 0 0.078 0.162 0.417 0.417 0 0 0 0.13 0.115 0.347 0.347 0 0 0 0.182 0.044 0.368 0.368 0 0 0 0.182 -0.044 0.417 0.417 0 0 0 0.13 -0.115 0.555 0.555 0 0 0 0.078 -0.162 0.66 0.66 0 0 0 0 -0.371q-0.026 -0.091 -0.078 -0.162a0.417 0.417 0 0 0 -0.13 -0.115q-0.078 -0.044 -0.182 -0.044t-0.182 0.044m1.107 -0.587v1.643h-0.145V2.494zm1.02 0.472a0.555 0.555 0 0 1 0.176 0.136q0.071 0.085 0.108 0.199 0.037 0.114 0.037 0.243t-0.037 0.243a0.625 0.625 0 0 1 -0.108 0.199 0.486 0.486 0 0 1 -0.176 0.135q-0.105 0.05 -0.24 0.049c-0.135 -0.001 -0.171 -0.017 -0.24 -0.049a0.486 0.486 0 0 1 -0.176 -0.135 0.625 0.625 0 0 1 -0.108 -0.199 0.764 0.764 0 0 1 -0.036 -0.243q0 -0.128 0.036 -0.243 0.037 -0.114 0.108 -0.199a0.555 0.555 0 0 1 0.176 -0.136q0.105 -0.051 0.24 -0.051c0.136 0 0.171 0.017 0.24 0.051m-0.422 0.115a0.417 0.417 0 0 0 -0.13 0.115 0.555 0.555 0 0 0 -0.078 0.162 0.66 0.66 0 0 0 0 0.371 0.555 0.555 0 0 0 0.078 0.162 0.417 0.417 0 0 0 0.13 0.115 0.347 0.347 0 0 0 0.182 0.044 0.368 0.368 0 0 0 0.182 -0.044 0.417 0.417 0 0 0 0.13 -0.115 0.555 0.555 0 0 0 0.078 -0.162q0.026 -0.091 0.026 -0.185t-0.026 -0.185a0.555 0.555 0 0 0 -0.078 -0.162 0.417 0.417 0 0 0 -0.13 -0.115q-0.078 -0.044 -0.182 -0.044t-0.182 0.044m1.093 -0.131v0.278h0.005a0.458 0.458 0 0 1 0.171 -0.224q0.117 -0.078 0.277 -0.072v0.145q-0.099 -0.005 -0.179 0.026a0.417 0.417 0 0 0 -0.14 0.089 0.417 0.417 0 0 0 -0.091 0.137 0.486 0.486 0 0 0 -0.032 0.174v0.633h-0.145V2.95zm0.621 0.184q0.037 -0.076 0.1 -0.124t0.149 -0.072q0.085 -0.023 0.188 -0.023 0.078 0 0.157 0.015a0.417 0.417 0 0 1 0.14 0.056q0.062 0.042 0.101 0.117a0.417 0.417 0 0 1 0.039 0.194v0.63q0 0.087 0.085 0.087a0.097 0.097 0 0 0 0.046 -0.01v0.122l-0.044 0.007 -0.049 0.002a0.208 0.208 0 0 1 -0.089 -0.015 0.139 0.139 0 0 1 -0.052 -0.042 0.139 0.139 0 0 1 -0.024 -0.065 0.694 0.694 0 0 1 -0.006 -0.084h-0.004a0.972 0.972 0 0 1 -0.08 0.102 0.417 0.417 0 0 1 -0.09 0.075 0.417 0.417 0 0 1 -0.112 0.046q-0.063 0.016 -0.151 0.016a0.625 0.625 0 0 1 -0.156 -0.019 0.347 0.347 0 0 1 -0.126 -0.062 0.278 0.278 0 0 1 -0.085 -0.108q-0.031 -0.065 -0.031 -0.155 0 -0.124 0.056 -0.194a0.347 0.347 0 0 1 0.146 -0.107q0.091 -0.037 0.205 -0.051l0.231 -0.029a0.694 0.694 0 0 0 0.081 -0.012q0.034 -0.007 0.058 -0.024a0.139 0.139 0 0 0 0.035 -0.047 0.208 0.208 0 0 0 0.012 -0.078 0.278 0.278 0 0 0 -0.024 -0.121 0.208 0.208 0 0 0 -0.067 -0.075 0.278 0.278 0 0 0 -0.099 -0.038 0.694 0.694 0 0 0 -0.121 -0.01q-0.138 0 -0.226 0.066 -0.087 0.065 -0.092 0.21h-0.145a0.486 0.486 0 0 1 0.044 -0.18m0.725 0.355q-0.014 0.025 -0.053 0.037a0.694 0.694 0 0 1 -0.069 0.016 4.165 4.165 0 0 1 -0.19 0.029q-0.098 0.012 -0.178 0.038 -0.081 0.025 -0.133 0.072t-0.051 0.135q0 0.056 0.022 0.098a0.278 0.278 0 0 0 0.059 0.074q0.037 0.031 0.085 0.047a0.347 0.347 0 0 0 0.099 0.016 0.486 0.486 0 0 0 0.159 -0.026 0.417 0.417 0 0 0 0.133 -0.074 0.347 0.347 0 0 0 0.09 -0.117 0.347 0.347 0 0 0 0.033 -0.156v-0.189zm1.351 0.649v-0.226h-0.005a0.347 0.347 0 0 1 -0.068 0.106 0.417 0.417 0 0 1 -0.103 0.082q-0.058 0.033 -0.123 0.051a0.486 0.486 0 0 1 -0.131 0.018 0.555 0.555 0 0 1 -0.236 -0.049 0.486 0.486 0 0 1 -0.167 -0.135 0.555 0.555 0 0 1 -0.099 -0.201 0.902 0.902 0 0 1 -0.032 -0.24q0 -0.126 0.032 -0.24a0.555 0.555 0 0 1 0.099 -0.2 0.486 0.486 0 0 1 0.167 -0.137 0.514 0.514 0 0 1 0.236 -0.051 0.486 0.486 0 0 1 0.131 0.016 0.417 0.417 0 0 1 0.119 0.049 0.417 0.417 0 0 1 0.098 0.082 0.347 0.347 0 0 1 0.066 0.113h0.004v-0.683h0.145V4.138zm-0.796 -0.411q0.022 0.091 0.069 0.162a0.382 0.382 0 0 0 0.121 0.115q0.074 0.045 0.177 0.045a0.389 0.389 0 0 0 0.194 -0.045 0.389 0.389 0 0 0 0.129 -0.116 0.486 0.486 0 0 0 0.072 -0.162q0.022 -0.09 0.022 -0.183a0.764 0.764 0 0 0 -0.022 -0.183 0.486 0.486 0 0 0 -0.072 -0.162 0.389 0.389 0 0 0 -0.129 -0.117 0.389 0.389 0 0 0 -0.194 -0.044q-0.103 0 -0.177 0.044a0.382 0.382 0 0 0 -0.121 0.117q-0.047 0.072 -0.069 0.162a0.764 0.764 0 0 0 0 0.366m1.947 -0.761a0.521 0.521 0 0 1 0.176 0.136q0.072 0.085 0.108 0.199a0.764 0.764 0 0 1 0.037 0.243q0 0.128 -0.037 0.243a0.625 0.625 0 0 1 -0.108 0.199 0.486 0.486 0 0 1 -0.176 0.135 0.555 0.555 0 0 1 -0.24 0.049 0.555 0.555 0 0 1 -0.241 -0.049 0.486 0.486 0 0 1 -0.176 -0.135 0.625 0.625 0 0 1 -0.108 -0.199q-0.037 -0.114 -0.037 -0.243t0.037 -0.243a0.625 0.625 0 0 1 0.108 -0.199 0.521 0.521 0 0 1 0.176 -0.136q0.105 -0.051 0.241 -0.051t0.24 0.051m-0.422 0.115a0.417 0.417 0 0 0 -0.13 0.115 0.555 0.555 0 0 0 -0.078 0.162 0.694 0.694 0 0 0 -0.026 0.185q0 0.094 0.026 0.185a0.555 0.555 0 0 0 0.078 0.162 0.417 0.417 0 0 0 0.13 0.115 0.347 0.347 0 0 0 0.182 0.044 0.368 0.368 0 0 0 0.182 -0.044 0.417 0.417 0 0 0 0.13 -0.115 0.555 0.555 0 0 0 0.078 -0.162 0.666 0.666 0 0 0 0 -0.371 0.555 0.555 0 0 0 -0.078 -0.162 0.417 0.417 0 0 0 -0.13 -0.115q-0.078 -0.044 -0.182 -0.044t-0.182 0.044m1.74 0.727q0.042 0.085 0.114 0.136a0.486 0.486 0 0 0 0.171 0.072q0.099 0.022 0.212 0.022a0.694 0.694 0 0 0 0.14 -0.019 0.486 0.486 0 0 0 0.142 -0.058 0.347 0.347 0 0 0 0.109 -0.103q0.044 -0.063 0.044 -0.153a0.208 0.208 0 0 0 -0.031 -0.119 0.278 0.278 0 0 0 -0.081 -0.085 0.486 0.486 0 0 0 -0.11 -0.056 1.388 1.388 0 0 0 -0.117 -0.035l-0.366 -0.09a1.388 1.388 0 0 1 -0.14 -0.046 0.417 0.417 0 0 1 -0.119 -0.074 0.347 0.347 0 0 1 -0.081 -0.112q-0.031 -0.067 -0.031 -0.163 0 -0.06 0.023 -0.141a0.382 0.382 0 0 1 0.086 -0.151q0.063 -0.072 0.174 -0.121a0.694 0.694 0 0 1 0.283 -0.049q0.121 0 0.233 0.032a0.555 0.555 0 0 1 0.193 0.097 0.486 0.486 0 0 1 0.133 0.16 0.486 0.486 0 0 1 0.049 0.222h-0.156a0.382 0.382 0 0 0 -0.042 -0.165 0.382 0.382 0 0 0 -0.099 -0.117 0.417 0.417 0 0 0 -0.14 -0.072 0.555 0.555 0 0 0 -0.167 -0.024 0.694 0.694 0 0 0 -0.156 0.017q-0.074 0.017 -0.131 0.055a0.278 0.278 0 0 0 -0.091 0.1q-0.035 0.062 -0.035 0.154 0 0.057 0.019 0.101a0.208 0.208 0 0 0 0.054 0.072 0.278 0.278 0 0 0 0.079 0.049q0.045 0.019 0.096 0.03l0.401 0.099q0.086 0.023 0.165 0.056a0.555 0.555 0 0 1 0.136 0.083 0.347 0.347 0 0 1 0.092 0.121q0.033 0.072 0.033 0.173 0 0.028 -0.006 0.074t-0.028 0.098a0.486 0.486 0 0 1 -0.062 0.105 0.417 0.417 0 0 1 -0.11 0.096q-0.07 0.042 -0.174 0.069 -0.104 0.026 -0.249 0.026 -0.146 0 -0.269 -0.033a0.555 0.555 0 0 1 -0.212 -0.102 0.444 0.444 0 0 1 -0.135 -0.178q-0.047 -0.108 -0.04 -0.26h0.156a0.486 0.486 0 0 0 0.039 0.212m1.443 -0.858v0.226h0.005a0.382 0.382 0 0 1 0.165 -0.192 0.486 0.486 0 0 1 0.259 -0.068q0.136 0 0.236 0.051a0.486 0.486 0 0 1 0.167 0.137q0.067 0.086 0.099 0.2t0.032 0.24q0 0.126 -0.032 0.24 -0.033 0.114 -0.099 0.201a0.486 0.486 0 0 1 -0.167 0.135 0.521 0.521 0 0 1 -0.236 0.049q-0.065 0 -0.129 -0.016a0.417 0.417 0 0 1 -0.119 -0.049 0.417 0.417 0 0 1 -0.098 -0.081 0.347 0.347 0 0 1 -0.065 -0.112h-0.005v0.66h-0.145V2.95zm0.796 0.411q-0.022 -0.091 -0.069 -0.162a0.382 0.382 0 0 0 -0.121 -0.117q-0.074 -0.044 -0.177 -0.044 -0.12 0 -0.2 0.042a0.347 0.347 0 0 0 -0.129 0.11q-0.049 0.069 -0.068 0.161a0.972 0.972 0 0 0 -0.019 0.193q0 0.092 0.022 0.183 0.022 0.091 0.072 0.162a0.382 0.382 0 0 0 0.128 0.116q0.08 0.045 0.194 0.045a0.347 0.347 0 0 0 0.177 -0.045 0.382 0.382 0 0 0 0.121 -0.116 0.486 0.486 0 0 0 0.069 -0.162q0.022 -0.091 0.022 -0.183a0.764 0.764 0 0 0 -0.022 -0.183m0.526 -0.411v0.278h0.005a0.458 0.458 0 0 1 0.171 -0.224q0.117 -0.078 0.277 -0.072v0.145a0.417 0.417 0 0 0 -0.179 0.026 0.417 0.417 0 0 0 -0.14 0.089 0.417 0.417 0 0 0 -0.091 0.137 0.486 0.486 0 0 0 -0.032 0.174v0.633h-0.145V2.95zm0.739 -0.456v0.233h-0.145v-0.233zm0 0.456v1.188h-0.145V2.95zm0.421 0v0.205h0.004a0.347 0.347 0 0 1 0.147 -0.174 0.417 0.417 0 0 1 0.233 -0.065q0.124 0 0.208 0.032 0.083 0.033 0.135 0.091a0.347 0.347 0 0 1 0.071 0.144q0.021 0.085 0.021 0.191v0.764h-0.145V3.397a0.694 0.694 0 0 0 -0.014 -0.141 0.278 0.278 0 0 0 -0.049 -0.115q-0.034 -0.048 -0.093 -0.076a0.347 0.347 0 0 0 -0.146 -0.028 0.347 0.347 0 0 0 -0.156 0.031 0.347 0.347 0 0 0 -0.115 0.085q-0.047 0.054 -0.074 0.129a0.555 0.555 0 0 0 -0.028 0.162v0.693h-0.144v-1.187zm2.067 1.328a0.451 0.451 0 0 1 -0.091 0.18 0.396 0.396 0 0 1 -0.162 0.112 0.694 0.694 0 0 1 -0.245 0.039q-0.09 0 -0.175 -0.021a0.486 0.486 0 0 1 -0.153 -0.065 0.382 0.382 0 0 1 -0.112 -0.112q-0.045 -0.068 -0.052 -0.162h0.145q0.011 0.067 0.045 0.112a0.278 0.278 0 0 0 0.081 0.072 0.347 0.347 0 0 0 0.105 0.04q0.058 0.012 0.117 0.012 0.203 0 0.292 -0.115 0.09 -0.115 0.09 -0.331v-0.161h-0.004a0.417 0.417 0 0 1 -0.149 0.178 0.396 0.396 0 0 1 -0.229 0.067q-0.142 0 -0.244 -0.047t-0.167 -0.13 -0.096 -0.194a0.972 0.972 0 0 1 -0.03 -0.238q0 -0.121 0.035 -0.231a0.555 0.555 0 0 1 0.103 -0.192 0.486 0.486 0 0 1 0.168 -0.128 0.528 0.528 0 0 1 0.229 -0.047 0.417 0.417 0 0 1 0.126 0.018 0.417 0.417 0 0 1 0.107 0.051 0.486 0.486 0 0 1 0.086 0.077 0.347 0.347 0 0 1 0.059 0.092h0.004v-0.205h0.145v1.091q0 0.132 -0.028 0.237m-0.333 -0.317a0.382 0.382 0 0 0 0.12 -0.106q0.048 -0.065 0.072 -0.151a0.694 0.694 0 0 0 0.024 -0.175q0 -0.087 -0.021 -0.175a0.486 0.486 0 0 0 -0.067 -0.159 0.347 0.347 0 0 0 -0.119 -0.115q-0.072 -0.044 -0.176 -0.044a0.347 0.347 0 0 0 -0.177 0.042 0.375 0.375 0 0 0 -0.121 0.112 0.486 0.486 0 0 0 -0.07 0.158 0.694 0.694 0 0 0 -0.022 0.18q0 0.09 0.023 0.175 0.023 0.085 0.071 0.151a0.347 0.347 0 0 0 0.122 0.106q0.074 0.04 0.175 0.04 0.094 0 0.166 -0.04m1.321 -0.78a0.236 0.236 0 0 0 -0.068 -0.081 0.278 0.278 0 0 0 -0.098 -0.047 0.486 0.486 0 0 0 -0.117 -0.015q-0.049 0 -0.098 0.01a0.278 0.278 0 0 0 -0.091 0.035 0.208 0.208 0 0 0 -0.067 0.064 0.167 0.167 0 0 0 -0.026 0.096q0 0.048 0.024 0.081a0.208 0.208 0 0 0 0.061 0.057 0.417 0.417 0 0 0 0.081 0.037 1.388 1.388 0 0 0 0.08 0.024l0.194 0.044a0.555 0.555 0 0 1 0.124 0.033 0.417 0.417 0 0 1 0.108 0.063 0.278 0.278 0 0 1 0.077 0.096q0.03 0.058 0.031 0.135 0 0.096 -0.044 0.165a0.347 0.347 0 0 1 -0.112 0.11 0.486 0.486 0 0 1 -0.153 0.061 0.694 0.694 0 0 1 -0.168 0.018q-0.209 0 -0.339 -0.099 -0.13 -0.099 -0.148 -0.317h0.144a0.285 0.285 0 0 0 0.107 0.221q0.098 0.075 0.243 0.075a0.694 0.694 0 0 0 0.109 -0.012 0.347 0.347 0 0 0 0.105 -0.039 0.278 0.278 0 0 0 0.079 -0.07 0.18 0.18 0 0 0 0.031 -0.105q0 -0.053 -0.022 -0.089a0.208 0.208 0 0 0 -0.059 -0.06 0.347 0.347 0 0 0 -0.084 -0.04 1.388 1.388 0 0 0 -0.095 -0.028l-0.186 -0.042a1.388 1.388 0 0 1 -0.131 -0.042 0.417 0.417 0 0 1 -0.104 -0.06 0.25 0.25 0 0 1 -0.07 -0.087 0.278 0.278 0 0 1 -0.026 -0.128q0 -0.09 0.04 -0.154a0.347 0.347 0 0 1 0.105 -0.103 0.486 0.486 0 0 1 0.144 -0.058 0.694 0.694 0 0 1 0.158 -0.018q0.09 0 0.167 0.023a0.417 0.417 0 0 1 0.136 0.072 0.347 0.347 0 0 1 0.093 0.119q0.035 0.072 0.04 0.168h-0.145q-0.002 -0.067 -0.027 -0.116M10.185 0.673h-1.724l-0.428 0.434 -0.432 -0.434H5.883l-0.434 0.435L5.015 0.673H3.298l-0.299 0.299V0.673H1.783v0.25h-0.55V0.673H0.035v1.019h0.171v1.343l0.545 0.54h1.52l0.478 -0.479h0.073l0.478 0.478h1.716l0.432 -0.436 0.435 0.436h1.717l0.432 -0.435 0.428 0.435h1.722l0.541 -0.541V2.122l-0.207 -0.207h0.208v-0.701z"/><path fill="#cfb87c" d="M2.285 3.609h-1.548l-0.035 -0.035 -0.53 -0.526V1.727H0V0.637h1.269v0.25h0.48v-0.25h1.286v0.249L3.284 0.637h1.745l0.419 0.42 0.419 -0.42h1.747l0.418 0.419 0.414 -0.419h1.754l0.56 0.563V1.951h-0.158l0.158 0.158v0.939l-0.562 0.561h-1.752l-0.414 -0.421 -0.417 0.421H5.868l-0.421 -0.421 -0.418 0.421H3.284l-0.036 -0.036 -0.442 -0.442h-0.044zm-1.52 -0.07h1.49l0.478 -0.479h0.102l0.478 0.478h1.687l0.447 -0.451 0.451 0.451h1.688l0.446 -0.45 0.443 0.45h1.692l0.52 -0.521V2.137l-0.256 -0.257h0.258V1.229l-0.519 -0.521h-1.695l-0.442 0.449 -0.447 -0.449H5.898l-0.448 0.449 -0.448 -0.449H3.312l-0.348 0.349v-0.349H1.819v0.25h-0.62v-0.25H0.07v0.949h0.171v1.363z"/><path fill="#cfb87c" d="m8.566 3.32 -0.387 -0.394v-0.348h0.526v0.219h1.241v-0.458l-1.447 0.001 -0.32 -0.32V1.318l0.387 -0.393 1.513 -0.001 0.392 0.394v0.344h-0.524v-0.225h-1.244v0.461h1.439l0.33 0.33v0.698l-0.393 0.394z"/><path fill="#fff" d="m10.063 0.962 0.369 0.371v0.29h-0.448v-0.225H8.664v0.537h1.461l0.308 0.307v0.667l-0.371 0.371h-1.48l-0.364 -0.371v-0.295h0.45v0.219h1.318v-0.534l-1.469 0.001 -0.298 -0.298v-0.67l0.364 -0.371zm0.032 -0.076 -1.545 0.001 -0.409 0.416v0.733l0.343 0.342 1.425 -0.001v0.382h-1.164v-0.219h-0.603v0.403l0.409 0.416h1.543l0.415 -0.416V2.212l-0.352 -0.352H8.74v-0.384h1.168v0.225h0.601v-0.398z"/><path fill="#cfb87c" d="m5.987 3.32 -0.393 -0.393 0.001 -1.608 0.392 -0.394h1.508l0.392 0.393v0.362h-0.523v-0.242h-1.25V2.798h1.25v-0.22h0.52v0.348l-0.389 0.394z"/><path fill="#fff" d="m7.479 0.963 0.369 0.371v0.308h-0.446v-0.242h-1.326v1.436h1.326v-0.219h0.444v0.295l-0.367 0.371H6.003l-0.371 -0.37 0.001 -1.577 0.37 -0.371zm0.032 -0.076H5.971l-0.414 0.416 -0.001 1.64 0.415 0.415h1.54l0.412 -0.416v-0.403h-0.597v0.219h-1.173V1.476h1.173v0.242h0.598v-0.416z"/><path fill="#cfb87c" d="m3.402 3.32 -0.394 -0.393 0.001 -1.608 0.393 -0.394h1.508l0.392 0.393 -0.001 0.362h-0.523v-0.242H3.532V2.798H4.776v-0.22h0.523v0.348l-0.389 0.394z"/><path fill="#fff" d="m4.894 0.963 0.369 0.371 -0.001 0.308h-0.448v-0.242H3.493v1.436h1.32v-0.219h0.446v0.295l-0.367 0.371H3.418l-0.371 -0.37V1.335l0.371 -0.371zm0.032 -0.076H3.386l-0.415 0.416 -0.001 1.64 0.416 0.415h1.54l0.411 -0.416v-0.403h-0.599v0.219H3.57V1.476h1.168v0.242h0.6l0.001 -0.416z"/><path fill="#cfb87c" d="m0.855 3.321 -0.396 -0.392V1.438H0.287v-0.513h0.694V2.798h1.055V0.925h0.709v0.513h-0.187v1.488l-0.393 0.395z"/><path fill="#fff" d="M2.707 0.963v0.437h-0.187v1.511l-0.371 0.372H0.871l-0.373 -0.37v-1.513H0.326v-0.437h0.617v1.873h1.132V0.963zm0.076 -0.076H1.998v1.873h-0.979V0.887H0.25v0.589h0.171v1.468l0.419 0.415h1.343l0.415 -0.417V1.476h0.187z"/></svg>