999
"DXF R12 Output" (www.mydxf.blogspot.com)
 0 
SECTION
 2 
HEADER
 9 
$ACADVER
 1 
AC1009
 9 
$EXTMIN
 10 
 0 
 20 
 0 
 9 
$EXTMAX
 10 
 8.5 
 20 
 11 
 0 
ENDSEC
 0 
SECTION
 2 
ENTITIES
0
POLYLINE
8
Layer 1
62
7
70
0
10
0.000000
20
0.000000
66
1
0
VERTEX
8
Layer 1
10
4.651105
20
1.743601
70
0
0
VERTEX
8
Layer 1
10
4.651105
20
1.355987
70
0
0
VERTEX
8
Layer 1
10
4.663275
20
1.263383
70
0
0
VERTEX
8
Layer 1
10
4.699259
20
1.201206
70
0
0
VERTEX
8
Layer 1
10
4.757202
20
1.166016
70
0
0
VERTEX
8
Layer 1
10
4.834196
20
1.154904
70
0
0
VERTEX
8
Layer 1
10
4.912248
20
1.166016
70
0
0
VERTEX
8
Layer 1
10
4.969927
20
1.201206
70
0
0
VERTEX
8
Layer 1
10
5.005910
20
1.263383
70
0
0
VERTEX
8
Layer 1
10
5.018081
20
1.355987
70
0
0
VERTEX
8
Layer 1
10
5.018081
20
1.743601
70
0
0
VERTEX
8
Layer 1
10
5.077877
20
1.743601
70
0
0
VERTEX
8
Layer 1
10
5.077877
20
1.342758
70
0
0
VERTEX
8
Layer 1
10
5.064383
20
1.250947
70
0
0
VERTEX
8
Layer 1
10
5.021521
20
1.175012
70
0
0
VERTEX
8
Layer 1
10
4.946115
20
1.123683
70
0
0
VERTEX
8
Layer 1
10
4.834196
20
1.104897
70
0
0
VERTEX
8
Layer 1
10
4.723336
20
1.123683
70
0
0
VERTEX
8
Layer 1
10
4.647930
20
1.175012
70
0
0
VERTEX
8
Layer 1
10
4.605067
20
1.250947
70
0
0
VERTEX
8
Layer 1
10
4.591573
20
1.342758
70
0
0
VERTEX
8
Layer 1
10
4.591573
20
1.743601
70
0
0
VERTEX
8
Layer 1
10
4.651105
20
1.743601
70
0
0
SEQEND
8
Layer 1
0
POLYLINE
8
Layer 1
62
7
70
0
10
0.000000
20
0.000000
66
1
0
VERTEX
8
Layer 1
10
5.242183
20
1.570034
70
0
0
VERTEX
8
Layer 1
10
5.242183
20
1.491982
70
0
0
VERTEX
8
Layer 1
10
5.244035
20
1.491982
70
0
0
VERTEX
8
Layer 1
10
5.300127
20
1.558128
70
0
0
VERTEX
8
Layer 1
10
5.388762
20
1.583264
70
0
0
VERTEX
8
Layer 1
10
5.468137
20
1.570828
70
0
0
VERTEX
8
Layer 1
10
5.519466
20
1.536168
70
0
0
VERTEX
8
Layer 1
10
5.546718
20
1.481399
70
0
0
VERTEX
8
Layer 1
10
5.554656
20
1.408639
70
0
0
VERTEX
8
Layer 1
10
5.554656
20
1.117333
70
0
0
VERTEX
8
Layer 1
10
5.499358
20
1.117333
70
0
0
VERTEX
8
Layer 1
10
5.499358
20
1.399908
70
0
0
VERTEX
8
Layer 1
10
5.494066
20
1.453882
70
0
0
VERTEX
8
Layer 1
10
5.475545
20
1.497274
70
0
0
VERTEX
8
Layer 1
10
5.440091
20
1.526114
70
0
0
VERTEX
8
Layer 1
10
5.384264
20
1.536697
70
0
0
VERTEX
8
Layer 1
10
5.324997
20
1.524791
70
0
0
VERTEX
8
Layer 1
10
5.281077
20
1.492247
70
0
0
VERTEX
8
Layer 1
10
5.253031
20
1.443035
70
0
0
VERTEX
8
Layer 1
10
5.241918
20
1.381122
70
0
0
VERTEX
8
Layer 1
10
5.241918
20
1.117068
70
0
0
VERTEX
8
Layer 1
10
5.186621
20
1.117068
70
0
0
VERTEX
8
Layer 1
10
5.186621
20
1.570034
70
0
0
VERTEX
8
Layer 1
10
5.242183
20
1.570034
70
0
0
SEQEND
8
Layer 1
0
POLYLINE
8
Layer 1
62
7
70
0
10
0.000000
20
0.000000
66
1
0
VERTEX
8
Layer 1
10
5.714993
20
1.743601
70
0
0
VERTEX
8
Layer 1
10
5.714993
20
1.655230
70
0
0
VERTEX
8
Layer 1
10
5.659960
20
1.655230
70
0
0
VERTEX
8
Layer 1
10
5.659960
20
1.743601
70
0
0
VERTEX
8
Layer 1
10
5.714993
20
1.743601
70
0
0
SEQEND
8
Layer 1
0
POLYLINE
8
Layer 1
62
7
70
0
10
0.000000
20
0.000000
66
1
0
VERTEX
8
Layer 1
10
5.714993
20
1.570034
70
0
0
VERTEX
8
Layer 1
10
5.714993
20
1.117333
70
0
0
VERTEX
8
Layer 1
10
5.659960
20
1.117333
70
0
0
VERTEX
8
Layer 1
10
5.659960
20
1.570034
70
0
0
VERTEX
8
Layer 1
10
5.714993
20
1.570034
70
0
0
SEQEND
8
Layer 1
0
POLYLINE
8
Layer 1
62
7
70
0
10
0.000000
20
0.000000
66
1
0
VERTEX
8
Layer 1
10
5.831674
20
1.570034
70
0
0
VERTEX
8
Layer 1
10
5.973755
20
1.172631
70
0
0
VERTEX
8
Layer 1
10
5.975607
20
1.172631
70
0
0
VERTEX
8
Layer 1
10
6.115836
20
1.570034
70
0
0
VERTEX
8
Layer 1
10
6.172721
20
1.570034
70
0
0
VERTEX
8
Layer 1
10
6.003388
20
1.117333
70
0
0
VERTEX
8
Layer 1
10
5.944651
20
1.117333
70
0
0
VERTEX
8
Layer 1
10
5.770026
20
1.570034
70
0
0
VERTEX
8
Layer 1
10
5.831674
20
1.570034
70
0
0
SEQEND
8
Layer 1
0
POLYLINE
8
Layer 1
62
7
70
0
10
0.000000
20
0.000000
66
1
0
VERTEX
8
Layer 1
10
6.267971
20
1.267087
70
0
0
VERTEX
8
Layer 1
10
6.294694
20
1.209672
70
0
0
VERTEX
8
Layer 1
10
6.341261
20
1.167604
70
0
0
VERTEX
8
Layer 1
10
6.408729
20
1.150935
70
0
0
VERTEX
8
Layer 1
10
6.503450
20
1.182420
70
0
0
VERTEX
8
Layer 1
10
6.550810
20
1.266558
70
0
0
VERTEX
8
Layer 1
10
6.606108
20
1.266558
70
0
0
VERTEX
8
Layer 1
10
6.541815
20
1.147231
70
0
0
VERTEX
8
Layer 1
10
6.408994
20
1.105162
70
0
0
VERTEX
8
Layer 1
10
6.316390
20
1.123947
70
0
0
VERTEX
8
Layer 1
10
6.252625
20
1.175541
70
0
0
VERTEX
8
Layer 1
10
6.216113
20
1.251741
70
0
0
VERTEX
8
Layer 1
10
6.204471
20
1.343287
70
0
0
VERTEX
8
Layer 1
10
6.216113
20
1.430864
70
0
0
VERTEX
8
Layer 1
10
6.252625
20
1.507593
70
0
0
VERTEX
8
Layer 1
10
6.316390
20
1.562097
70
0
0
VERTEX
8
Layer 1
10
6.408994
20
1.582734
70
0
0
VERTEX
8
Layer 1
10
6.501863
20
1.560774
70
0
0
VERTEX
8
Layer 1
10
6.564569
20
1.503359
70
0
0
VERTEX
8
Layer 1
10
6.599229
20
1.421868
70
0
0
VERTEX
8
Layer 1
10
6.607960
20
1.328470
70
0
0
VERTEX
8
Layer 1
10
6.259769
20
1.328470
70
0
0
VERTEX
8
Layer 1
10
6.268236
20
1.266558
70
0
0
SEQEND
8
Layer 1
0
POLYLINE
8
Layer 1
62
7
70
0
10
0.000000
20
0.000000
66
1
0
VERTEX
8
Layer 1
10
6.541815
20
1.435362
70
0
0
VERTEX
8
Layer 1
10
6.513240
20
1.486691
70
0
0
VERTEX
8
Layer 1
10
6.468525
20
1.522674
70
0
0
VERTEX
8
Layer 1
10
6.408994
20
1.536432
70
0
0
VERTEX
8
Layer 1
10
6.348405
20
1.522674
70
0
0
VERTEX
8
Layer 1
10
6.303690
20
1.486691
70
0
0
VERTEX
8
Layer 1
10
6.274321
20
1.434832
70
0
0
VERTEX
8
Layer 1
10
6.259769
20
1.374772
70
0
0
VERTEX
8
Layer 1
10
6.552663
20
1.374772
70
0
0
VERTEX
8
Layer 1
10
6.541815
20
1.435097
70
0
0
SEQEND
8
Layer 1
0
POLYLINE
8
Layer 1
62
7
70
0
10
0.000000
20
0.000000
66
1
0
VERTEX
8
Layer 1
10
6.733108
20
1.570034
70
0
0
VERTEX
8
Layer 1
10
6.733108
20
1.463937
70
0
0
VERTEX
8
Layer 1
10
6.734960
20
1.463937
70
0
0
VERTEX
8
Layer 1
10
6.800312
20
1.549132
70
0
0
VERTEX
8
Layer 1
10
6.906145
20
1.576384
70
0
0
VERTEX
8
Layer 1
10
6.906145
20
1.520822
70
0
0
VERTEX
8
Layer 1
10
6.837618
20
1.510768
70
0
0
VERTEX
8
Layer 1
10
6.784437
20
1.476901
70
0
0
VERTEX
8
Layer 1
10
6.749777
20
1.424778
70
0
0
VERTEX
8
Layer 1
10
6.737606
20
1.358633
70
0
0
VERTEX
8
Layer 1
10
6.737606
20
1.117333
70
0
0
VERTEX
8
Layer 1
10
6.682573
20
1.117333
70
0
0
VERTEX
8
Layer 1
10
6.682573
20
1.570034
70
0
0
VERTEX
8
Layer 1
10
6.733108
20
1.570034
70
0
0
SEQEND
8
Layer 1
0
POLYLINE
8
Layer 1
62
7
70
0
10
0.000000
20
0.000000
66
1
0
VERTEX
8
Layer 1
10
7.218883
20
1.481928
70
0
0
VERTEX
8
Layer 1
10
7.192953
20
1.513149
70
0
0
VERTEX
8
Layer 1
10
7.155647
20
1.531141
70
0
0
VERTEX
8
Layer 1
10
7.110933
20
1.536697
70
0
0
VERTEX
8
Layer 1
10
7.073627
20
1.532728
70
0
0
VERTEX
8
Layer 1
10
7.038966
20
1.519499
70
0
0
VERTEX
8
Layer 1
10
7.013566
20
1.495422
70
0
0
VERTEX
8
Layer 1
10
7.003777
20
1.458645
70
0
0
VERTEX
8
Layer 1
10
7.013037
20
1.427424
70
0
0
VERTEX
8
Layer 1
10
7.036320
20
1.405728
70
0
0
VERTEX
8
Layer 1
10
7.067012
20
1.391441
70
0
0
VERTEX
8
Layer 1
10
7.097704
20
1.382180
70
0
0
VERTEX
8
Layer 1
10
7.171258
20
1.365512
70
0
0
VERTEX
8
Layer 1
10
7.218089
20
1.352812
70
0
0
VERTEX
8
Layer 1
10
7.259364
20
1.328735
70
0
0
VERTEX
8
Layer 1
10
7.288732
20
1.291958
70
0
0
VERTEX
8
Layer 1
10
7.300110
20
1.240099
70
0
0
VERTEX
8
Layer 1
10
7.283441
20
1.177393
70
0
0
VERTEX
8
Layer 1
10
7.240843
20
1.135325
70
0
0
VERTEX
8
Layer 1
10
7.182635
20
1.112041
70
0
0
VERTEX
8
Layer 1
10
7.118606
20
1.105162
70
0
0
VERTEX
8
Layer 1
10
6.989225
20
1.142733
70
0
0
VERTEX
8
Layer 1
10
6.932604
20
1.263647
70
0
0
VERTEX
8
Layer 1
10
6.522765
20
0.960700
70
0
0
VERTEX
8
Layer 1
10
6.563510
20
0.876033
70
0
0
VERTEX
8
Layer 1
10
6.656115
20
0.847723
70
0
0
VERTEX
8
Layer 1
10
6.697919
20
0.851956
70
0
0
VERTEX
8
Layer 1
10
6.737871
20
0.866773
70
0
0
VERTEX
8
Layer 1
10
6.768033
20
0.893760
70
0
0
VERTEX
8
Layer 1
10
6.779939
20
0.933712
70
0
0
VERTEX
8
Layer 1
10
6.771737
20
0.967579
70
0
0
VERTEX
8
Layer 1
10
6.749248
20
0.990333
70
0
0
VERTEX
8
Layer 1
10
6.717233
20
1.005679
70
0
0
VERTEX
8
Layer 1
10
6.680721
20
1.016262
70
0
0
VERTEX
8
Layer 1
10
6.609813
20
1.032137
70
0
0
VERTEX
8
Layer 1
10
6.559806
20
1.048277
70
0
0
VERTEX
8
Layer 1
10
6.519854
20
1.071031
70
0
0
VERTEX
8
Layer 1
10
6.493131
20
1.104368
70
0
0
VERTEX
8
Layer 1
10
6.483342
20
1.153052
70
0
0
VERTEX
8
Layer 1
10
6.498688
20
1.211789
70
0
0
VERTEX
8
Layer 1
10
6.538640
20
1.251212
70
0
0
VERTEX
8
Layer 1
10
6.593673
20
1.273172
70
0
0
VERTEX
8
Layer 1
10
6.653733
20
1.280051
70
0
0
VERTEX
8
Layer 1
10
6.717233
20
1.271320
70
0
0
VERTEX
8
Layer 1
10
6.768827
20
1.244068
70
0
0
VERTEX
8
Layer 1
10
6.804281
20
1.198560
70
0
0
VERTEX
8
Layer 1
10
6.819098
20
1.134531
70
0
0
VERTEX
8
Layer 1
10
6.764064
20
1.134531
70
0
0
VERTEX
8
Layer 1
10
6.753481
20
1.178716
70
0
0
SEQEND
8
Layer 1
0
POLYLINE
8
Layer 1
62
7
70
0
10
0.000000
20
0.000000
66
1
0
VERTEX
8
Layer 1
10
7.436634
20
1.743601
70
0
0
VERTEX
8
Layer 1
10
7.436634
20
1.655230
70
0
0
VERTEX
8
Layer 1
10
7.381337
20
1.655230
70
0
0
VERTEX
8
Layer 1
10
7.381337
20
1.743601
70
0
0
VERTEX
8
Layer 1
10
7.436634
20
1.743601
70
0
0
SEQEND
8
Layer 1
0
POLYLINE
8
Layer 1
62
7
70
0
10
0.000000
20
0.000000
66
1
0
VERTEX
8
Layer 1
10
7.436634
20
1.570034
70
0
0
VERTEX
8
Layer 1
10
6.753746
20
0.552713
70
0
0
VERTEX
8
Layer 1
10
6.698448
20
0.552713
70
0
0
VERTEX
8
Layer 1
10
6.698448
20
1.570034
70
0
0
VERTEX
8
Layer 1
10
7.436634
20
1.570034
70
0
0
SEQEND
8
Layer 1
0
POLYLINE
8
Layer 1
62
7
70
0
10
0.000000
20
0.000000
66
1
0
VERTEX
8
Layer 1
10
7.722384
20
1.570034
70
0
0
VERTEX
8
Layer 1
10
7.039495
20
0.958848
70
0
0
VERTEX
8
Layer 1
10
6.947420
20
0.958848
70
0
0
VERTEX
8
Layer 1
10
6.947420
20
1.218139
70
0
0
VERTEX
8
Layer 1
10
6.954829
20
1.175806
70
0
0
VERTEX
8
Layer 1
10
6.992135
20
1.158608
70
0
0
VERTEX
8
Layer 1
10
7.039495
20
1.161254
70
0
0
VERTEX
8
Layer 1
10
7.039495
20
1.114687
70
0
0
VERTEX
8
Layer 1
10
7.014889
20
1.113893
70
0
0
VERTEX
8
Layer 1
10
6.990283
20
1.113100
70
0
0
VERTEX
8
Layer 1
10
6.913025
20
1.134531
70
0
0
VERTEX
8
Layer 1
10
6.891858
20
1.213906
70
0
0
VERTEX
8
Layer 1
10
6.891858
20
1.523468
70
0
0
VERTEX
8
Layer 1
10
6.813012
20
1.523468
70
0
0
VERTEX
8
Layer 1
10
6.813012
20
1.570034
70
0
0
VERTEX
8
Layer 1
10
6.891858
20
1.570034
70
0
0
VERTEX
8
Layer 1
10
6.891858
20
1.706030
70
0
0
VERTEX
8
Layer 1
10
6.947156
20
1.706030
70
0
0
VERTEX
8
Layer 1
10
6.947156
20
1.570034
70
0
0
VERTEX
8
Layer 1
10
7.722384
20
1.570034
70
0
0
SEQEND
8
Layer 1
0
POLYLINE
8
Layer 1
62
7
70
0
10
0.000000
20
0.000000
66
1
0
VERTEX
8
Layer 1
10
7.810226
20
1.570034
70
0
0
VERTEX
8
Layer 1
10
7.959450
20
1.184008
70
0
0
VERTEX
8
Layer 1
10
8.098621
20
1.570034
70
0
0
VERTEX
8
Layer 1
10
8.153919
20
1.570034
70
0
0
VERTEX
8
Layer 1
10
7.957598
20
1.049070
70
0
0
VERTEX
8
Layer 1
10
7.934844
20
1.001446
70
0
0
VERTEX
8
Layer 1
10
7.911561
20
0.971548
70
0
0
VERTEX
8
Layer 1
10
7.881663
20
0.955673
70
0
0
VERTEX
8
Layer 1
10
7.838271
20
0.950910
70
0
0
VERTEX
8
Layer 1
10
7.812342
20
0.952233
70
0
0
VERTEX
8
Layer 1
10
7.796203
20
0.955408
70
0
0
VERTEX
8
Layer 1
10
7.796203
20
1.001975
70
0
0
VERTEX
8
Layer 1
10
7.814988
20
0.998800
70
0
0
VERTEX
8
Layer 1
10
7.833773
20
0.997477
70
0
0
VERTEX
8
Layer 1
10
7.864201
20
1.002768
70
0
0
VERTEX
8
Layer 1
10
7.884838
20
1.017321
70
0
0
VERTEX
8
Layer 1
10
7.899655
20
1.039545
70
0
0
VERTEX
8
Layer 1
10
7.912619
20
1.068385
70
0
0
VERTEX
8
Layer 1
10
7.931934
20
1.119185
70
0
0
VERTEX
8
Layer 1
10
7.751488
20
1.570034
70
0
0
VERTEX
8
Layer 1
10
7.810226
20
1.570034
70
0
0
SEQEND
8
Layer 1
0
POLYLINE
8
Layer 1
62
7
70
0
10
0.000000
20
0.000000
66
1
0
VERTEX
8
Layer 1
10
8.734943
20
1.563949
70
0
0
VERTEX
8
Layer 1
10
8.802147
20
1.512355
70
0
0
VERTEX
8
Layer 1
10
8.843158
20
1.436420
70
0
0
VERTEX
8
Layer 1
10
8.857445
20
1.343816
70
0
0
VERTEX
8
Layer 1
10
8.843158
20
1.251212
70
0
0
VERTEX
8
Layer 1
10
8.802147
20
1.175277
70
0
0
VERTEX
8
Layer 1
10
8.734943
20
1.123947
70
0
0
VERTEX
8
Layer 1
10
8.643133
20
1.105162
70
0
0
VERTEX
8
Layer 1
10
8.551587
20
1.123947
70
0
0
VERTEX
8
Layer 1
10
8.484648
20
1.175277
70
0
0
VERTEX
8
Layer 1
10
8.443373
20
1.251212
70
0
0
VERTEX
8
Layer 1
10
8.429350
20
1.343816
70
0
0
VERTEX
8
Layer 1
10
8.443373
20
1.436420
70
0
0
VERTEX
8
Layer 1
10
8.484648
20
1.512355
70
0
0
VERTEX
8
Layer 1
10
8.551587
20
1.563949
70
0
0
VERTEX
8
Layer 1
10
8.643133
20
1.583264
70
0
0
VERTEX
8
Layer 1
10
8.734943
20
1.563949
70
0
0
SEQEND
8
Layer 1
0
POLYLINE
8
Layer 1
62
7
70
0
10
0.000000
20
0.000000
66
1
0
VERTEX
8
Layer 1
10
8.574077
20
1.520028
70
0
0
VERTEX
8
Layer 1
10
8.524600
20
1.476107
70
0
0
VERTEX
8
Layer 1
10
8.494702
20
1.414195
70
0
0
VERTEX
8
Layer 1
10
8.484648
20
1.343551
70
0
0
VERTEX
8
Layer 1
10
8.494702
20
1.272908
70
0
0
VERTEX
8
Layer 1
10
8.524600
20
1.211260
70
0
0
VERTEX
8
Layer 1
10
8.574077
20
1.167339
70
0
0
VERTEX
8
Layer 1
10
8.643397
20
1.150670
70
0
0
VERTEX
8
Layer 1
10
8.712718
20
1.167339
70
0
0
VERTEX
8
Layer 1
10
8.762460
20
1.211260
70
0
0
VERTEX
8
Layer 1
10
8.792093
20
1.272908
70
0
0
VERTEX
8
Layer 1
10
8.802147
20
1.343551
70
0
0
VERTEX
8
Layer 1
10
8.792093
20
1.414195
70
0
0
VERTEX
8
Layer 1
10
8.762460
20
1.476107
70
0
0
VERTEX
8
Layer 1
10
8.712718
20
1.520028
70
0
0
VERTEX
8
Layer 1
10
8.643397
20
1.536697
70
0
0
VERTEX
8
Layer 1
10
8.574077
20
1.520028
70
0
0
SEQEND
8
Layer 1
0
POLYLINE
8
Layer 1
62
7
70
0
10
0.000000
20
0.000000
66
1
0
VERTEX
8
Layer 1
10
9.024926
20
1.523732
70
0
0
VERTEX
8
Layer 1
10
8.342037
20
0.552977
70
0
0
VERTEX
8
Layer 1
10
8.969628
20
0.552977
70
0
0
VERTEX
8
Layer 1
10
8.969628
20
1.523468
70
0
0
VERTEX
8
Layer 1
10
8.892370
20
1.523468
70
0
0
VERTEX
8
Layer 1
10
8.892370
20
1.570034
70
0
0
VERTEX
8
Layer 1
10
8.969628
20
1.570034
70
0
0
VERTEX
8
Layer 1
10
8.969628
20
1.611309
70
0
0
VERTEX
8
Layer 1
10
8.973862
20
1.664755
70
0
0
VERTEX
8
Layer 1
10
8.990530
20
1.706824
70
0
0
VERTEX
8
Layer 1
10
9.024397
20
1.734076
70
0
0
VERTEX
8
Layer 1
10
9.079166
20
1.743865
70
0
0
VERTEX
8
Layer 1
10
9.101920
20
1.743072
70
0
0
VERTEX
8
Layer 1
10
9.125732
20
1.740426
70
0
0
VERTEX
8
Layer 1
10
9.125732
20
1.693065
70
0
0
VERTEX
8
Layer 1
10
9.104566
20
1.696240
70
0
0
VERTEX
8
Layer 1
10
9.085251
20
1.697563
70
0
0
VERTEX
8
Layer 1
10
9.050326
20
1.690420
70
0
0
VERTEX
8
Layer 1
10
9.032334
20
1.671634
70
0
0
VERTEX
8
Layer 1
10
9.025720
20
1.644118
70
0
0
VERTEX
8
Layer 1
10
9.024926
20
1.609986
70
0
0
VERTEX
8
Layer 1
10
9.024926
20
1.570034
70
0
0
VERTEX
8
Layer 1
10
9.114355
20
1.570034
70
0
0
VERTEX
8
Layer 1
10
9.114355
20
1.523468
70
0
0
VERTEX
8
Layer 1
10
9.024926
20
1.523732
70
0
0
SEQEND
8
Layer 1
0
POLYLINE
8
Layer 1
62
7
70
0
10
0.000000
20
0.000000
66
1
0
VERTEX
8
Layer 1
10
9.853336
20
1.618982
70
0
0
VERTEX
8
Layer 1
10
9.809415
20
1.666872
70
0
0
VERTEX
8
Layer 1
10
9.752529
20
1.696240
70
0
0
VERTEX
8
Layer 1
10
9.687177
20
1.706295
70
0
0
VERTEX
8
Layer 1
10
9.580286
20
1.682747
70
0
0
VERTEX
8
Layer 1
10
9.506996
20
1.620041
70
0
0
VERTEX
8
Layer 1
10
9.464928
20
1.531934
70
0
0
VERTEX
8
Layer 1
10
9.451434
20
1.431128
70
0
0
VERTEX
8
Layer 1
10
9.464928
20
1.330851
70
0
0
VERTEX
8
Layer 1
10
9.506996
20
1.242216
70
0
0
VERTEX
8
Layer 1
10
9.580286
20
1.179510
70
0
0
VERTEX
8
Layer 1
10
9.687177
20
1.155697
70
0
0
VERTEX
8
Layer 1
10
9.766023
20
1.171572
70
0
0
VERTEX
8
Layer 1
10
9.826613
20
1.214435
70
0
0
VERTEX
8
Layer 1
10
9.867888
20
1.277935
70
0
0
VERTEX
8
Layer 1
10
9.887996
20
1.356516
70
0
0
VERTEX
8
Layer 1
10
8.974920
20
0.832112
70
0
0
VERTEX
8
Layer 1
10
8.947668
20
0.727867
70
0
0
VERTEX
8
Layer 1
10
8.893164
20
0.648756
70
0
0
VERTEX
8
Layer 1
10
8.814583
20
0.598750
70
0
0
VERTEX
8
Layer 1
10
8.714041
20
0.581288
70
0
0
VERTEX
8
Layer 1
10
8.584660
20
0.608011
70
0
0
VERTEX
8
Layer 1
10
8.492056
20
0.679448
70
0
0
VERTEX
8
Layer 1
10
8.436758
20
0.782900
70
0
0
VERTEX
8
Layer 1
10
8.418237
20
0.906460
70
0
0
VERTEX
8
Layer 1
10
8.436758
20
1.030020
70
0
0
VERTEX
8
Layer 1
10
8.492056
20
1.134002
70
0
0
VERTEX
8
Layer 1
10
8.584660
20
1.205968
70
0
0
VERTEX
8
Layer 1
10
9.686913
20
1.756830
70
0
0
VERTEX
8
Layer 1
10
9.774225
20
1.743601
70
0
0
VERTEX
8
Layer 1
10
9.851219
20
1.704707
70
0
0
VERTEX
8
Layer 1
10
9.909163
20
1.640943
70
0
0
VERTEX
8
Layer 1
10
9.938531
20
1.554159
70
0
0
VERTEX
8
Layer 1
10
9.878735
20
1.554159
70
0
0
VERTEX
8
Layer 1
10
9.852806
20
1.618718
70
0
0
SEQEND
8
Layer 1
0
POLYLINE
8
Layer 1
62
7
70
0
10
0.000000
20
0.000000
66
1
0
VERTEX
8
Layer 1
10
10.310535
20
1.563949
70
0
0
VERTEX
8
Layer 1
10
10.377739
20
1.512355
70
0
0
VERTEX
8
Layer 1
10
10.419014
20
1.436420
70
0
0
VERTEX
8
Layer 1
10
10.433037
20
1.343816
70
0
0
VERTEX
8
Layer 1
10
10.419014
20
1.251212
70
0
0
VERTEX
8
Layer 1
10
10.377739
20
1.175277
70
0
0
VERTEX
8
Layer 1
10
10.310535
20
1.123947
70
0
0
VERTEX
8
Layer 1
10
10.218989
20
1.105162
70
0
0
VERTEX
8
Layer 1
10
10.127443
20
1.123947
70
0
0
VERTEX
8
Layer 1
10
10.060239
20
1.175277
70
0
0
VERTEX
8
Layer 1
10
10.018964
20
1.251212
70
0
0
VERTEX
8
Layer 1
10
10.005206
20
1.343816
70
0
0
VERTEX
8
Layer 1
10
10.018964
20
1.436420
70
0
0
VERTEX
8
Layer 1
10
10.060239
20
1.512355
70
0
0
VERTEX
8
Layer 1
10
10.127443
20
1.563949
70
0
0
VERTEX
8
Layer 1
10
10.218989
20
1.583264
70
0
0
VERTEX
8
Layer 1
10
10.310535
20
1.563949
70
0
0
SEQEND
8
Layer 1
0
POLYLINE
8
Layer 1
62
7
70
0
10
0.000000
20
0.000000
66
1
0
VERTEX
8
Layer 1
10
10.149668
20
1.520028
70
0
0
VERTEX
8
Layer 1
10
10.099927
20
1.476107
70
0
0
VERTEX
8
Layer 1
10
10.070294
20
1.414195
70
0
0
VERTEX
8
Layer 1
10
10.060239
20
1.343551
70
0
0
VERTEX
8
Layer 1
10
10.070294
20
1.272908
70
0
0
VERTEX
8
Layer 1
10
10.099927
20
1.211260
70
0
0
VERTEX
8
Layer 1
10
10.149668
20
1.167339
70
0
0
VERTEX
8
Layer 1
10
10.218725
20
1.150670
70
0
0
VERTEX
8
Layer 1
10
10.288045
20
1.167339
70
0
0
VERTEX
8
Layer 1
10
10.337522
20
1.211260
70
0
0
VERTEX
8
Layer 1
10
10.367420
20
1.272908
70
0
0
VERTEX
8
Layer 1
10
10.367420
20
1.414195
70
0
0
VERTEX
8
Layer 1
10
10.337522
20
1.476107
70
0
0
VERTEX
8
Layer 1
10
10.288045
20
1.520028
70
0
0
VERTEX
8
Layer 1
10
10.218725
20
1.536697
70
0
0
VERTEX
8
Layer 1
10
10.149668
20
1.520028
70
0
0
SEQEND
8
Layer 1
0
POLYLINE
8
Layer 1
62
7
70
0
10
0.000000
20
0.000000
66
1
0
VERTEX
8
Layer 1
10
10.571943
20
1.743601
70
0
0
VERTEX
8
Layer 1
10
10.571943
20
1.117333
70
0
0
VERTEX
8
Layer 1
10
10.516645
20
1.117333
70
0
0
VERTEX
8
Layer 1
10
10.516645
20
1.743601
70
0
0
VERTEX
8
Layer 1
10
10.571943
20
1.743601
70
0
0
SEQEND
8
Layer 1
0
POLYLINE
8
Layer 1
62
7
70
0
10
0.000000
20
0.000000
66
1
0
VERTEX
8
Layer 1
10
10.960880
20
1.563684
70
0
0
VERTEX
8
Layer 1
10
11.028084
20
1.512091
70
0
0
VERTEX
8
Layer 1
10
11.069359
20
1.436155
70
0
0
VERTEX
8
Layer 1
10
11.083382
20
1.343551
70
0
0
VERTEX
8
Layer 1
10
11.069359
20
1.250947
70
0
0
VERTEX
8
Layer 1
10
11.028084
20
1.175012
70
0
0
VERTEX
8
Layer 1
10
10.960880
20
1.123683
70
0
0
VERTEX
8
Layer 1
10
10.869334
20
1.104897
70
0
0
VERTEX
8
Layer 1
10
10.777789
20
1.123683
70
0
0
VERTEX
8
Layer 1
10
10.710584
20
1.175012
70
0
0
VERTEX
8
Layer 1
10
10.669309
20
1.250947
70
0
0
VERTEX
8
Layer 1
10
10.655287
20
1.343551
70
0
0
VERTEX
8
Layer 1
10
10.669309
20
1.436155
70
0
0
VERTEX
8
Layer 1
10
10.710584
20
1.512091
70
0
0
VERTEX
8
Layer 1
10
10.777789
20
1.563684
70
0
0
VERTEX
8
Layer 1
10
10.869334
20
1.582999
70
0
0
VERTEX
8
Layer 1
10
10.960880
20
1.563684
70
0
0
SEQEND
8
Layer 1
0
POLYLINE
8
Layer 1
62
7
70
0
10
0.000000
20
0.000000
66
1
0
VERTEX
8
Layer 1
10
10.800013
20
1.519764
70
0
0
VERTEX
8
Layer 1
10
10.750272
20
1.475843
70
0
0
VERTEX
8
Layer 1
10
10.720374
20
1.413930
70
0
0
VERTEX
8
Layer 1
10
10.710320
20
1.343287
70
0
0
VERTEX
8
Layer 1
10
10.720374
20
1.272643
70
0
0
VERTEX
8
Layer 1
10
10.750272
20
1.210995
70
0
0
VERTEX
8
Layer 1
10
10.800013
20
1.167074
70
0
0
VERTEX
8
Layer 1
10
10.869334
20
1.150406
70
0
0
VERTEX
8
Layer 1
10
10.938655
20
1.167074
70
0
0
VERTEX
8
Layer 1
10
10.988132
20
1.210995
70
0
0
VERTEX
8
Layer 1
10
11.018030
20
1.272643
70
0
0
VERTEX
8
Layer 1
10
11.018030
20
1.413930
70
0
0
VERTEX
8
Layer 1
10
10.988132
20
1.475843
70
0
0
VERTEX
8
Layer 1
10
10.938655
20
1.519764
70
0
0
VERTEX
8
Layer 1
10
10.869334
20
1.536432
70
0
0
VERTEX
8
Layer 1
10
10.800013
20
1.519764
70
0
0
SEQEND
8
Layer 1
0
POLYLINE
8
Layer 1
62
7
70
0
10
0.000000
20
0.000000
66
1
0
VERTEX
8
Layer 1
10
11.216732
20
1.570034
70
0
0
VERTEX
8
Layer 1
10
11.216732
20
1.463937
70
0
0
VERTEX
8
Layer 1
10
11.218319
20
1.463937
70
0
0
VERTEX
8
Layer 1
10
11.283671
20
1.549132
70
0
0
VERTEX
8
Layer 1
10
11.389240
20
1.576384
70
0
0
VERTEX
8
Layer 1
10
11.389240
20
1.520822
70
0
0
VERTEX
8
Layer 1
10
11.320977
20
1.510768
70
0
0
VERTEX
8
Layer 1
10
11.268061
20
1.476901
70
0
0
VERTEX
8
Layer 1
10
11.233400
20
1.424778
70
0
0
VERTEX
8
Layer 1
10
11.221230
20
1.358633
70
0
0
VERTEX
8
Layer 1
10
11.221230
20
1.117333
70
0
0
VERTEX
8
Layer 1
10
11.165932
20
1.117333
70
0
0
VERTEX
8
Layer 1
10
11.165932
20
1.570034
70
0
0
VERTEX
8
Layer 1
10
11.216732
20
1.570034
70
0
0
SEQEND
8
Layer 1
0
POLYLINE
8
Layer 1
62
7
70
0
10
0.000000
20
0.000000
66
1
0
VERTEX
8
Layer 1
10
11.453533
20
1.499920
70
0
0
VERTEX
8
Layer 1
10
11.491633
20
1.547280
70
0
0
VERTEX
8
Layer 1
10
11.548254
20
1.574532
70
0
0
VERTEX
8
Layer 1
10
11.620221
20
1.583264
70
0
0
VERTEX
8
Layer 1
10
11.680017
20
1.577443
70
0
0
VERTEX
8
Layer 1
10
11.733462
20
1.556012
70
0
0
VERTEX
8
Layer 1
10
11.772091
20
1.511562
70
0
0
VERTEX
8
Layer 1
10
11.786908
20
1.437478
70
0
0
VERTEX
8
Layer 1
10
9.839577
20
0.541865
70
0
0
VERTEX
8
Layer 1
10
9.872121
20
0.508527
70
0
0
VERTEX
8
Layer 1
10
9.889583
20
0.511967
70
0
0
VERTEX
8
Layer 1
10
9.889583
20
0.465400
70
0
0
VERTEX
8
Layer 1
10
9.872650
20
0.462755
70
0
0
VERTEX
8
Layer 1
10
9.853865
20
0.461961
70
0
0
VERTEX
8
Layer 1
10
9.819998
20
0.467782
70
0
0
VERTEX
8
Layer 1
10
9.800154
20
0.483921
70
0
0
VERTEX
8
Layer 1
10
9.790894
20
0.509057
70
0
0
VERTEX
8
Layer 1
10
9.788777
20
0.541071
70
0
0
VERTEX
8
Layer 1
10
9.786925
20
0.541071
70
0
0
VERTEX
8
Layer 1
10
9.756763
20
0.501913
70
0
0
VERTEX
8
Layer 1
10
9.722632
20
0.473338
70
0
0
VERTEX
8
Layer 1
10
9.679769
20
0.455875
70
0
0
VERTEX
8
Layer 1
10
9.622355
20
0.449790
70
0
0
VERTEX
8
Layer 1
10
9.563088
20
0.457198
70
0
0
VERTEX
8
Layer 1
10
9.514669
20
0.480746
70
0
0
VERTEX
8
Layer 1
10
9.482126
20
0.522021
70
0
0
VERTEX
8
Layer 1
10
9.470219
20
0.581288
70
0
0
VERTEX
8
Layer 1
10
9.491386
20
0.655371
70
0
0
VERTEX
8
Layer 1
10
9.547213
20
0.696117
70
0
0
VERTEX
8
Layer 1
10
9.625265
20
0.715696
70
0
0
VERTEX
8
Layer 1
10
9.713371
20
0.726808
70
0
0
VERTEX
8
Layer 1
10
9.744063
20
0.731306
70
0
0
VERTEX
8
Layer 1
10
9.766023
20
0.740302
70
0
0
VERTEX
8
Layer 1
10
9.779781
20
0.758294
70
0
0
VERTEX
8
Layer 1
10
9.784544
20
0.788192
70
0
0
VERTEX
8
Layer 1
10
9.775284
20
0.834229
70
0
0
VERTEX
8
Layer 1
10
9.749884
20
0.862804
70
0
0
VERTEX
8
Layer 1
10
9.712313
20
0.877356
70
0
0
VERTEX
8
Layer 1
10
9.666275
20
0.881325
70
0
0
VERTEX
8
Layer 1
10
9.580286
20
0.856189
70
0
0
VERTEX
8
Layer 1
10
9.545096
20
0.776021
70
0
0
VERTEX
8
Layer 1
10
9.489798
20
0.776021
70
0
0
VERTEX
8
Layer 1
10
9.506467
20
0.844548
70
0
0
SEQEND
8
Layer 1
0
POLYLINE
8
Layer 1
62
7
70
0
10
0.000000
20
0.000000
66
1
0
VERTEX
8
Layer 1
10
9.782692
20
0.709346
70
0
0
VERTEX
8
Layer 1
10
9.762319
20
0.695323
70
0
0
VERTEX
8
Layer 1
10
9.736125
20
0.689238
70
0
0
VERTEX
8
Layer 1
10
9.663629
20
0.678390
70
0
0
VERTEX
8
Layer 1
10
9.595632
20
0.663838
70
0
0
VERTEX
8
Layer 1
10
9.545096
20
0.636321
70
0
0
VERTEX
8
Layer 1
10
9.525517
20
0.584992
70
0
0
VERTEX
8
Layer 1
10
9.533984
20
0.547686
70
0
0
VERTEX
8
Layer 1
10
9.556473
20
0.519640
70
0
0
VERTEX
8
Layer 1
10
9.589017
20
0.501648
70
0
0
VERTEX
8
Layer 1
10
9.626588
20
0.495563
70
0
0
VERTEX
8
Layer 1
10
9.687177
20
0.505088
70
0
0
VERTEX
8
Layer 1
10
9.737713
20
0.533134
70
0
0
VERTEX
8
Layer 1
10
9.772109
20
0.577848
70
0
0
VERTEX
8
Layer 1
10
9.784809
20
0.637379
70
0
0
VERTEX
8
Layer 1
10
9.784809
20
0.709346
70
0
0
VERTEX
8
Layer 1
10
9.782692
20
0.709346
70
0
0
SEQEND
8
Layer 1
0
POLYLINE
8
Layer 1
62
7
70
0
10
0.000000
20
0.000000
66
1
0
VERTEX
8
Layer 1
10
10.297570
20
0.461961
70
0
0
VERTEX
8
Layer 1
10
10.021081
20
0.683152
70
0
0
VERTEX
8
Layer 1
10
10.019229
20
0.683152
70
0
0
VERTEX
8
Layer 1
10
9.993300
20
0.642936
70
0
0
VERTEX
8
Layer 1
10
9.954142
20
0.611715
70
0
0
VERTEX
8
Layer 1
10
9.907310
20
0.591871
70
0
0
VERTEX
8
Layer 1
10
9.857833
20
0.584992
70
0
0
VERTEX
8
Layer 1
10
9.767875
20
0.603777
70
0
0
VERTEX
8
Layer 1
10
9.704375
20
0.655371
70
0
0
VERTEX
8
Layer 1
10
9.666540
20
0.731571
70
0
0
VERTEX
8
Layer 1
10
9.654369
20
0.823117
70
0
0
VERTEX
8
Layer 1
10
9.666540
20
0.914662
70
0
0
VERTEX
8
Layer 1
10
9.704375
20
0.991127
70
0
0
VERTEX
8
Layer 1
10
9.767875
20
1.043250
70
0
0
VERTEX
8
Layer 1
10
9.857833
20
1.062564
70
0
0
VERTEX
8
Layer 1
10
9.907310
20
1.056479
70
0
0
VERTEX
8
Layer 1
10
9.952554
20
1.037693
70
0
0
VERTEX
8
Layer 1
10
9.989860
20
1.006473
70
0
0
VERTEX
8
Layer 1
10
10.014731
20
0.963610
70
0
0
VERTEX
8
Layer 1
10
10.016583
20
0.963610
70
0
0
VERTEX
8
Layer 1
10
10.016583
20
1.743601
70
0
0
VERTEX
8
Layer 1
10
10.071881
20
1.743601
70
0
0
VERTEX
8
Layer 1
10
10.071881
20
1.117333
70
0
0
VERTEX
8
Layer 1
10
10.297570
20
0.461961
70
0
0
SEQEND
8
Layer 1
0
POLYLINE
8
Layer 1
62
7
70
0
10
0.000000
20
0.000000
66
1
0
VERTEX
8
Layer 1
10
9.994623
20
0.618594
70
0
0
VERTEX
8
Layer 1
10
10.021081
20
0.556682
70
0
0
VERTEX
8
Layer 1
10
10.067119
20
0.512232
70
0
0
VERTEX
8
Layer 1
10
10.134587
20
0.495298
70
0
0
VERTEX
8
Layer 1
10
10.208670
20
0.512232
70
0
0
VERTEX
8
Layer 1
10
10.257883
20
0.556682
70
0
0
VERTEX
8
Layer 1
10
10.285135
20
0.618594
70
0
0
VERTEX
8
Layer 1
10
10.293602
20
0.688179
70
0
0
VERTEX
8
Layer 1
10
10.285135
20
0.758029
70
0
0
VERTEX
8
Layer 1
10
10.257883
20
0.819942
70
0
0
VERTEX
8
Layer 1
10
10.208670
20
0.864392
70
0
0
VERTEX
8
Layer 1
10
10.134587
20
0.881589
70
0
0
VERTEX
8
Layer 1
10
10.067119
20
0.864392
70
0
0
VERTEX
8
Layer 1
10
10.021081
20
0.819942
70
0
0
VERTEX
8
Layer 1
10
9.994623
20
0.758029
70
0
0
VERTEX
8
Layer 1
10
9.986421
20
0.688179
70
0
0
VERTEX
8
Layer 1
10
9.994623
20
0.618594
70
0
0
SEQEND
8
Layer 1
0
POLYLINE
8
Layer 1
62
7
70
0
10
0.000000
20
0.000000
66
1
0
VERTEX
8
Layer 1
10
10.736514
20
0.908312
70
0
0
VERTEX
8
Layer 1
10
10.803718
20
0.856719
70
0
0
VERTEX
8
Layer 1
10
10.844993
20
0.780783
70
0
0
VERTEX
8
Layer 1
10
10.858751
20
0.688179
70
0
0
VERTEX
8
Layer 1
10
10.844993
20
0.595575
70
0
0
VERTEX
8
Layer 1
10
10.803718
20
0.519640
70
0
0
VERTEX
8
Layer 1
10
10.736514
20
0.468311
70
0
0
VERTEX
8
Layer 1
10
10.644968
20
0.449525
70
0
0
VERTEX
8
Layer 1
10
10.553422
20
0.468311
70
0
0
VERTEX
8
Layer 1
10
10.486218
20
0.519640
70
0
0
VERTEX
8
Layer 1
10
10.444943
20
0.595575
70
0
0
VERTEX
8
Layer 1
10
10.430920
20
0.688179
70
0
0
VERTEX
8
Layer 1
10
10.444943
20
0.780783
70
0
0
VERTEX
8
Layer 1
10
10.486218
20
0.856719
70
0
0
VERTEX
8
Layer 1
10
10.553422
20
0.908312
70
0
0
VERTEX
8
Layer 1
10
10.644968
20
0.927627
70
0
0
VERTEX
8
Layer 1
10
10.736514
20
0.908312
70
0
0
SEQEND
8
Layer 1
0
POLYLINE
8
Layer 1
62
7
70
0
10
0.000000
20
0.000000
66
1
0
VERTEX
8
Layer 1
10
10.575647
20
0.864392
70
0
0
VERTEX
8
Layer 1
10
10.526170
20
0.820471
70
0
0
VERTEX
8
Layer 1
10
10.496272
20
0.758558
70
0
0
VERTEX
8
Layer 1
10
10.486218
20
0.687915
70
0
0
VERTEX
8
Layer 1
10
10.496272
20
0.617271
70
0
0
VERTEX
8
Layer 1
10
10.526170
20
0.555623
70
0
0
VERTEX
8
Layer 1
10
10.575647
20
0.511702
70
0
0
VERTEX
8
Layer 1
10
10.644968
20
0.495034
70
0
0
VERTEX
8
Layer 1
10
10.714289
20
0.511702
70
0
0
VERTEX
8
Layer 1
10
10.764030
20
0.555623
70
0
0
VERTEX
8
Layer 1
10
10.793928
20
0.617271
70
0
0
VERTEX
8
Layer 1
10
10.803982
20
0.687915
70
0
0
VERTEX
8
Layer 1
10
10.793928
20
0.758558
70
0
0
VERTEX
8
Layer 1
10
10.764030
20
0.820471
70
0
0
VERTEX
8
Layer 1
10
10.714289
20
0.864392
70
0
0
VERTEX
8
Layer 1
10
10.644968
20
0.881060
70
0
0
VERTEX
8
Layer 1
10
10.575647
20
0.864392
70
0
0
SEQEND
8
Layer 1
0
POLYLINE
8
Layer 1
62
7
70
0
10
0.000000
20
0.000000
66
1
0
VERTEX
8
Layer 1
10
5.029458
20
0.681036
70
0
0
VERTEX
8
Layer 1
10
4.985537
20
0.728925
70
0
0
VERTEX
8
Layer 1
10
4.928652
20
0.758294
70
0
0
VERTEX
8
Layer 1
10
4.863300
20
0.768348
70
0
0
VERTEX
8
Layer 1
10
4.756409
20
0.744800
70
0
0
VERTEX
8
Layer 1
10
4.683119
20
0.682094
70
0
0
VERTEX
8
Layer 1
10
4.641050
20
0.593988
70
0
0
VERTEX
8
Layer 1
10
4.627557
20
0.493182
70
0
0
VERTEX
8
Layer 1
10
4.641050
20
0.392640
70
0
0
VERTEX
8
Layer 1
10
4.683119
20
0.304005
70
0
0
VERTEX
8
Layer 1
10
4.756409
20
0.241299
70
0
0
VERTEX
8
Layer 1
10
4.863300
20
0.217486
70
0
0
VERTEX
8
Layer 1
10
4.942146
20
0.233361
70
0
0
VERTEX
8
Layer 1
10
5.002735
20
0.276224
70
0
0
VERTEX
8
Layer 1
10
5.044010
20
0.339988
70
0
0
VERTEX
8
Layer 1
10
5.064119
20
0.418305
70
0
0
VERTEX
8
Layer 1
10
5.123650
20
0.418305
70
0
0
VERTEX
8
Layer 1
10
5.096398
20
0.314059
70
0
0
VERTEX
8
Layer 1
10
5.041894
20
0.235213
70
0
0
VERTEX
8
Layer 1
10
4.963312
20
0.185207
70
0
0
VERTEX
8
Layer 1
10
4.862771
20
0.167745
70
0
0
VERTEX
8
Layer 1
10
4.733390
20
0.194467
70
0
0
VERTEX
8
Layer 1
10
4.640786
20
0.265905
70
0
0
VERTEX
8
Layer 1
10
4.585488
20
0.369357
70
0
0
VERTEX
8
Layer 1
10
4.566967
20
0.492917
70
0
0
VERTEX
8
Layer 1
10
4.585488
20
0.616477
70
0
0
VERTEX
8
Layer 1
10
4.640786
20
0.720458
70
0
0
VERTEX
8
Layer 1
10
4.733390
20
0.792425
70
0
0
VERTEX
8
Layer 1
10
4.862771
20
0.819148
70
0
0
VERTEX
8
Layer 1
10
4.950083
20
0.805919
70
0
0
VERTEX
8
Layer 1
10
5.027342
20
0.766760
70
0
0
VERTEX
8
Layer 1
10
5.085285
20
0.702996
70
0
0
VERTEX
8
Layer 1
10
5.114654
20
0.616213
70
0
0
VERTEX
8
Layer 1
10
5.055123
20
0.616213
70
0
0
VERTEX
8
Layer 1
10
5.029194
20
0.680506
70
0
0
SEQEND
8
Layer 1
0
POLYLINE
8
Layer 1
62
7
70
0
10
0.000000
20
0.000000
66
1
0
VERTEX
8
Layer 1
10
5.486922
20
0.625738
70
0
0
VERTEX
8
Layer 1
10
5.554126
20
0.573879
70
0
0
VERTEX
8
Layer 1
10
5.595401
20
0.497944
70
0
0
VERTEX
8
Layer 1
10
5.609424
20
0.405340
70
0
0
VERTEX
8
Layer 1
10
5.595401
20
0.312736
70
0
0
VERTEX
8
Layer 1
10
5.554126
20
0.236801
70
0
0
VERTEX
8
Layer 1
10
5.486922
20
0.185472
70
0
0
VERTEX
8
Layer 1
10
5.395377
20
0.166686
70
0
0
VERTEX
8
Layer 1
10
5.303831
20
0.185472
70
0
0
VERTEX
8
Layer 1
10
5.236627
20
0.236801
70
0
0
VERTEX
8
Layer 1
10
5.195352
20
0.312736
70
0
0
VERTEX
8
Layer 1
10
5.181329
20
0.405340
70
0
0
VERTEX
8
Layer 1
10
5.195352
20
0.497944
70
0
0
VERTEX
8
Layer 1
10
5.236627
20
0.573879
70
0
0
VERTEX
8
Layer 1
10
5.303831
20
0.625738
70
0
0
VERTEX
8
Layer 1
10
5.395377
20
0.645052
70
0
0
VERTEX
8
Layer 1
10
5.486922
20
0.625738
70
0
0
SEQEND
8
Layer 1
0
POLYLINE
8
Layer 1
62
7
70
0
10
0.000000
20
0.000000
66
1
0
VERTEX
8
Layer 1
10
5.326056
20
0.581817
70
0
0
VERTEX
8
Layer 1
10
5.276579
20
0.538161
70
0
0
VERTEX
8
Layer 1
10
5.246681
20
0.476248
70
0
0
VERTEX
8
Layer 1
10
5.236627
20
0.405605
70
0
0
VERTEX
8
Layer 1
10
5.246681
20
0.334961
70
0
0
VERTEX
8
Layer 1
10
5.276579
20
0.273313
70
0
0
VERTEX
8
Layer 1
10
5.326056
20
0.229392
70
0
0
VERTEX
8
Layer 1
10
5.395377
20
0.212724
70
0
0
VERTEX
8
Layer 1
10
5.464697
20
0.229392
70
0
0
VERTEX
8
Layer 1
10
5.514174
20
0.273313
70
0
0
VERTEX
8
Layer 1
10
5.544072
20
0.334961
70
0
0
VERTEX
8
Layer 1
10
5.544072
20
0.476248
70
0
0
VERTEX
8
Layer 1
10
5.514174
20
0.538161
70
0
0
VERTEX
8
Layer 1
10
5.464697
20
0.581817
70
0
0
VERTEX
8
Layer 1
10
5.395377
20
0.598486
70
0
0
VERTEX
8
Layer 1
10
5.326056
20
0.581817
70
0
0
SEQEND
8
Layer 1
0
POLYLINE
8
Layer 1
62
7
70
0
10
0.000000
20
0.000000
66
1
0
VERTEX
8
Layer 1
10
5.748066
20
0.805654
70
0
0
VERTEX
8
Layer 1
10
5.748066
20
0.179386
70
0
0
VERTEX
8
Layer 1
10
5.692768
20
0.179386
70
0
0
VERTEX
8
Layer 1
10
5.692768
20
0.806183
70
0
0
VERTEX
8
Layer 1
10
5.748066
20
0.805654
70
0
0
SEQEND
8
Layer 1
0
POLYLINE
8
Layer 1
62
7
70
0
10
0.000000
20
0.000000
66
1
0
VERTEX
8
Layer 1
10
6.137003
20
0.625738
70
0
0
VERTEX
8
Layer 1
10
6.204207
20
0.573879
70
0
0
VERTEX
8
Layer 1
10
6.245482
20
0.497944
70
0
0
VERTEX
8
Layer 1
10
6.259505
20
0.405340
70
0
0
VERTEX
8
Layer 1
10
6.245482
20
0.312736
70
0
0
VERTEX
8
Layer 1
10
6.204207
20
0.236801
70
0
0
VERTEX
8
Layer 1
10
6.137003
20
0.185472
70
0
0
VERTEX
8
Layer 1
10
6.045457
20
0.166686
70
0
0
VERTEX
8
Layer 1
10
5.953911
20
0.185472
70
0
0
VERTEX
8
Layer 1
10
5.886707
20
0.236801
70
0
0
VERTEX
8
Layer 1
10
5.845432
20
0.312736
70
0
0
VERTEX
8
Layer 1
10
5.831674
20
0.405340
70
0
0
VERTEX
8
Layer 1
10
5.845432
20
0.497944
70
0
0
VERTEX
8
Layer 1
10
5.886707
20
0.573879
70
0
0
VERTEX
8
Layer 1
10
5.953911
20
0.625738
70
0
0
VERTEX
8
Layer 1
10
6.045457
20
0.645052
70
0
0
VERTEX
8
Layer 1
10
6.137003
20
0.625738
70
0
0
SEQEND
8
Layer 1
0
POLYLINE
8
Layer 1
62
7
70
0
10
0.000000
20
0.000000
66
1
0
VERTEX
8
Layer 1
10
5.976136
20
0.581817
70
0
0
VERTEX
8
Layer 1
10
5.926659
20
0.538161
70
0
0
VERTEX
8
Layer 1
10
5.897026
20
0.476248
70
0
0
VERTEX
8
Layer 1
10
5.897026
20
0.334961
70
0
0
VERTEX
8
Layer 1
10
5.926659
20
0.273313
70
0
0
VERTEX
8
Layer 1
10
5.976136
20
0.229392
70
0
0
VERTEX
8
Layer 1
10
6.045457
20
0.212724
70
0
0
VERTEX
8
Layer 1
10
6.114778
20
0.229392
70
0
0
VERTEX
8
Layer 1
10
6.164255
20
0.273313
70
0
0
VERTEX
8
Layer 1
10
6.194153
20
0.334961
70
0
0
VERTEX
8
Layer 1
10
6.204207
20
0.405605
70
0
0
VERTEX
8
Layer 1
10
6.194153
20
0.476248
70
0
0
VERTEX
8
Layer 1
10
6.164255
20
0.538161
70
0
0
VERTEX
8
Layer 1
10
6.114778
20
0.581817
70
0
0
VERTEX
8
Layer 1
10
6.045457
20
0.598486
70
0
0
VERTEX
8
Layer 1
10
5.976136
20
0.581817
70
0
0
SEQEND
8
Layer 1
0
POLYLINE
8
Layer 1
62
7
70
0
10
0.000000
20
0.000000
66
1
0
VERTEX
8
Layer 1
10
6.392854
20
0.631823
70
0
0
VERTEX
8
Layer 1
10
10.362922
20
0.473867
70
0
0
VERTEX
8
Layer 1
10
10.364774
20
0.473867
70
0
0
VERTEX
8
Layer 1
10
10.430126
20
0.559063
70
0
0
VERTEX
8
Layer 1
10
10.535695
20
0.586315
70
0
0
VERTEX
8
Layer 1
10
10.535695
20
0.531017
70
0
0
VERTEX
8
Layer 1
10
10.467433
20
0.520963
70
0
0
VERTEX
8
Layer 1
10
10.414251
20
0.487096
70
0
0
VERTEX
8
Layer 1
10
10.379591
20
0.434709
70
0
0
VERTEX
8
Layer 1
10
10.367420
20
0.368563
70
0
0
VERTEX
8
Layer 1
10
10.367420
20
0.127263
70
0
0
VERTEX
8
Layer 1
10
10.312122
20
0.127263
70
0
0
VERTEX
8
Layer 1
10
10.312122
20
0.632352
70
0
0
VERTEX
8
Layer 1
10
6.392854
20
0.631823
70
0
0
SEQEND
8
Layer 1
0
POLYLINE
8
Layer 1
62
7
70
0
10
0.000000
20
0.000000
66
1
0
VERTEX
8
Layer 1
10
6.629656
20
0.561709
70
0
0
VERTEX
8
Layer 1
10
6.667756
20
0.609069
70
0
0
VERTEX
8
Layer 1
10
6.724377
20
0.636321
70
0
0
VERTEX
8
Layer 1
10
6.796079
20
0.645052
70
0
0
VERTEX
8
Layer 1
10
6.855875
20
0.639496
70
0
0
VERTEX
8
Layer 1
10
6.909320
20
0.618065
70
0
0
VERTEX
8
Layer 1
10
6.947950
20
0.573615
70
0
0
VERTEX
8
Layer 1
10
6.962766
20
0.499532
70
0
0
VERTEX
8
Layer 1
10
10.676982
20
0.201347
70
0
0
VERTEX
8
Layer 1
10
10.709526
20
0.168009
70
0
0
VERTEX
8
Layer 1
10
10.726989
20
0.171713
70
0
0
VERTEX
8
Layer 1
10
10.726989
20
0.125147
70
0
0
VERTEX
8
Layer 1
10
10.710055
20
0.122501
70
0
0
VERTEX
8
Layer 1
10
10.691270
20
0.121707
70
0
0
VERTEX
8
Layer 1
10
10.657403
20
0.127528
70
0
0
VERTEX
8
Layer 1
10
10.637560
20
0.143667
70
0
0
VERTEX
8
Layer 1
10
10.628299
20
0.168538
70
0
0
VERTEX
8
Layer 1
10
10.626182
20
0.200553
70
0
0
VERTEX
8
Layer 1
10
10.624595
20
0.200553
70
0
0
VERTEX
8
Layer 1
10
10.594168
20
0.161659
70
0
0
VERTEX
8
Layer 1
10
10.560037
20
0.133084
70
0
0
VERTEX
8
Layer 1
10
10.517174
20
0.115622
70
0
0
VERTEX
8
Layer 1
10
10.459760
20
0.109536
70
0
0
VERTEX
8
Layer 1
10
10.400493
20
0.116945
70
0
0
VERTEX
8
Layer 1
10
10.352339
20
0.140492
70
0
0
VERTEX
8
Layer 1
10
10.319795
20
0.181767
70
0
0
VERTEX
8
Layer 1
10
10.307889
20
0.240769
70
0
0
VERTEX
8
Layer 1
10
10.329056
20
0.314853
70
0
0
VERTEX
8
Layer 1
10
10.384883
20
0.355598
70
0
0
VERTEX
8
Layer 1
10
10.462935
20
0.375178
70
0
0
VERTEX
8
Layer 1
10
10.551041
20
0.386290
70
0
0
VERTEX
8
Layer 1
10
10.581733
20
0.390788
70
0
0
VERTEX
8
Layer 1
10
10.603693
20
0.399784
70
0
0
VERTEX
8
Layer 1
10
10.617187
20
0.417775
70
0
0
VERTEX
8
Layer 1
10
10.621949
20
0.447409
70
0
0
VERTEX
8
Layer 1
10
10.612689
20
0.493446
70
0
0
VERTEX
8
Layer 1
10
10.587289
20
0.522021
70
0
0
VERTEX
8
Layer 1
10
10.549453
20
0.536573
70
0
0
VERTEX
8
Layer 1
10
10.503416
20
0.540542
70
0
0
VERTEX
8
Layer 1
10
10.417426
20
0.515407
70
0
0
VERTEX
8
Layer 1
10
10.382502
20
0.435238
70
0
0
VERTEX
8
Layer 1
10
10.327204
20
0.435238
70
0
0
VERTEX
8
Layer 1
10
10.343872
20
0.503765
70
0
0
SEQEND
8
Layer 1
0
POLYLINE
8
Layer 1
62
7
70
0
10
0.000000
20
0.000000
66
1
0
VERTEX
8
Layer 1
10
10.620097
20
0.368563
70
0
0
VERTEX
8
Layer 1
10
10.599989
20
0.354540
70
0
0
VERTEX
8
Layer 1
10
10.573530
20
0.348455
70
0
0
VERTEX
8
Layer 1
10
10.501299
20
0.337342
70
0
0
VERTEX
8
Layer 1
10
10.433301
20
0.322790
70
0
0
VERTEX
8
Layer 1
10
10.382766
20
0.295274
70
0
0
VERTEX
8
Layer 1
10
10.363187
20
0.243944
70
0
0
VERTEX
8
Layer 1
10
10.371389
20
0.206638
70
0
0
VERTEX
8
Layer 1
10
10.393879
20
0.178592
70
0
0
VERTEX
8
Layer 1
10
10.426422
20
0.160601
70
0
0
VERTEX
8
Layer 1
10
10.463993
20
0.154515
70
0
0
VERTEX
8
Layer 1
10
10.524583
20
0.164305
70
0
0
VERTEX
8
Layer 1
10
10.575118
20
0.192351
70
0
0
VERTEX
8
Layer 1
10
10.609249
20
0.237065
70
0
0
VERTEX
8
Layer 1
10
10.621949
20
0.296596
70
0
0
VERTEX
8
Layer 1
10
10.621949
20
0.368563
70
0
0
VERTEX
8
Layer 1
10
10.620097
20
0.368563
70
0
0
SEQEND
8
Layer 1
0
POLYLINE
8
Layer 1
62
7
70
0
10
0.000000
20
0.000000
66
1
0
VERTEX
8
Layer 1
10
11.134976
20
0.121178
70
0
0
VERTEX
8
Layer 1
10
10.858751
20
0.342369
70
0
0
VERTEX
8
Layer 1
10
10.856899
20
0.342369
70
0
0
VERTEX
8
Layer 1
10
10.830970
20
0.302153
70
0
0
VERTEX
8
Layer 1
10
10.791811
20
0.270932
70
0
0
VERTEX
8
Layer 1
10
10.744980
20
0.251353
70
0
0
VERTEX
8
Layer 1
10
10.695239
20
0.244474
70
0
0
VERTEX
8
Layer 1
10
10.605280
20
0.263259
70
0
0
VERTEX
8
Layer 1
10
10.541780
20
0.314853
70
0
0
VERTEX
8
Layer 1
10
10.504210
20
0.391317
70
0
0
VERTEX
8
Layer 1
10
10.492039
20
0.482863
70
0
0
VERTEX
8
Layer 1
10
10.504210
20
0.574409
70
0
0
VERTEX
8
Layer 1
10
10.541780
20
0.650608
70
0
0
VERTEX
8
Layer 1
10
10.605280
20
0.702996
70
0
0
VERTEX
8
Layer 1
10
10.695239
20
0.722310
70
0
0
VERTEX
8
Layer 1
10
10.744980
20
0.716225
70
0
0
VERTEX
8
Layer 1
10
10.790224
20
0.697440
70
0
0
VERTEX
8
Layer 1
10
10.827530
20
0.666219
70
0
0
VERTEX
8
Layer 1
10
10.852665
20
0.623092
70
0
0
VERTEX
8
Layer 1
10
10.854253
20
0.623092
70
0
0
VERTEX
8
Layer 1
10
10.854253
20
0.806183
70
0
0
VERTEX
8
Layer 1
10
10.909551
20
0.806183
70
0
0
VERTEX
8
Layer 1
10
10.909551
20
0.179915
70
0
0
VERTEX
8
Layer 1
10
11.134976
20
0.121178
70
0
0
SEQEND
8
Layer 1
0
POLYLINE
8
Layer 1
62
7
70
0
10
0.000000
20
0.000000
66
1
0
VERTEX
8
Layer 1
10
10.831763
20
0.277811
70
0
0
VERTEX
8
Layer 1
10
10.857957
20
0.215899
70
0
0
VERTEX
8
Layer 1
10
9.097650
20
0.349468
70
0
0
VERTEX
8
Layer 1
10
8.951337
20
0.350038
70
0
0
VERTEX
8
Layer 1
10
8.877687
20
0.223612
70
0
0
VERTEX
8
Layer 1
10
8.945155
20
0.206414
70
0
0
VERTEX
8
Layer 1
10
9.019239
20
0.223612
70
0
0
VERTEX
8
Layer 1
10
9.068451
20
0.267798
70
0
0
VERTEX
8
Layer 1
10
9.095703
20
0.329710
70
0
0
VERTEX
8
Layer 1
10
9.104170
20
0.399560
70
0
0
VERTEX
8
Layer 1
10
9.095703
20
0.469145
70
0
0
VERTEX
8
Layer 1
10
9.068451
20
0.530793
70
0
0
VERTEX
8
Layer 1
10
9.019239
20
0.575243
70
0
0
VERTEX
8
Layer 1
10
8.945155
20
0.592176
70
0
0
VERTEX
8
Layer 1
10
8.877687
20
0.575243
70
0
0
VERTEX
8
Layer 1
10
8.831649
20
0.530793
70
0
0
VERTEX
8
Layer 1
10
8.805456
20
0.469145
70
0
0
VERTEX
8
Layer 1
10
8.805456
20
0.329710
70
0
0
SEQEND
8
Layer 1
0
POLYLINE
8
Layer 1
62
7
70
0
10
0.000000
20
0.000000
66
1
0
VERTEX
8
Layer 1
10
7.859703
20
0.626267
70
0
0
VERTEX
8
Layer 1
10
7.926907
20
0.574409
70
0
0
VERTEX
8
Layer 1
10
7.968182
20
0.498473
70
0
0
VERTEX
8
Layer 1
10
7.982205
20
0.405869
70
0
0
VERTEX
8
Layer 1
10
7.968182
20
0.313265
70
0
0
VERTEX
8
Layer 1
10
7.926907
20
0.237330
70
0
0
VERTEX
8
Layer 1
10
7.859703
20
0.186001
70
0
0
VERTEX
8
Layer 1
10
7.768157
20
0.167215
70
0
0
VERTEX
8
Layer 1
10
7.676347
20
0.186001
70
0
0
VERTEX
8
Layer 1
10
7.609142
20
0.237330
70
0
0
VERTEX
8
Layer 1
10
7.567868
20
0.313265
70
0
0
VERTEX
8
Layer 1
10
7.553845
20
0.405869
70
0
0
VERTEX
8
Layer 1
10
7.567868
20
0.498473
70
0
0
VERTEX
8
Layer 1
10
7.609142
20
0.574409
70
0
0
VERTEX
8
Layer 1
10
7.676347
20
0.626267
70
0
0
VERTEX
8
Layer 1
10
7.768157
20
0.645581
70
0
0
VERTEX
8
Layer 1
10
7.859703
20
0.626267
70
0
0
SEQEND
8
Layer 1
0
POLYLINE
8
Layer 1
62
7
70
0
10
0.000000
20
0.000000
66
1
0
VERTEX
8
Layer 1
10
7.698836
20
0.582346
70
0
0
VERTEX
8
Layer 1
10
7.649359
20
0.538690
70
0
0
VERTEX
8
Layer 1
10
7.619461
20
0.476777
70
0
0
VERTEX
8
Layer 1
10
7.609407
20
0.406134
70
0
0
VERTEX
8
Layer 1
10
7.619461
20
0.335490
70
0
0
VERTEX
8
Layer 1
10
7.649359
20
0.273842
70
0
0
VERTEX
8
Layer 1
10
7.698836
20
0.229922
70
0
0
VERTEX
8
Layer 1
10
7.768157
20
0.213253
70
0
0
VERTEX
8
Layer 1
10
7.837478
20
0.229922
70
0
0
VERTEX
8
Layer 1
10
7.886955
20
0.273842
70
0
0
VERTEX
8
Layer 1
10
7.916588
20
0.335490
70
0
0
VERTEX
8
Layer 1
10
7.926642
20
0.406134
70
0
0
VERTEX
8
Layer 1
10
7.916588
20
0.476777
70
0
0
VERTEX
8
Layer 1
10
7.886955
20
0.538690
70
0
0
VERTEX
8
Layer 1
10
7.837478
20
0.582346
70
0
0
VERTEX
8
Layer 1
10
7.768157
20
0.599015
70
0
0
VERTEX
8
Layer 1
10
7.698836
20
0.582346
70
0
0
SEQEND
8
Layer 1
0
POLYLINE
8
Layer 1
62
7
70
0
10
0.000000
20
0.000000
66
1
0
VERTEX
8
Layer 1
10
8.361881
20
0.305328
70
0
0
VERTEX
8
Layer 1
10
8.405273
20
0.253469
70
0
0
VERTEX
8
Layer 1
10
8.470625
20
0.225953
70
0
0
VERTEX
8
Layer 1
10
8.551323
20
0.217486
70
0
0
VERTEX
8
Layer 1
10
8.604768
20
0.224630
70
0
0
VERTEX
8
Layer 1
10
8.658743
20
0.246855
70
0
0
VERTEX
8
Layer 1
10
8.700283
20
0.286278
70
0
0
VERTEX
8
Layer 1
10
8.716952
20
0.344486
70
0
0
VERTEX
8
Layer 1
10
8.705045
20
0.389994
70
0
0
VERTEX
8
Layer 1
10
8.674354
20
0.422538
70
0
0
VERTEX
8
Layer 1
10
8.632550
20
0.443969
70
0
0
VERTEX
8
Layer 1
10
8.587835
20
0.457463
70
0
0
VERTEX
8
Layer 1
10
8.448400
20
0.491594
70
0
0
VERTEX
8
Layer 1
10
8.395219
20
0.509057
70
0
0
VERTEX
8
Layer 1
10
8.349975
20
0.537102
70
0
0
VERTEX
8
Layer 1
10
8.319019
20
0.579965
70
0
0
VERTEX
8
Layer 1
10
8.307112
20
0.642142
70
0
0
VERTEX
8
Layer 1
10
8.315844
20
0.695852
70
0
0
VERTEX
8
Layer 1
10
8.348652
20
0.753531
70
0
0
VERTEX
8
Layer 1
10
8.415062
20
0.799569
70
0
0
VERTEX
8
Layer 1
10
8.523012
20
0.818354
70
0
0
VERTEX
8
Layer 1
10
8.611647
20
0.806183
70
0
0
VERTEX
8
Layer 1
10
8.685202
20
0.769142
70
0
0
VERTEX
8
Layer 1
10
8.735737
20
0.708288
70
0
0
VERTEX
8
Layer 1
10
8.754522
20
0.623621
70
0
0
VERTEX
8
Layer 1
10
8.694991
20
0.623621
70
0
0
VERTEX
8
Layer 1
10
8.678852
20
0.686327
70
0
0
VERTEX
8
Layer 1
10
8.641016
20
0.731042
70
0
0
VERTEX
8
Layer 1
10
8.587570
20
0.758294
70
0
0
VERTEX
8
Layer 1
10
8.524071
20
0.767554
70
0
0
VERTEX
8
Layer 1
10
8.464804
20
0.760940
70
0
0
VERTEX
8
Layer 1
10
8.414798
20
0.740038
70
0
0
VERTEX
8
Layer 1
10
8.380137
20
0.701938
70
0
0
VERTEX
8
Layer 1
10
8.366908
20
0.643200
70
0
0
VERTEX
8
Layer 1
10
8.374317
20
0.604836
70
0
0
VERTEX
8
Layer 1
10
8.394954
20
0.577319
70
0
0
VERTEX
8
Layer 1
10
8.425116
20
0.558798
70
0
0
VERTEX
8
Layer 1
10
8.461629
20
0.547421
70
0
0
VERTEX
8
Layer 1
10
8.614293
20
0.509586
70
0
0
VERTEX
8
Layer 1
10
8.676999
20
0.488155
70
0
0
VERTEX
8
Layer 1
10
8.728858
20
0.456669
70
0
0
VERTEX
8
Layer 1
10
8.763783
20
0.410632
70
0
0
VERTEX
8
Layer 1
10
8.776483
20
0.344751
70
0
0
VERTEX
8
Layer 1
10
8.774366
20
0.316705
70
0
0
VERTEX
8
Layer 1
10
8.763783
20
0.279399
70
0
0
VERTEX
8
Layer 1
10
8.740235
20
0.239446
70
0
0
VERTEX
8
Layer 1
10
8.698166
20
0.202934
70
0
0
VERTEX
8
Layer 1
10
8.632020
20
0.176740
70
0
0
VERTEX
8
Layer 1
10
8.537300
20
0.166686
70
0
0
VERTEX
8
Layer 1
10
8.434641
20
0.179386
70
0
0
VERTEX
8
Layer 1
10
8.353944
20
0.218280
70
0
0
VERTEX
8
Layer 1
10
8.302615
20
0.286013
70
0
0
VERTEX
8
Layer 1
10
8.287269
20
0.384967
70
0
0
VERTEX
8
Layer 1
10
8.346800
20
0.384967
70
0
0
VERTEX
8
Layer 1
10
8.361617
20
0.304269
70
0
0
SEQEND
8
Layer 1
0
POLYLINE
8
Layer 1
62
7
70
0
10
0.000000
20
0.000000
66
1
0
VERTEX
8
Layer 1
10
8.911420
20
0.631294
70
0
0
VERTEX
8
Layer 1
10
8.911420
20
0.545304
70
0
0
VERTEX
8
Layer 1
10
8.913272
20
0.545304
70
0
0
VERTEX
8
Layer 1
10
8.975978
20
0.618594
70
0
0
VERTEX
8
Layer 1
10
9.074668
20
0.644523
70
0
0
VERTEX
8
Layer 1
10
9.164626
20
0.625209
70
0
0
VERTEX
8
Layer 1
10
9.228126
20
0.572821
70
0
0
VERTEX
8
Layer 1
10
9.265961
20
0.496621
70
0
0
VERTEX
8
Layer 1
10
9.278132
20
0.405075
70
0
0
VERTEX
8
Layer 1
10
9.265961
20
0.313530
70
0
0
VERTEX
8
Layer 1
10
9.228126
20
0.237065
70
0
0
VERTEX
8
Layer 1
10
9.164626
20
0.185472
70
0
0
VERTEX
8
Layer 1
10
9.074668
20
0.166686
70
0
0
VERTEX
8
Layer 1
10
9.025455
20
0.172772
70
0
0
VERTEX
8
Layer 1
10
8.979947
20
0.191292
70
0
0
VERTEX
8
Layer 1
10
8.942641
20
0.221984
70
0
0
VERTEX
8
Layer 1
10
8.917770
20
0.264846
70
0
0
VERTEX
8
Layer 1
10
8.915918
20
0.264846
70
0
0
VERTEX
8
Layer 1
10
8.915918
20
0.013228
70
0
0
VERTEX
8
Layer 1
10
8.860620
20
0.013228
70
0
0
VERTEX
8
Layer 1
10
8.860620
20
0.632352
70
0
0
VERTEX
8
Layer 1
10
8.911420
20
0.631294
70
0
0
SEQEND
8
Layer 1
0
POLYLINE
8
Layer 1
62
7
70
0
10
0.000000
20
0.000000
66
1
0
VERTEX
8
Layer 1
10
9.214632
20
0.474661
70
0
0
VERTEX
8
Layer 1
10
9.188174
20
0.536309
70
0
0
VERTEX
8
Layer 1
10
9.142136
20
0.580759
70
0
0
VERTEX
8
Layer 1
10
9.074668
20
0.597692
70
0
0
VERTEX
8
Layer 1
10
8.998468
20
0.581817
70
0
0
VERTEX
8
Layer 1
10
8.949255
20
0.539748
70
0
0
VERTEX
8
Layer 1
10
8.923326
20
0.478365
70
0
0
VERTEX
8
Layer 1
10
8.915918
20
0.404811
70
0
0
VERTEX
8
Layer 1
10
8.924120
20
0.334961
70
0
0
VERTEX
8
Layer 1
10
8.951372
20
0.273049
70
0
0
VERTEX
8
Layer 1
10
9.000320
20
0.228863
70
0
0
VERTEX
8
Layer 1
10
9.074403
20
0.211665
70
0
0
VERTEX
8
Layer 1
10
9.141872
20
0.228863
70
0
0
VERTEX
8
Layer 1
10
9.187909
20
0.273049
70
0
0
VERTEX
8
Layer 1
10
9.214368
20
0.334961
70
0
0
VERTEX
8
Layer 1
10
9.222570
20
0.404811
70
0
0
VERTEX
8
Layer 1
10
9.214368
20
0.474661
70
0
0
SEQEND
8
Layer 1
0
POLYLINE
8
Layer 1
62
7
70
0
10
0.000000
20
0.000000
66
1
0
VERTEX
8
Layer 1
10
9.414657
20
0.631294
70
0
0
VERTEX
8
Layer 1
10
11.058776
20
0.306915
70
0
0
VERTEX
8
Layer 1
10
11.060628
20
0.306915
70
0
0
VERTEX
8
Layer 1
10
11.125980
20
0.392111
70
0
0
VERTEX
8
Layer 1
10
11.231548
20
0.419363
70
0
0
VERTEX
8
Layer 1
10
11.231548
20
0.364065
70
0
0
VERTEX
8
Layer 1
10
11.163286
20
0.354011
70
0
0
VERTEX
8
Layer 1
10
11.110105
20
0.320144
70
0
0
VERTEX
8
Layer 1
10
11.075444
20
0.267757
70
0
0
VERTEX
8
Layer 1
10
11.063274
20
0.201611
70
0
0
VERTEX
8
Layer 1
10
11.063274
20
-0.039689
70
0
0
VERTEX
8
Layer 1
10
11.007976
20
-0.039689
70
0
0
VERTEX
8
Layer 1
10
11.007976
20
0.632352
70
0
0
VERTEX
8
Layer 1
10
9.414657
20
0.631294
70
0
0
SEQEND
8
Layer 1
0
POLYLINE
8
Layer 1
62
7
70
0
10
0.000000
20
0.000000
66
1
0
VERTEX
8
Layer 1
10
9.696173
20
0.805125
70
0
0
VERTEX
8
Layer 1
10
11.140267
20
0.341576
70
0
0
VERTEX
8
Layer 1
10
11.084969
20
0.341576
70
0
0
VERTEX
8
Layer 1
10
11.084969
20
0.430211
70
0
0
VERTEX
8
Layer 1
10
9.696173
20
0.805125
70
0
0
SEQEND
8
Layer 1
0
POLYLINE
8
Layer 1
62
7
70
0
10
0.000000
20
0.000000
66
1
0
VERTEX
8
Layer 1
10
9.696173
20
0.631294
70
0
0
VERTEX
8
Layer 1
10
11.140267
20
-0.196322
70
0
0
VERTEX
8
Layer 1
10
11.084969
20
-0.196322
70
0
0
VERTEX
8
Layer 1
10
11.084969
20
0.632352
70
0
0
VERTEX
8
Layer 1
10
9.696173
20
0.631294
70
0
0
SEQEND
8
Layer 1
0
POLYLINE
8
Layer 1
62
7
70
0
10
0.000000
20
0.000000
66
1
0
VERTEX
8
Layer 1
10
9.856775
20
0.631294
70
0
0
VERTEX
8
Layer 1
10
11.300869
20
0.178328
70
0
0
VERTEX
8
Layer 1
10
11.302457
20
0.178328
70
0
0
VERTEX
8
Layer 1
10
11.358548
20
0.244474
70
0
0
VERTEX
8
Layer 1
10
11.447183
20
0.269344
70
0
0
VERTEX
8
Layer 1
10
11.526558
20
0.257174
70
0
0
VERTEX
8
Layer 1
10
11.577887
20
0.222513
70
0
0
VERTEX
8
Layer 1
10
11.604875
20
0.167745
70
0
0
VERTEX
8
Layer 1
10
11.612812
20
0.094984
70
0
0
VERTEX
8
Layer 1
10
11.612812
20
-0.196322
70
0
0
VERTEX
8
Layer 1
10
11.557515
20
-0.196322
70
0
0
VERTEX
8
Layer 1
10
11.557515
20
0.462225
70
0
0
VERTEX
8
Layer 1
10
11.552223
20
0.515936
70
0
0
VERTEX
8
Layer 1
10
11.533702
20
0.559592
70
0
0
VERTEX
8
Layer 1
10
11.498248
20
0.588431
70
0
0
VERTEX
8
Layer 1
10
11.442686
20
0.599015
70
0
0
VERTEX
8
Layer 1
10
11.383419
20
0.587109
70
0
0
VERTEX
8
Layer 1
10
11.339763
20
0.554829
70
0
0
VERTEX
8
Layer 1
10
11.311717
20
0.505617
70
0
0
VERTEX
8
Layer 1
10
11.300869
20
0.443705
70
0
0
VERTEX
8
Layer 1
10
11.300869
20
0.179651
70
0
0
VERTEX
8
Layer 1
10
9.802006
20
0.179651
70
0
0
VERTEX
8
Layer 1
10
9.802006
20
0.632088
70
0
0
VERTEX
8
Layer 1
10
9.856775
20
0.631294
70
0
0
SEQEND
8
Layer 1
0
POLYLINE
8
Layer 1
62
7
70
0
10
0.000000
20
0.000000
66
1
0
VERTEX
8
Layer 1
10
10.644703
20
0.125147
70
0
0
VERTEX
8
Layer 1
10
10.610043
20
0.056620
70
0
0
VERTEX
8
Layer 1
10
10.548130
20
0.013757
70
0
0
VERTEX
8
Layer 1
10
10.454733
20
-0.001059
70
0
0
VERTEX
8
Layer 1
10
10.388058
20
0.006878
70
0
0
VERTEX
8
Layer 1
10
10.329849
20
0.031484
70
0
0
VERTEX
8
Layer 1
10
10.286987
20
0.074082
70
0
0
VERTEX
8
Layer 1
10
10.267143
20
0.135995
70
0
0
VERTEX
8
Layer 1
10
11.766535
20
-0.238920
70
0
0
VERTEX
8
Layer 1
10
11.783733
20
-0.281517
70
0
0
VERTEX
8
Layer 1
10
11.814425
20
-0.309034
70
0
0
VERTEX
8
Layer 1
10
11.854377
20
-0.324380
70
0
0
VERTEX
8
Layer 1
10
11.898827
20
-0.329142
70
0
0
VERTEX
8
Layer 1
10
12.010216
20
-0.285222
70
0
0
VERTEX
8
Layer 1
10
12.044347
20
-0.159016
70
0
0
VERTEX
8
Layer 1
10
12.044347
20
-0.097632
70
0
0
VERTEX
8
Layer 1
10
12.042760
20
-0.097632
70
0
0
VERTEX
8
Layer 1
10
11.986139
20
-0.165365
70
0
0
VERTEX
8
Layer 1
10
11.898827
20
-0.190765
70
0
0
VERTEX
8
Layer 1
10
11.805958
20
-0.172774
70
0
0
VERTEX
8
Layer 1
10
11.742194
20
-0.123297
70
0
0
VERTEX
8
Layer 1
10
11.705681
20
-0.049214
70
0
0
VERTEX
8
Layer 1
10
11.694304
20
0.041538
70
0
0
VERTEX
8
Layer 1
10
11.707798
20
0.129645
70
0
0
VERTEX
8
Layer 1
10
11.747221
20
0.202669
70
0
0
VERTEX
8
Layer 1
10
11.811250
20
0.251617
70
0
0
VERTEX
8
Layer 1
10
11.898562
20
0.269609
70
0
0
VERTEX
8
Layer 1
10
11.946452
20
0.262730
70
0
0
VERTEX
8
Layer 1
10
11.987197
20
0.243151
70
0
0
VERTEX
8
Layer 1
10
12.020006
20
0.213782
70
0
0
VERTEX
8
Layer 1
10
12.042495
20
0.178857
70
0
0
VERTEX
8
Layer 1
10
12.044083
20
0.178857
70
0
0
VERTEX
8
Layer 1
10
12.044083
20
0.256909
70
0
0
VERTEX
8
Layer 1
10
12.099381
20
0.256909
70
0
0
VERTEX
8
Layer 1
10
12.099381
20
-0.158751
70
0
0
VERTEX
8
Layer 1
10
12.088533
20
-0.248974
70
0
0
SEQEND
8
Layer 1
0
POLYLINE
8
Layer 1
62
7
70
0
10
0.000000
20
0.000000
66
1
0
VERTEX
8
Layer 1
10
11.961797
20
-0.128324
70
0
0
VERTEX
8
Layer 1
10
12.007570
20
-0.087843
70
0
0
VERTEX
8
Layer 1
10
12.035087
20
-0.030428
70
0
0
VERTEX
8
Layer 1
10
12.044347
20
0.036247
70
0
0
VERTEX
8
Layer 1
10
12.036410
20
0.102922
70
0
0
VERTEX
8
Layer 1
10
12.011010
20
0.163511
70
0
0
VERTEX
8
Layer 1
10
11.965766
20
0.207167
70
0
0
VERTEX
8
Layer 1
10
11.898562
20
0.223836
70
0
0
VERTEX
8
Layer 1
10
11.831093
20
0.207697
70
0
0
VERTEX
8
Layer 1
10
11.784791
20
0.165099
70
0
0
VERTEX
8
Layer 1
10
11.758069
20
0.105038
70
0
0
VERTEX
8
Layer 1
10
11.749866
20
0.036247
70
0
0
VERTEX
8
Layer 1
10
11.758598
20
-0.030428
70
0
0
VERTEX
8
Layer 1
10
11.785585
20
-0.087843
70
0
0
VERTEX
8
Layer 1
10
11.832152
20
-0.128324
70
0
0
VERTEX
8
Layer 1
10
11.898827
20
-0.143670
70
0
0
VERTEX
8
Layer 1
10
11.962062
20
-0.128324
70
0
0
SEQEND
8
Layer 1
0
POLYLINE
8
Layer 1
62
7
70
0
10
0.000000
20
0.000000
66
1
0
VERTEX
8
Layer 1
10
12.465563
20
0.169067
70
0
0
VERTEX
8
Layer 1
10
12.439634
20
0.200024
70
0
0
VERTEX
8
Layer 1
10
12.402328
20
0.218015
70
0
0
VERTEX
8
Layer 1
10
12.357614
20
0.223572
70
0
0
VERTEX
8
Layer 1
10
12.320307
20
0.219603
70
0
0
VERTEX
8
Layer 1
10
12.285647
20
0.206374
70
0
0
VERTEX
8
Layer 1
10
12.260247
20
0.182032
70
0
0
VERTEX
8
Layer 1
10
12.250457
20
0.145255
70
0
0
VERTEX
8
Layer 1
10
12.259453
20
0.114299
70
0
0
VERTEX
8
Layer 1
10
12.282737
20
0.092603
70
0
0
VERTEX
8
Layer 1
10
12.313693
20
0.078315
70
0
0
VERTEX
8
Layer 1
10
12.344120
20
0.069055
70
0
0
VERTEX
8
Layer 1
10
12.417939
20
0.052386
70
0
0
VERTEX
8
Layer 1
10
12.465034
20
0.039686
70
0
0
VERTEX
8
Layer 1
10
12.506045
20
0.015609
70
0
0
VERTEX
8
Layer 1
10
12.535413
20
-0.021168
70
0
0
VERTEX
8
Layer 1
10
12.547055
20
-0.072761
70
0
0
VERTEX
8
Layer 1
10
12.530386
20
-0.135468
70
0
0
VERTEX
8
Layer 1
10
12.487788
20
-0.177536
70
0
0
VERTEX
8
Layer 1
10
12.429580
20
-0.200820
70
0
0
VERTEX
8
Layer 1
10
12.365551
20
-0.207699
70
0
0
VERTEX
8
Layer 1
10
12.236170
20
-0.170128
70
0
0
VERTEX
8
Layer 1
10
12.179814
20
-0.049214
70
0
0
VERTEX
8
Layer 1
10
12.234847
20
-0.049214
70
0
0
VERTEX
8
Layer 1
10
12.275593
20
-0.133616
70
0
0
VERTEX
8
Layer 1
10
12.368197
20
-0.162190
70
0
0
VERTEX
8
Layer 1
10
12.409736
20
-0.157693
70
0
0
VERTEX
8
Layer 1
10
12.449688
20
-0.142876
70
0
0
VERTEX
8
Layer 1
10
12.479851
20
-0.116153
70
0
0
VERTEX
8
Layer 1
10
12.491757
20
-0.076201
70
0
0
VERTEX
8
Layer 1
10
12.483555
20
-0.042334
70
0
0
VERTEX
8
Layer 1
10
12.461066
20
-0.019580
70
0
0
VERTEX
8
Layer 1
10
12.429051
20
-0.004234
70
0
0
VERTEX
8
Layer 1
10
12.392803
20
0.006349
70
0
0
VERTEX
8
Layer 1
10
12.321895
20
0.022224
70
0
0
VERTEX
8
Layer 1
10
12.271889
20
0.038363
70
0
0
VERTEX
8
Layer 1
10
12.232201
20
0.061118
70
0
0
VERTEX
8
Layer 1
10
12.205478
20
0.094455
70
0
0
VERTEX
8
Layer 1
10
12.195689
20
0.143138
70
0
0
VERTEX
8
Layer 1
10
12.211035
20
0.201876
70
0
0
VERTEX
8
Layer 1
10
12.250987
20
0.241299
70
0
0
VERTEX
8
Layer 1
10
12.305755
20
0.263259
70
0
0
VERTEX
8
Layer 1
10
12.365816
20
0.270138
70
0
0
VERTEX
8
Layer 1
10
12.429316
20
0.261407
70
0
0
VERTEX
8
Layer 1
10
12.481174
20
0.234155
70
0
0
VERTEX
8
Layer 1
10
12.516628
20
0.188647
70
0
0
VERTEX
8
Layer 1
10
12.531709
20
0.124617
70
0
0
VERTEX
8
Layer 1
10
12.476411
20
0.124617
70
0
0
VERTEX
8
Layer 1
10
12.466093
20
0.168803
70
0
0
SEQEND
8
Layer 1
0
POLYLINE
8
Layer 1
62
7
70
0
10
0.000000
20
0.000000
66
1
0
VERTEX
8
Layer 1
10
5.325791
20
1.125270
70
0
0
VERTEX
8
Layer 1
10
4.668567
20
1.125270
70
0
0
VERTEX
8
Layer 1
10
4.505584
20
0.959906
70
0
0
VERTEX
8
Layer 1
10
4.340749
20
1.125270
70
0
0
VERTEX
8
Layer 1
10
3.686170
20
1.125270
70
0
0
VERTEX
8
Layer 1
10
3.520806
20
0.959641
70
0
0
VERTEX
8
Layer 1
10
3.355442
20
1.125270
70
0
0
VERTEX
8
Layer 1
10
1.257034
20
1.125270
70
0
0
VERTEX
8
Layer 1
10
1.142999
20
1.011235
70
0
0
VERTEX
8
Layer 1
10
1.142999
20
1.125270
70
0
0
VERTEX
8
Layer 1
10
0.679714
20
1.125270
70
0
0
VERTEX
8
Layer 1
10
0.679714
20
1.030020
70
0
0
VERTEX
8
Layer 1
10
0.470164
20
1.030020
70
0
0
VERTEX
8
Layer 1
10
0.470164
20
1.125270
70
0
0
VERTEX
8
Layer 1
10
0.013494
20
1.125270
70
0
0
VERTEX
8
Layer 1
10
0.013494
20
0.736863
70
0
0
VERTEX
8
Layer 1
10
0.078581
20
0.736863
70
0
0
VERTEX
8
Layer 1
10
0.078581
20
0.225159
70
0
0
VERTEX
8
Layer 1
10
0.286279
20
0.019313
70
0
0
VERTEX
8
Layer 1
10
0.865451
20
0.019313
70
0
0
VERTEX
8
Layer 1
10
1.047484
20
0.201876
70
0
0
VERTEX
8
Layer 1
10
1.075265
20
0.201876
70
0
0
VERTEX
8
Layer 1
10
1.257298
20
0.019843
70
0
0
VERTEX
8
Layer 1
10
1.911348
20
0.019843
70
0
0
VERTEX
8
Layer 1
10
2.076183
20
0.186001
70
0
0
VERTEX
8
Layer 1
10
2.242076
20
0.019843
70
0
0
VERTEX
8
Layer 1
10
2.896655
20
0.019843
70
0
0
VERTEX
8
Layer 1
10
3.061225
20
0.185736
70
0
0
VERTEX
8
Layer 1
10
3.224473
20
0.019843
70
0
0
VERTEX
8
Layer 1
10
3.880903
20
0.019843
70
0
0
VERTEX
8
Layer 1
10
4.087014
20
0.226217
70
0
0
VERTEX
8
Layer 1
10
4.087014
20
0.948000
70
0
0
VERTEX
8
Layer 1
10
4.008168
20
1.026846
70
0
0
VERTEX
8
Layer 1
10
4.087278
20
1.026846
70
0
0
VERTEX
8
Layer 1
10
4.087278
20
1.294074
70
0
0
VERTEX
8
Layer 1
10
5.325791
20
1.125270
70
0
0
SEQEND
8
Layer 1
0
POLYLINE
8
Layer 1
62
7
70
0
10
0.000000
20
0.000000
66
1
0
VERTEX
8
Layer 1
10
0.870743
20
0.381263
70
0
0
VERTEX
8
Layer 1
10
0.280723
20
0.381263
70
0
0
VERTEX
8
Layer 1
10
0.267229
20
0.394757
70
0
0
VERTEX
8
Layer 1
10
0.065087
20
0.595046
70
0
0
VERTEX
8
Layer 1
10
0.065087
20
1.098812
70
0
0
VERTEX
8
Layer 1
10
0.000000
20
1.098812
70
0
0
VERTEX
8
Layer 1
10
0.000000
20
1.513943
70
0
0
VERTEX
8
Layer 1
10
0.483658
20
1.513943
70
0
0
VERTEX
8
Layer 1
10
0.483658
20
1.418693
70
0
0
VERTEX
8
Layer 1
10
0.666485
20
1.418693
70
0
0
VERTEX
8
Layer 1
10
0.666485
20
1.513943
70
0
0
VERTEX
8
Layer 1
10
1.156492
20
1.513943
70
0
0
VERTEX
8
Layer 1
10
1.156492
20
1.418958
70
0
0
VERTEX
8
Layer 1
10
1.251478
20
1.513943
70
0
0
VERTEX
8
Layer 1
10
1.916639
20
1.513943
70
0
0
VERTEX
8
Layer 1
10
2.076447
20
1.353870
70
0
0
VERTEX
8
Layer 1
10
2.236256
20
1.513943
70
0
0
VERTEX
8
Layer 1
10
2.901946
20
1.513943
70
0
0
VERTEX
8
Layer 1
10
3.061225
20
1.354135
70
0
0
VERTEX
8
Layer 1
10
3.218917
20
1.513943
70
0
0
VERTEX
8
Layer 1
10
3.887253
20
1.513943
70
0
0
VERTEX
8
Layer 1
10
4.100772
20
1.299366
70
0
0
VERTEX
8
Layer 1
10
4.100772
20
1.013352
70
0
0
VERTEX
8
Layer 1
10
4.040447
20
1.013352
70
0
0
VERTEX
8
Layer 1
10
4.100507
20
0.953291
70
0
0
VERTEX
8
Layer 1
10
4.100507
20
0.595575
70
0
0
VERTEX
8
Layer 1
10
3.886195
20
0.381792
70
0
0
VERTEX
8
Layer 1
10
3.218652
20
0.381792
70
0
0
VERTEX
8
Layer 1
10
3.060961
20
0.542129
70
0
0
VERTEX
8
Layer 1
10
2.901946
20
0.381792
70
0
0
VERTEX
8
Layer 1
10
2.236256
20
0.381792
70
0
0
VERTEX
8
Layer 1
10
2.075918
20
0.542394
70
0
0
VERTEX
8
Layer 1
10
1.916639
20
0.381792
70
0
0
VERTEX
8
Layer 1
10
1.251478
20
0.381792
70
0
0
VERTEX
8
Layer 1
10
1.237719
20
0.395550
70
0
0
VERTEX
8
Layer 1
10
1.069180
20
0.563825
70
0
0
VERTEX
8
Layer 1
10
1.052511
20
0.563825
70
0
0
VERTEX
8
Layer 1
10
0.870743
20
0.381263
70
0
0
SEQEND
8
Layer 1
0
POLYLINE
8
Layer 1
62
7
70
0
10
0.000000
20
0.000000
66
1
0
VERTEX
8
Layer 1
10
0.291570
20
0.407986
70
0
0
VERTEX
8
Layer 1
10
0.859630
20
0.407986
70
0
0
VERTEX
8
Layer 1
10
1.041663
20
0.590548
70
0
0
VERTEX
8
Layer 1
10
1.080557
20
0.590548
70
0
0
VERTEX
8
Layer 1
10
1.262855
20
0.408515
70
0
0
VERTEX
8
Layer 1
10
1.905791
20
0.408515
70
0
0
VERTEX
8
Layer 1
10
2.076183
20
0.580229
70
0
0
VERTEX
8
Layer 1
10
2.247897
20
0.408515
70
0
0
VERTEX
8
Layer 1
10
2.891363
20
0.408515
70
0
0
VERTEX
8
Layer 1
10
3.061490
20
0.579965
70
0
0
VERTEX
8
Layer 1
10
3.230294
20
0.408515
70
0
0
VERTEX
8
Layer 1
10
3.875347
20
0.408515
70
0
0
VERTEX
8
Layer 1
10
4.073520
20
0.606952
70
0
0
VERTEX
8
Layer 1
10
4.073520
20
0.942444
70
0
0
VERTEX
8
Layer 1
10
3.975889
20
1.040339
70
0
0
VERTEX
8
Layer 1
10
4.074049
20
1.040339
70
0
0
VERTEX
8
Layer 1
10
4.074049
20
1.288518
70
0
0
VERTEX
8
Layer 1
10
3.876406
20
1.487220
70
0
0
VERTEX
8
Layer 1
10
3.230294
20
1.487220
70
0
0
VERTEX
8
Layer 1
10
3.061754
20
1.316035
70
0
0
VERTEX
8
Layer 1
10
2.891363
20
1.487220
70
0
0
VERTEX
8
Layer 1
10
2.247897
20
1.487220
70
0
0
VERTEX
8
Layer 1
10
2.076977
20
1.316035
70
0
0
VERTEX
8
Layer 1
10
1.906056
20
1.487220
70
0
0
VERTEX
8
Layer 1
10
1.262325
20
1.487220
70
0
0
VERTEX
8
Layer 1
10
1.129505
20
1.354135
70
0
0
VERTEX
8
Layer 1
10
1.129505
20
1.487220
70
0
0
VERTEX
8
Layer 1
10
0.693207
20
1.487220
70
0
0
VERTEX
8
Layer 1
10
0.693207
20
1.391970
70
0
0
VERTEX
8
Layer 1
10
0.456935
20
1.391970
70
0
0
VERTEX
8
Layer 1
10
0.456935
20
1.487220
70
0
0
VERTEX
8
Layer 1
10
0.026723
20
1.487220
70
0
0
VERTEX
8
Layer 1
10
0.026723
20
1.125535
70
0
0
VERTEX
8
Layer 1
10
0.091810
20
1.125535
70
0
0
VERTEX
8
Layer 1
10
0.091810
20
0.606159
70
0
0
VERTEX
8
Layer 1
10
0.291570
20
0.407986
70
0
0
SEQEND
8
Layer 1
0
POLYLINE
8
Layer 1
62
7
70
0
10
0.000000
20
0.000000
66
1
0
VERTEX
8
Layer 1
10
3.264690
20
0.491594
70
0
0
VERTEX
8
Layer 1
10
3.117317
20
0.641613
70
0
0
VERTEX
8
Layer 1
10
3.117317
20
0.774433
70
0
0
VERTEX
8
Layer 1
10
3.317871
20
0.774433
70
0
0
VERTEX
8
Layer 1
10
3.317871
20
0.690825
70
0
0
VERTEX
8
Layer 1
10
3.790945
20
0.690825
70
0
0
VERTEX
8
Layer 1
10
3.790945
20
0.865450
70
0
0
VERTEX
8
Layer 1
10
3.239290
20
0.865185
70
0
0
VERTEX
8
Layer 1
10
3.117317
20
0.987158
70
0
0
VERTEX
8
Layer 1
10
3.117317
20
1.254651
70
0
0
VERTEX
8
Layer 1
10
3.264690
20
1.404405
70
0
0
VERTEX
8
Layer 1
10
3.841481
20
1.404670
70
0
0
VERTEX
8
Layer 1
10
3.990705
20
1.254387
70
0
0
VERTEX
8
Layer 1
10
3.990705
20
1.123154
70
0
0
VERTEX
8
Layer 1
10
3.790945
20
1.123154
70
0
0
VERTEX
8
Layer 1
10
3.790945
20
1.208879
70
0
0
VERTEX
8
Layer 1
10
3.316812
20
1.208879
70
0
0
VERTEX
8
Layer 1
10
3.316812
20
1.033195
70
0
0
VERTEX
8
Layer 1
10
3.865293
20
1.033195
70
0
0
VERTEX
8
Layer 1
10
3.990970
20
0.907519
70
0
0
VERTEX
8
Layer 1
10
3.990970
20
0.641348
70
0
0
VERTEX
8
Layer 1
10
3.841216
20
0.491330
70
0
0
VERTEX
8
Layer 1
10
3.264690
20
0.491594
70
0
0
SEQEND
8
Layer 1
0
POLYLINE
8
Layer 1
62
7
70
0
10
0.000000
20
0.000000
66
1
0
VERTEX
8
Layer 1
10
3.835395
20
1.390118
70
0
0
VERTEX
8
Layer 1
10
3.976153
20
1.248566
70
0
0
VERTEX
8
Layer 1
10
3.976153
20
1.137970
70
0
0
VERTEX
8
Layer 1
10
3.805233
20
1.137970
70
0
0
VERTEX
8
Layer 1
10
3.805233
20
1.223695
70
0
0
VERTEX
8
Layer 1
10
3.301996
20
1.223695
70
0
0
VERTEX
8
Layer 1
10
3.301996
20
1.018908
70
0
0
VERTEX
8
Layer 1
10
3.858943
20
1.018908
70
0
0
VERTEX
8
Layer 1
10
3.976153
20
0.901962
70
0
0
VERTEX
8
Layer 1
10
3.976153
20
0.647698
70
0
0
VERTEX
8
Layer 1
10
3.834866
20
0.506411
70
0
0
VERTEX
8
Layer 1
10
3.270775
20
0.506411
70
0
0
VERTEX
8
Layer 1
10
3.131869
20
0.647698
70
0
0
VERTEX
8
Layer 1
10
3.131869
20
0.760146
70
0
0
VERTEX
8
Layer 1
10
3.303319
20
0.760146
70
0
0
VERTEX
8
Layer 1
10
3.303319
20
0.676538
70
0
0
VERTEX
8
Layer 1
10
3.805497
20
0.676538
70
0
0
VERTEX
8
Layer 1
10
3.805497
20
0.880002
70
0
0
VERTEX
8
Layer 1
10
3.245640
20
0.879737
70
0
0
VERTEX
8
Layer 1
10
3.132134
20
0.993243
70
0
0
VERTEX
8
Layer 1
10
3.132134
20
1.248566
70
0
0
VERTEX
8
Layer 1
10
3.271040
20
1.389853
70
0
0
VERTEX
8
Layer 1
10
3.835395
20
1.390118
70
0
0
SEQEND
8
Layer 1
0
POLYLINE
8
Layer 1
62
7
70
0
10
0.000000
20
0.000000
66
1
0
VERTEX
8
Layer 1
10
3.847566
20
1.419222
70
0
0
VERTEX
8
Layer 1
10
3.258604
20
1.418958
70
0
0
VERTEX
8
Layer 1
10
3.102765
20
1.260472
70
0
0
VERTEX
8
Layer 1
10
3.102765
20
0.981073
70
0
0
VERTEX
8
Layer 1
10
3.233469
20
0.850633
70
0
0
VERTEX
8
Layer 1
10
3.776393
20
0.850898
70
0
0
VERTEX
8
Layer 1
10
3.776393
20
0.705377
70
0
0
VERTEX
8
Layer 1
10
3.332687
20
0.705377
70
0
0
VERTEX
8
Layer 1
10
3.332687
20
0.788985
70
0
0
VERTEX
8
Layer 1
10
3.103029
20
0.788985
70
0
0
VERTEX
8
Layer 1
10
3.103029
20
0.635527
70
0
0
VERTEX
8
Layer 1
10
3.258869
20
0.477042
70
0
0
VERTEX
8
Layer 1
10
3.847037
20
0.477042
70
0
0
VERTEX
8
Layer 1
10
4.005257
20
0.635527
70
0
0
VERTEX
8
Layer 1
10
4.005257
20
0.913869
70
0
0
VERTEX
8
Layer 1
10
3.871114
20
1.048012
70
0
0
VERTEX
8
Layer 1
10
3.331100
20
1.048012
70
0
0
VERTEX
8
Layer 1
10
3.331100
20
1.194327
70
0
0
VERTEX
8
Layer 1
10
3.776129
20
1.194327
70
0
0
VERTEX
8
Layer 1
10
3.776129
20
1.108602
70
0
0
VERTEX
8
Layer 1
10
4.005257
20
1.108602
70
0
0
VERTEX
8
Layer 1
10
4.005257
20
1.260208
70
0
0
VERTEX
8
Layer 1
10
3.847566
20
1.419222
70
0
0
SEQEND
8
Layer 1
0
POLYLINE
8
Layer 1
62
7
70
0
10
0.000000
20
0.000000
66
1
0
VERTEX
8
Layer 1
10
2.281764
20
0.491594
70
0
0
VERTEX
8
Layer 1
10
2.132010
20
0.641348
70
0
0
VERTEX
8
Layer 1
10
2.132274
20
1.254387
70
0
0
VERTEX
8
Layer 1
10
2.281764
20
1.404405
70
0
0
VERTEX
8
Layer 1
10
2.856438
20
1.404405
70
0
0
VERTEX
8
Layer 1
10
3.005663
20
1.254651
70
0
0
VERTEX
8
Layer 1
10
3.005663
20
1.116804
70
0
0
VERTEX
8
Layer 1
10
2.806432
20
1.116804
70
0
0
VERTEX
8
Layer 1
10
2.806432
20
1.208879
70
0
0
VERTEX
8
Layer 1
10
2.330182
20
1.208879
70
0
0
VERTEX
8
Layer 1
10
2.330182
20
0.690561
70
0
0
VERTEX
8
Layer 1
10
2.806432
20
0.690561
70
0
0
VERTEX
8
Layer 1
10
2.806432
20
0.774433
70
0
0
VERTEX
8
Layer 1
10
3.004605
20
0.774433
70
0
0
VERTEX
8
Layer 1
10
3.004605
20
0.641613
70
0
0
VERTEX
8
Layer 1
10
2.856438
20
0.491594
70
0
0
VERTEX
8
Layer 1
10
2.281764
20
0.491594
70
0
0
SEQEND
8
Layer 1
0
POLYLINE
8
Layer 1
62
7
70
0
10
0.000000
20
0.000000
66
1
0
VERTEX
8
Layer 1
10
2.850353
20
1.389853
70
0
0
VERTEX
8
Layer 1
10
2.990846
20
1.248566
70
0
0
VERTEX
8
Layer 1
10
2.990846
20
1.131091
70
0
0
VERTEX
8
Layer 1
10
2.820984
20
1.131091
70
0
0
VERTEX
8
Layer 1
10
2.820984
20
1.223431
70
0
0
VERTEX
8
Layer 1
10
2.315630
20
1.223431
70
0
0
VERTEX
8
Layer 1
10
2.315630
20
0.676008
70
0
0
VERTEX
8
Layer 1
10
2.820984
20
0.676008
70
0
0
VERTEX
8
Layer 1
10
2.820984
20
0.759617
70
0
0
VERTEX
8
Layer 1
10
2.990317
20
0.759617
70
0
0
VERTEX
8
Layer 1
10
2.990317
20
0.647169
70
0
0
VERTEX
8
Layer 1
10
2.850353
20
0.505882
70
0
0
VERTEX
8
Layer 1
10
2.287849
20
0.505882
70
0
0
VERTEX
8
Layer 1
10
2.146562
20
0.646904
70
0
0
VERTEX
8
Layer 1
10
2.146826
20
1.248037
70
0
0
VERTEX
8
Layer 1
10
2.287849
20
1.389589
70
0
0
VERTEX
8
Layer 1
10
2.850353
20
1.389589
70
0
0
SEQEND
8
Layer 1
0
POLYLINE
8
Layer 1
62
7
70
0
10
0.000000
20
0.000000
66
1
0
VERTEX
8
Layer 1
10
2.862523
20
1.418693
70
0
0
VERTEX
8
Layer 1
10
2.275678
20
1.418693
70
0
0
VERTEX
8
Layer 1
10
2.117722
20
1.260208
70
0
0
VERTEX
8
Layer 1
10
2.117458
20
0.634998
70
0
0
VERTEX
8
Layer 1
10
2.275678
20
0.476777
70
0
0
VERTEX
8
Layer 1
10
2.862523
20
0.476777
70
0
0
VERTEX
8
Layer 1
10
3.019421
20
0.635263
70
0
0
VERTEX
8
Layer 1
10
3.019421
20
0.788721
70
0
0
VERTEX
8
Layer 1
10
2.791880
20
0.788721
70
0
0
VERTEX
8
Layer 1
10
2.791880
20
0.705113
70
0
0
VERTEX
8
Layer 1
10
2.344735
20
0.705113
70
0
0
VERTEX
8
Layer 1
10
2.344735
20
1.194327
70
0
0
VERTEX
8
Layer 1
10
2.791880
20
1.194327
70
0
0
VERTEX
8
Layer 1
10
2.791880
20
1.101987
70
0
0
VERTEX
8
Layer 1
10
3.019950
20
1.101987
70
0
0
VERTEX
8
Layer 1
10
3.019950
20
1.260472
70
0
0
VERTEX
8
Layer 1
10
2.862523
20
1.418693
70
0
0
SEQEND
8
Layer 1
0
POLYLINE
8
Layer 1
62
7
70
0
10
0.000000
20
0.000000
66
1
0
VERTEX
8
Layer 1
10
1.296721
20
0.491594
70
0
0
VERTEX
8
Layer 1
10
1.146703
20
0.641348
70
0
0
VERTEX
8
Layer 1
10
1.146967
20
1.254387
70
0
0
VERTEX
8
Layer 1
10
1.296721
20
1.404405
70
0
0
VERTEX
8
Layer 1
10
1.871396
20
1.404405
70
0
0
VERTEX
8
Layer 1
10
2.020620
20
1.254651
70
0
0
VERTEX
8
Layer 1
10
2.020091
20
1.116804
70
0
0
VERTEX
8
Layer 1
10
1.820596
20
1.116804
70
0
0
VERTEX
8
Layer 1
10
1.820596
20
1.208879
70
0
0
VERTEX
8
Layer 1
10
1.346198
20
1.208879
70
0
0
VERTEX
8
Layer 1
10
1.346198
20
0.690561
70
0
0
VERTEX
8
Layer 1
10
1.820331
20
0.690561
70
0
0
VERTEX
8
Layer 1
10
1.820331
20
0.774433
70
0
0
VERTEX
8
Layer 1
10
2.019562
20
0.774433
70
0
0
VERTEX
8
Layer 1
10
2.019562
20
0.641613
70
0
0
VERTEX
8
Layer 1
10
1.871396
20
0.491594
70
0
0
VERTEX
8
Layer 1
10
1.296721
20
0.491594
70
0
0
SEQEND
8
Layer 1
0
POLYLINE
8
Layer 1
62
7
70
0
10
0.000000
20
0.000000
66
1
0
VERTEX
8
Layer 1
10
1.865310
20
1.389853
70
0
0
VERTEX
8
Layer 1
10
2.006068
20
1.248566
70
0
0
VERTEX
8
Layer 1
10
2.005804
20
1.131091
70
0
0
VERTEX
8
Layer 1
10
1.835148
20
1.131091
70
0
0
VERTEX
8
Layer 1
10
1.835148
20
1.223431
70
0
0
VERTEX
8
Layer 1
10
1.331382
20
1.223431
70
0
0
VERTEX
8
Layer 1
10
1.331382
20
0.676008
70
0
0
VERTEX
8
Layer 1
10
1.834619
20
0.676008
70
0
0
VERTEX
8
Layer 1
10
1.834619
20
0.759617
70
0
0
VERTEX
8
Layer 1
10
2.004745
20
0.759617
70
0
0
VERTEX
8
Layer 1
10
2.004745
20
0.647169
70
0
0
VERTEX
8
Layer 1
10
1.865046
20
0.505882
70
0
0
VERTEX
8
Layer 1
10
1.302807
20
0.505882
70
0
0
VERTEX
8
Layer 1
10
1.161519
20
0.646904
70
0
0
VERTEX
8
Layer 1
10
1.161519
20
1.248037
70
0
0
VERTEX
8
Layer 1
10
1.302807
20
1.389589
70
0
0
VERTEX
8
Layer 1
10
1.865310
20
1.389589
70
0
0
SEQEND
8
Layer 1
0
POLYLINE
8
Layer 1
62
7
70
0
10
0.000000
20
0.000000
66
1
0
VERTEX
8
Layer 1
10
1.877481
20
1.418693
70
0
0
VERTEX
8
Layer 1
10
1.290636
20
1.418693
70
0
0
VERTEX
8
Layer 1
10
1.132415
20
1.260208
70
0
0
VERTEX
8
Layer 1
10
1.132151
20
0.634998
70
0
0
VERTEX
8
Layer 1
10
1.290636
20
0.476777
70
0
0
VERTEX
8
Layer 1
10
1.877481
20
0.476777
70
0
0
VERTEX
8
Layer 1
10
2.034114
20
0.635263
70
0
0
VERTEX
8
Layer 1
10
2.034114
20
0.788721
70
0
0
VERTEX
8
Layer 1
10
1.805779
20
0.788721
70
0
0
VERTEX
8
Layer 1
10
1.805779
20
0.705113
70
0
0
VERTEX
8
Layer 1
10
1.360486
20
0.705113
70
0
0
VERTEX
8
Layer 1
10
1.360486
20
1.194327
70
0
0
VERTEX
8
Layer 1
10
1.805779
20
1.194327
70
0
0
VERTEX
8
Layer 1
10
1.805779
20
1.101987
70
0
0
VERTEX
8
Layer 1
10
2.034643
20
1.101987
70
0
0
VERTEX
8
Layer 1
10
2.035172
20
1.260472
70
0
0
VERTEX
8
Layer 1
10
1.877481
20
1.418693
70
0
0
SEQEND
8
Layer 1
0
POLYLINE
8
Layer 1
62
7
70
0
10
0.000000
20
0.000000
66
1
0
VERTEX
8
Layer 1
10
0.325702
20
0.491065
70
0
0
VERTEX
8
Layer 1
10
0.174889
20
0.640554
70
0
0
VERTEX
8
Layer 1
10
0.174889
20
1.208879
70
0
0
VERTEX
8
Layer 1
10
0.109537
20
1.208879
70
0
0
VERTEX
8
Layer 1
10
0.109537
20
1.404405
70
0
0
VERTEX
8
Layer 1
10
0.373856
20
1.404405
70
0
0
VERTEX
8
Layer 1
10
0.373856
20
0.690561
70
0
0
VERTEX
8
Layer 1
10
0.776022
20
0.690561
70
0
0
VERTEX
8
Layer 1
10
0.776022
20
1.404405
70
0
0
VERTEX
8
Layer 1
10
1.046426
20
1.404405
70
0
0
VERTEX
8
Layer 1
10
1.046426
20
1.208879
70
0
0
VERTEX
8
Layer 1
10
0.975253
20
1.208879
70
0
0
VERTEX
8
Layer 1
10
0.975253
20
0.641613
70
0
0
VERTEX
8
Layer 1
10
0.825499
20
0.491065
70
0
0
VERTEX
8
Layer 1
10
0.325702
20
0.491065
70
0
0
SEQEND
8
Layer 1
0
POLYLINE
8
Layer 1
62
7
70
0
10
0.000000
20
0.000000
66
1
0
VERTEX
8
Layer 1
10
1.031874
20
1.389853
70
0
0
VERTEX
8
Layer 1
10
1.031874
20
1.223431
70
0
0
VERTEX
8
Layer 1
10
0.960701
20
1.223431
70
0
0
VERTEX
8
Layer 1
10
0.960701
20
0.647433
70
0
0
VERTEX
8
Layer 1
10
0.819414
20
0.505617
70
0
0
VERTEX
8
Layer 1
10
0.331787
20
0.505617
70
0
0
VERTEX
8
Layer 1
10
0.189441
20
0.646640
70
0
0
VERTEX
8
Layer 1
10
0.189441
20
1.223431
70
0
0
VERTEX
8
Layer 1
10
0.124089
20
1.223431
70
0
0
VERTEX
8
Layer 1
10
0.124089
20
1.389853
70
0
0
VERTEX
8
Layer 1
10
0.359304
20
1.389853
70
0
0
VERTEX
8
Layer 1
10
0.359304
20
0.676008
70
0
0
VERTEX
8
Layer 1
10
0.790574
20
0.676008
70
0
0
VERTEX
8
Layer 1
10
0.790574
20
1.389853
70
0
0
VERTEX
8
Layer 1
10
1.031874
20
1.389853
70
0
0
SEQEND
8
Layer 1
0
POLYLINE
8
Layer 1
62
7
70
0
10
0.000000
20
0.000000
66
1
0
VERTEX
8
Layer 1
10
1.060978
20
1.418958
70
0
0
VERTEX
8
Layer 1
10
0.761470
20
1.418958
70
0
0
VERTEX
8
Layer 1
10
0.761470
20
0.705113
70
0
0
VERTEX
8
Layer 1
10
0.388408
20
0.705113
70
0
0
VERTEX
8
Layer 1
10
0.388408
20
1.418958
70
0
0
VERTEX
8
Layer 1
10
0.095250
20
1.418958
70
0
0
VERTEX
8
Layer 1
10
0.095250
20
1.194327
70
0
0
VERTEX
8
Layer 1
10
0.160337
20
1.194327
70
0
0
VERTEX
8
Layer 1
10
0.160337
20
0.634733
70
0
0
VERTEX
8
Layer 1
10
0.319881
20
0.476513
70
0
0
VERTEX
8
Layer 1
10
0.831584
20
0.476513
70
0
0
VERTEX
8
Layer 1
10
0.989805
20
0.635527
70
0
0
VERTEX
8
Layer 1
10
0.989805
20
1.194327
70
0
0
VERTEX
8
Layer 1
10
1.060978
20
1.194327
70
0
0
VERTEX
8
Layer 1
10
1.060978
20
1.418958
70
0
0
SEQEND
8
Layer 1
 0 
ENDSEC
 0 
EOF