999
"DXF R12 Output" (www.mydxf.blogspot.com)
 0 
SECTION
 2 
HEADER
 9 
$ACADVER
 1 
AC1009
 9 
$EXTMIN
 10 
 0 
 20 
 0 
 9 
$EXTMAX
 10 
 8.5 
 20 
 11 
 0 
ENDSEC
 0 
SECTION
 2 
ENTITIES
0
POLYLINE
8
Layer 1
62
7
70
0
10
0.000000
20
0.000000
66
1
0
VERTEX
8
Layer 1
10
3.228971
20
1.210470
70
0
0
VERTEX
8
Layer 1
10
3.228971
20
0.941389
70
0
0
VERTEX
8
Layer 1
10
3.237438
20
0.877095
70
0
0
VERTEX
8
Layer 1
10
3.302525
20
0.809626
70
0
0
VERTEX
8
Layer 1
10
3.355971
20
0.801953
70
0
0
VERTEX
8
Layer 1
10
3.410210
20
0.809626
70
0
0
VERTEX
8
Layer 1
10
3.450162
20
0.833968
70
0
0
VERTEX
8
Layer 1
10
3.475033
20
0.877095
70
0
0
VERTEX
8
Layer 1
10
3.483500
20
0.941389
70
0
0
VERTEX
8
Layer 1
10
3.483500
20
1.210470
70
0
0
VERTEX
8
Layer 1
10
3.525039
20
1.210470
70
0
0
VERTEX
8
Layer 1
10
3.525039
20
0.932128
70
0
0
VERTEX
8
Layer 1
10
3.515779
20
0.868364
70
0
0
VERTEX
8
Layer 1
10
3.486146
20
0.815712
70
0
0
VERTEX
8
Layer 1
10
3.433758
20
0.779993
70
0
0
VERTEX
8
Layer 1
10
3.355971
20
0.767028
70
0
0
VERTEX
8
Layer 1
10
3.278977
20
0.779993
70
0
0
VERTEX
8
Layer 1
10
3.226590
20
0.815712
70
0
0
VERTEX
8
Layer 1
10
3.196956
20
0.868364
70
0
0
VERTEX
8
Layer 1
10
3.187696
20
0.932128
70
0
0
VERTEX
8
Layer 1
10
3.187696
20
1.210470
70
0
0
VERTEX
8
Layer 1
10
3.228971
20
1.210470
70
0
0
SEQEND
8
Layer 1
0
POLYLINE
8
Layer 1
62
7
70
0
10
0.000000
20
0.000000
66
1
0
VERTEX
8
Layer 1
10
3.639339
20
1.090084
70
0
0
VERTEX
8
Layer 1
10
3.639339
20
1.035845
70
0
0
VERTEX
8
Layer 1
10
3.640662
20
1.035845
70
0
0
VERTEX
8
Layer 1
10
3.679556
20
1.081882
70
0
0
VERTEX
8
Layer 1
10
3.741204
20
1.099345
70
0
0
VERTEX
8
Layer 1
10
3.796237
20
1.090613
70
0
0
VERTEX
8
Layer 1
10
3.831956
20
1.066536
70
0
0
VERTEX
8
Layer 1
10
3.851006
20
1.028436
70
0
0
VERTEX
8
Layer 1
10
3.856562
20
0.977901
70
0
0
VERTEX
8
Layer 1
10
3.856562
20
0.775760
70
0
0
VERTEX
8
Layer 1
10
3.818197
20
0.775760
70
0
0
VERTEX
8
Layer 1
10
3.818197
20
0.972080
70
0
0
VERTEX
8
Layer 1
10
3.814493
20
1.009651
70
0
0
VERTEX
8
Layer 1
10
3.801529
20
1.039814
70
0
0
VERTEX
8
Layer 1
10
3.776922
20
1.059922
70
0
0
VERTEX
8
Layer 1
10
3.738293
20
1.067330
70
0
0
VERTEX
8
Layer 1
10
3.697018
20
1.059128
70
0
0
VERTEX
8
Layer 1
10
3.666591
20
1.036639
70
0
0
VERTEX
8
Layer 1
10
3.647012
20
1.002507
70
0
0
VERTEX
8
Layer 1
10
3.639339
20
0.959645
70
0
0
VERTEX
8
Layer 1
10
3.639339
20
0.776289
70
0
0
VERTEX
8
Layer 1
10
3.600975
20
0.776289
70
0
0
VERTEX
8
Layer 1
10
3.600975
20
1.090084
70
0
0
VERTEX
8
Layer 1
10
3.639339
20
1.090084
70
0
0
SEQEND
8
Layer 1
0
POLYLINE
8
Layer 1
62
7
70
0
10
0.000000
20
0.000000
66
1
0
VERTEX
8
Layer 1
10
3.967422
20
1.210470
70
0
0
VERTEX
8
Layer 1
10
3.967422
20
1.149086
70
0
0
VERTEX
8
Layer 1
10
3.929322
20
1.149086
70
0
0
VERTEX
8
Layer 1
10
3.929322
20
1.210470
70
0
0
VERTEX
8
Layer 1
10
3.967422
20
1.210470
70
0
0
SEQEND
8
Layer 1
0
POLYLINE
8
Layer 1
62
7
70
0
10
0.000000
20
0.000000
66
1
0
VERTEX
8
Layer 1
10
3.967422
20
1.090084
70
0
0
VERTEX
8
Layer 1
10
3.967422
20
0.775760
70
0
0
VERTEX
8
Layer 1
10
3.929322
20
0.775760
70
0
0
VERTEX
8
Layer 1
10
3.929322
20
1.090084
70
0
0
VERTEX
8
Layer 1
10
3.967422
20
1.090084
70
0
0
SEQEND
8
Layer 1
0
POLYLINE
8
Layer 1
62
7
70
0
10
0.000000
20
0.000000
66
1
0
VERTEX
8
Layer 1
10
4.048384
20
1.090084
70
0
0
VERTEX
8
Layer 1
10
4.147074
20
0.814124
70
0
0
VERTEX
8
Layer 1
10
4.148397
20
0.814124
70
0
0
VERTEX
8
Layer 1
10
4.245763
20
1.090084
70
0
0
VERTEX
8
Layer 1
10
4.285186
20
1.090084
70
0
0
VERTEX
8
Layer 1
10
4.167711
20
0.775760
70
0
0
VERTEX
8
Layer 1
10
4.126966
20
0.775760
70
0
0
VERTEX
8
Layer 1
10
4.005787
20
1.090084
70
0
0
VERTEX
8
Layer 1
10
4.048384
20
1.090084
70
0
0
SEQEND
8
Layer 1
0
POLYLINE
8
Layer 1
62
7
70
0
10
0.000000
20
0.000000
66
1
0
VERTEX
8
Layer 1
10
4.351332
20
0.879741
70
0
0
VERTEX
8
Layer 1
10
4.369853
20
0.839789
70
0
0
VERTEX
8
Layer 1
10
4.402132
20
0.810685
70
0
0
VERTEX
8
Layer 1
10
4.448963
20
0.799043
70
0
0
VERTEX
8
Layer 1
10
4.514844
20
0.821003
70
0
0
VERTEX
8
Layer 1
10
4.547653
20
0.879476
70
0
0
VERTEX
8
Layer 1
10
4.586017
20
0.879476
70
0
0
VERTEX
8
Layer 1
10
4.541303
20
0.796662
70
0
0
VERTEX
8
Layer 1
10
4.449228
20
0.767558
70
0
0
VERTEX
8
Layer 1
10
4.384934
20
0.780522
70
0
0
VERTEX
8
Layer 1
10
4.340749
20
0.816241
70
0
0
VERTEX
8
Layer 1
10
4.315349
20
0.869158
70
0
0
VERTEX
8
Layer 1
10
4.307147
20
0.932657
70
0
0
VERTEX
8
Layer 1
10
4.315349
20
0.993512
70
0
0
VERTEX
8
Layer 1
10
4.340749
20
1.046693
70
0
0
VERTEX
8
Layer 1
10
4.384934
20
1.084528
70
0
0
VERTEX
8
Layer 1
10
4.449228
20
1.098816
70
0
0
VERTEX
8
Layer 1
10
4.513786
20
1.083470
70
0
0
VERTEX
8
Layer 1
10
4.557442
20
1.043518
70
0
0
VERTEX
8
Layer 1
10
4.581519
20
0.986897
70
0
0
VERTEX
8
Layer 1
10
4.587605
20
0.922074
70
0
0
VERTEX
8
Layer 1
10
4.345776
20
0.922074
70
0
0
VERTEX
8
Layer 1
10
4.351597
20
0.879212
70
0
0
SEQEND
8
Layer 1
0
POLYLINE
8
Layer 1
62
7
70
0
10
0.000000
20
0.000000
66
1
0
VERTEX
8
Layer 1
10
4.541567
20
0.996422
70
0
0
VERTEX
8
Layer 1
10
4.521723
20
1.032141
70
0
0
VERTEX
8
Layer 1
10
4.490767
20
1.057011
70
0
0
VERTEX
8
Layer 1
10
4.449492
20
1.066536
70
0
0
VERTEX
8
Layer 1
10
4.407424
20
1.057011
70
0
0
VERTEX
8
Layer 1
10
4.376467
20
1.032141
70
0
0
VERTEX
8
Layer 1
10
4.356095
20
0.996157
70
0
0
VERTEX
8
Layer 1
10
4.346040
20
0.954353
70
0
0
VERTEX
8
Layer 1
10
4.549240
20
0.954353
70
0
0
VERTEX
8
Layer 1
10
4.541832
20
0.996157
70
0
0
SEQEND
8
Layer 1
0
POLYLINE
8
Layer 1
62
7
70
0
10
0.000000
20
0.000000
66
1
0
VERTEX
8
Layer 1
10
4.674652
20
1.089820
70
0
0
VERTEX
8
Layer 1
10
4.674652
20
1.016266
70
0
0
VERTEX
8
Layer 1
10
4.675975
20
1.016266
70
0
0
VERTEX
8
Layer 1
10
4.721219
20
1.075532
70
0
0
VERTEX
8
Layer 1
10
4.794773
20
1.094582
70
0
0
VERTEX
8
Layer 1
10
4.794773
20
1.055953
70
0
0
VERTEX
8
Layer 1
10
4.747148
20
1.049074
70
0
0
VERTEX
8
Layer 1
10
4.710107
20
1.025526
70
0
0
VERTEX
8
Layer 1
10
4.686030
20
0.989278
70
0
0
VERTEX
8
Layer 1
10
4.677563
20
0.943241
70
0
0
VERTEX
8
Layer 1
10
4.677563
20
0.775760
70
0
0
VERTEX
8
Layer 1
10
4.639463
20
0.775760
70
0
0
VERTEX
8
Layer 1
10
4.639463
20
1.090084
70
0
0
VERTEX
8
Layer 1
10
4.674652
20
1.089820
70
0
0
SEQEND
8
Layer 1
0
POLYLINE
8
Layer 1
62
7
70
0
10
0.000000
20
0.000000
66
1
0
VERTEX
8
Layer 1
10
5.011996
20
1.028701
70
0
0
VERTEX
8
Layer 1
10
4.994004
20
1.050397
70
0
0
VERTEX
8
Layer 1
10
4.968075
20
1.062832
70
0
0
VERTEX
8
Layer 1
10
4.937119
20
1.066801
70
0
0
VERTEX
8
Layer 1
10
4.911190
20
1.064155
70
0
0
VERTEX
8
Layer 1
10
4.887113
20
1.054895
70
0
0
VERTEX
8
Layer 1
10
4.869386
20
1.038226
70
0
0
VERTEX
8
Layer 1
10
4.862506
20
1.012826
70
0
0
VERTEX
8
Layer 1
10
4.868856
20
0.991130
70
0
0
VERTEX
8
Layer 1
10
4.884996
20
0.976049
70
0
0
VERTEX
8
Layer 1
10
4.906427
20
0.966259
70
0
0
VERTEX
8
Layer 1
10
4.927858
20
0.959909
70
0
0
VERTEX
8
Layer 1
10
4.978923
20
0.948268
70
0
0
VERTEX
8
Layer 1
10
5.011467
20
0.939537
70
0
0
VERTEX
8
Layer 1
10
5.040042
20
0.922868
70
0
0
VERTEX
8
Layer 1
10
5.060414
20
0.897468
70
0
0
VERTEX
8
Layer 1
10
5.068352
20
0.861485
70
0
0
VERTEX
8
Layer 1
10
5.056710
20
0.817828
70
0
0
VERTEX
8
Layer 1
10
5.027077
20
0.788724
70
0
0
VERTEX
8
Layer 1
10
4.986596
20
0.772585
70
0
0
VERTEX
8
Layer 1
10
4.942146
20
0.767822
70
0
0
VERTEX
8
Layer 1
10
4.852452
20
0.794016
70
0
0
VERTEX
8
Layer 1
10
4.813029
20
0.877889
70
0
0
VERTEX
8
Layer 1
10
4.528073
20
0.667810
70
0
0
VERTEX
8
Layer 1
10
4.556384
20
0.609072
70
0
0
VERTEX
8
Layer 1
10
4.620678
20
0.589493
70
0
0
VERTEX
8
Layer 1
10
4.649782
20
0.592404
70
0
0
VERTEX
8
Layer 1
10
4.677563
20
0.602722
70
0
0
VERTEX
8
Layer 1
10
4.698465
20
0.621508
70
0
0
VERTEX
8
Layer 1
10
4.706667
20
0.649289
70
0
0
VERTEX
8
Layer 1
10
4.700846
20
0.672837
70
0
0
VERTEX
8
Layer 1
10
4.685236
20
0.688712
70
0
0
VERTEX
8
Layer 1
10
4.663011
20
0.699295
70
0
0
VERTEX
8
Layer 1
10
4.637611
20
0.706704
70
0
0
VERTEX
8
Layer 1
10
4.588398
20
0.717816
70
0
0
VERTEX
8
Layer 1
10
4.553738
20
0.728929
70
0
0
VERTEX
8
Layer 1
10
4.525957
20
0.744804
70
0
0
VERTEX
8
Layer 1
10
4.507436
20
0.767822
70
0
0
VERTEX
8
Layer 1
10
4.500557
20
0.801689
70
0
0
VERTEX
8
Layer 1
10
4.511140
20
0.842435
70
0
0
VERTEX
8
Layer 1
10
4.538921
20
0.869687
70
0
0
VERTEX
8
Layer 1
10
4.577021
20
0.885033
70
0
0
VERTEX
8
Layer 1
10
4.618825
20
0.889795
70
0
0
VERTEX
8
Layer 1
10
4.663011
20
0.883710
70
0
0
VERTEX
8
Layer 1
10
4.698729
20
0.864660
70
0
0
VERTEX
8
Layer 1
10
4.723336
20
0.833174
70
0
0
VERTEX
8
Layer 1
10
4.733654
20
0.788724
70
0
0
VERTEX
8
Layer 1
10
4.695555
20
0.788724
70
0
0
VERTEX
8
Layer 1
10
4.688146
20
0.819416
70
0
0
SEQEND
8
Layer 1
0
POLYLINE
8
Layer 1
62
7
70
0
10
0.000000
20
0.000000
66
1
0
VERTEX
8
Layer 1
10
4.839488
20
1.001184
70
0
0
VERTEX
8
Layer 1
10
4.839488
20
0.939801
70
0
0
VERTEX
8
Layer 1
10
4.801123
20
0.939801
70
0
0
VERTEX
8
Layer 1
10
4.801123
20
1.210470
70
0
0
VERTEX
8
Layer 1
10
4.839488
20
1.001184
70
0
0
SEQEND
8
Layer 1
0
POLYLINE
8
Layer 1
62
7
70
0
10
0.000000
20
0.000000
66
1
0
VERTEX
8
Layer 1
10
4.839488
20
0.880799
70
0
0
VERTEX
8
Layer 1
10
4.688675
20
0.383912
70
0
0
VERTEX
8
Layer 1
10
4.650311
20
0.383912
70
0
0
VERTEX
8
Layer 1
10
4.650311
20
1.090084
70
0
0
VERTEX
8
Layer 1
10
4.839488
20
0.880799
70
0
0
SEQEND
8
Layer 1
0
POLYLINE
8
Layer 1
62
7
70
0
10
0.000000
20
0.000000
66
1
0
VERTEX
8
Layer 1
10
5.037925
20
0.880799
70
0
0
VERTEX
8
Layer 1
10
4.887113
20
0.665958
70
0
0
VERTEX
8
Layer 1
10
4.823084
20
0.665958
70
0
0
VERTEX
8
Layer 1
10
4.823084
20
0.454027
70
0
0
VERTEX
8
Layer 1
10
4.828111
20
0.424658
70
0
0
VERTEX
8
Layer 1
10
4.854040
20
0.412752
70
0
0
VERTEX
8
Layer 1
10
4.886848
20
0.414604
70
0
0
VERTEX
8
Layer 1
10
4.886848
20
0.382325
70
0
0
VERTEX
8
Layer 1
10
4.869650
20
0.381796
70
0
0
VERTEX
8
Layer 1
10
4.852452
20
0.381266
70
0
0
VERTEX
8
Layer 1
10
4.798742
20
0.396083
70
0
0
VERTEX
8
Layer 1
10
4.783925
20
0.451116
70
0
0
VERTEX
8
Layer 1
10
4.783925
20
1.057805
70
0
0
VERTEX
8
Layer 1
10
4.729157
20
1.057805
70
0
0
VERTEX
8
Layer 1
10
4.729157
20
1.090084
70
0
0
VERTEX
8
Layer 1
10
4.783925
20
1.090084
70
0
0
VERTEX
8
Layer 1
10
4.783925
20
1.184540
70
0
0
VERTEX
8
Layer 1
10
4.822290
20
1.184540
70
0
0
VERTEX
8
Layer 1
10
4.822290
20
1.090084
70
0
0
VERTEX
8
Layer 1
10
5.037925
20
0.880799
70
0
0
SEQEND
8
Layer 1
0
POLYLINE
8
Layer 1
62
7
70
0
10
0.000000
20
0.000000
66
1
0
VERTEX
8
Layer 1
10
5.098779
20
0.880799
70
0
0
VERTEX
8
Layer 1
10
5.202496
20
0.612777
70
0
0
VERTEX
8
Layer 1
10
5.299068
20
0.880799
70
0
0
VERTEX
8
Layer 1
10
5.186621
20
0.698237
70
0
0
VERTEX
8
Layer 1
10
5.050360
20
0.336552
70
0
0
VERTEX
8
Layer 1
10
5.034485
20
0.303479
70
0
0
VERTEX
8
Layer 1
10
5.018346
20
0.282842
70
0
0
VERTEX
8
Layer 1
10
4.997708
20
0.271729
70
0
0
VERTEX
8
Layer 1
10
4.967546
20
0.268554
70
0
0
VERTEX
8
Layer 1
10
4.949554
20
0.269348
70
0
0
VERTEX
8
Layer 1
10
4.938442
20
0.271465
70
0
0
VERTEX
8
Layer 1
10
4.938442
20
0.303744
70
0
0
VERTEX
8
Layer 1
10
4.951406
20
0.301627
70
0
0
VERTEX
8
Layer 1
10
4.964371
20
0.300833
70
0
0
VERTEX
8
Layer 1
10
4.985537
20
0.304537
70
0
0
VERTEX
8
Layer 1
10
4.999825
20
0.314592
70
0
0
VERTEX
8
Layer 1
10
5.010144
20
0.329937
70
0
0
VERTEX
8
Layer 1
10
5.019140
20
0.350046
70
0
0
VERTEX
8
Layer 1
10
5.032633
20
0.385235
70
0
0
VERTEX
8
Layer 1
10
4.907485
20
0.698237
70
0
0
VERTEX
8
Layer 1
10
5.098779
20
0.880799
70
0
0
SEQEND
8
Layer 1
0
POLYLINE
8
Layer 1
62
7
70
0
10
0.000000
20
0.000000
66
1
0
VERTEX
8
Layer 1
10
5.740657
20
0.876566
70
0
0
VERTEX
8
Layer 1
10
5.787224
20
0.840847
70
0
0
VERTEX
8
Layer 1
10
5.815799
20
0.788195
70
0
0
VERTEX
8
Layer 1
10
5.825588
20
0.723901
70
0
0
VERTEX
8
Layer 1
10
5.815799
20
0.659608
70
0
0
VERTEX
8
Layer 1
10
5.787224
20
0.606956
70
0
0
VERTEX
8
Layer 1
10
5.740657
20
0.571237
70
0
0
VERTEX
8
Layer 1
10
5.676893
20
0.558273
70
0
0
VERTEX
8
Layer 1
10
5.613393
20
0.571237
70
0
0
VERTEX
8
Layer 1
10
5.566826
20
0.606956
70
0
0
VERTEX
8
Layer 1
10
5.538251
20
0.659608
70
0
0
VERTEX
8
Layer 1
10
5.528462
20
0.723901
70
0
0
VERTEX
8
Layer 1
10
5.538251
20
0.788195
70
0
0
VERTEX
8
Layer 1
10
5.566826
20
0.840847
70
0
0
VERTEX
8
Layer 1
10
5.613393
20
0.876566
70
0
0
VERTEX
8
Layer 1
10
5.676893
20
0.890060
70
0
0
VERTEX
8
Layer 1
10
5.740657
20
0.876566
70
0
0
SEQEND
8
Layer 1
0
POLYLINE
8
Layer 1
62
7
70
0
10
0.000000
20
0.000000
66
1
0
VERTEX
8
Layer 1
10
5.629003
20
0.846139
70
0
0
VERTEX
8
Layer 1
10
5.594608
20
0.815712
70
0
0
VERTEX
8
Layer 1
10
5.573970
20
0.772849
70
0
0
VERTEX
8
Layer 1
10
5.567091
20
0.723901
70
0
0
VERTEX
8
Layer 1
10
5.573970
20
0.674954
70
0
0
VERTEX
8
Layer 1
10
5.594608
20
0.632091
70
0
0
VERTEX
8
Layer 1
10
5.629003
20
0.601664
70
0
0
VERTEX
8
Layer 1
10
5.677157
20
0.590022
70
0
0
VERTEX
8
Layer 1
10
5.725312
20
0.601664
70
0
0
VERTEX
8
Layer 1
10
5.759972
20
0.632091
70
0
0
VERTEX
8
Layer 1
10
5.780609
20
0.674954
70
0
0
VERTEX
8
Layer 1
10
5.780609
20
0.773114
70
0
0
VERTEX
8
Layer 1
10
5.759972
20
0.815976
70
0
0
VERTEX
8
Layer 1
10
5.725312
20
0.846403
70
0
0
VERTEX
8
Layer 1
10
5.677157
20
0.858045
70
0
0
VERTEX
8
Layer 1
10
5.629003
20
0.846403
70
0
0
SEQEND
8
Layer 1
0
POLYLINE
8
Layer 1
62
7
70
0
10
0.000000
20
0.000000
66
1
0
VERTEX
8
Layer 1
10
6.265325
20
1.057805
70
0
0
VERTEX
8
Layer 1
10
6.265325
20
0.775760
70
0
0
VERTEX
8
Layer 1
10
6.226961
20
0.775760
70
0
0
VERTEX
8
Layer 1
10
6.226961
20
1.057805
70
0
0
VERTEX
8
Layer 1
10
6.173251
20
1.057805
70
0
0
VERTEX
8
Layer 1
10
6.173251
20
1.090084
70
0
0
VERTEX
8
Layer 1
10
6.226961
20
1.090084
70
0
0
VERTEX
8
Layer 1
10
6.226961
20
1.118659
70
0
0
VERTEX
8
Layer 1
10
6.229871
20
1.155701
70
0
0
VERTEX
8
Layer 1
10
6.241513
20
1.184805
70
0
0
VERTEX
8
Layer 1
10
6.265061
20
1.203855
70
0
0
VERTEX
8
Layer 1
10
6.303161
20
1.210734
70
0
0
VERTEX
8
Layer 1
10
6.319036
20
1.210205
70
0
0
VERTEX
8
Layer 1
10
6.335440
20
1.208353
70
0
0
VERTEX
8
Layer 1
10
6.335440
20
1.175545
70
0
0
VERTEX
8
Layer 1
10
6.320623
20
1.177661
70
0
0
VERTEX
8
Layer 1
10
6.307130
20
1.178455
70
0
0
VERTEX
8
Layer 1
10
6.282788
20
1.173428
70
0
0
VERTEX
8
Layer 1
10
6.270353
20
1.160463
70
0
0
VERTEX
8
Layer 1
10
6.265855
20
1.141413
70
0
0
VERTEX
8
Layer 1
10
6.265325
20
1.117601
70
0
0
VERTEX
8
Layer 1
10
6.265325
20
1.089820
70
0
0
VERTEX
8
Layer 1
10
6.327502
20
1.089820
70
0
0
VERTEX
8
Layer 1
10
6.327502
20
1.057541
70
0
0
VERTEX
8
Layer 1
10
6.265325
20
1.057805
70
0
0
SEQEND
8
Layer 1
0
POLYLINE
8
Layer 1
62
7
70
0
10
0.000000
20
0.000000
66
1
0
VERTEX
8
Layer 1
10
6.840529
20
1.123951
70
0
0
VERTEX
8
Layer 1
10
6.810102
20
1.157288
70
0
0
VERTEX
8
Layer 1
10
6.770679
20
1.177661
70
0
0
VERTEX
8
Layer 1
10
6.725435
20
1.184540
70
0
0
VERTEX
8
Layer 1
10
6.651352
20
1.168136
70
0
0
VERTEX
8
Layer 1
10
6.600552
20
1.124480
70
0
0
VERTEX
8
Layer 1
10
6.571448
20
1.063361
70
0
0
VERTEX
8
Layer 1
10
6.562188
20
0.993512
70
0
0
VERTEX
8
Layer 1
10
6.571448
20
0.923926
70
0
0
VERTEX
8
Layer 1
10
6.600552
20
0.862278
70
0
0
VERTEX
8
Layer 1
10
6.651352
20
0.818622
70
0
0
VERTEX
8
Layer 1
10
6.725435
20
0.802218
70
0
0
VERTEX
8
Layer 1
10
6.780204
20
0.813331
70
0
0
VERTEX
8
Layer 1
10
6.822273
20
0.842964
70
0
0
VERTEX
8
Layer 1
10
6.850848
20
0.887149
70
0
0
VERTEX
8
Layer 1
10
6.864871
20
0.941653
70
0
0
VERTEX
8
Layer 1
10
6.230930
20
0.577852
70
0
0
VERTEX
8
Layer 1
10
6.211880
20
0.505356
70
0
0
VERTEX
8
Layer 1
10
6.174044
20
0.450323
70
0
0
VERTEX
8
Layer 1
10
6.119540
20
0.415662
70
0
0
VERTEX
8
Layer 1
10
6.049690
20
0.403491
70
0
0
VERTEX
8
Layer 1
10
5.959997
20
0.422012
70
0
0
VERTEX
8
Layer 1
10
5.895703
20
0.471489
70
0
0
VERTEX
8
Layer 1
10
5.857338
20
0.543191
70
0
0
VERTEX
8
Layer 1
10
5.844374
20
0.628916
70
0
0
VERTEX
8
Layer 1
10
5.857338
20
0.714641
70
0
0
VERTEX
8
Layer 1
10
5.895703
20
0.786872
70
0
0
VERTEX
8
Layer 1
10
5.959997
20
0.836878
70
0
0
VERTEX
8
Layer 1
10
6.049690
20
0.855135
70
0
0
VERTEX
8
Layer 1
10
6.110280
20
0.845874
70
0
0
VERTEX
8
Layer 1
10
6.163726
20
0.818887
70
0
0
VERTEX
8
Layer 1
10
6.203942
20
0.774701
70
0
0
VERTEX
8
Layer 1
10
6.224315
20
0.714376
70
0
0
VERTEX
8
Layer 1
10
6.182776
20
0.714376
70
0
0
VERTEX
8
Layer 1
10
6.164784
20
0.759091
70
0
0
SEQEND
8
Layer 1
0
POLYLINE
8
Layer 1
62
7
70
0
10
0.000000
20
0.000000
66
1
0
VERTEX
8
Layer 1
10
6.482548
20
0.720991
70
0
0
VERTEX
8
Layer 1
10
6.529115
20
0.685272
70
0
0
VERTEX
8
Layer 1
10
6.557690
20
0.632620
70
0
0
VERTEX
8
Layer 1
10
6.567479
20
0.568327
70
0
0
VERTEX
8
Layer 1
10
6.557690
20
0.504033
70
0
0
VERTEX
8
Layer 1
10
6.529115
20
0.451381
70
0
0
VERTEX
8
Layer 1
10
6.482548
20
0.415662
70
0
0
VERTEX
8
Layer 1
10
6.419048
20
0.402698
70
0
0
VERTEX
8
Layer 1
10
6.355548
20
0.415662
70
0
0
VERTEX
8
Layer 1
10
6.308982
20
0.451381
70
0
0
VERTEX
8
Layer 1
10
6.280407
20
0.504033
70
0
0
VERTEX
8
Layer 1
10
6.270882
20
0.568327
70
0
0
VERTEX
8
Layer 1
10
6.280407
20
0.632620
70
0
0
VERTEX
8
Layer 1
10
6.308982
20
0.685272
70
0
0
VERTEX
8
Layer 1
10
6.355548
20
0.720991
70
0
0
VERTEX
8
Layer 1
10
6.419048
20
0.734485
70
0
0
VERTEX
8
Layer 1
10
6.482548
20
0.720991
70
0
0
SEQEND
8
Layer 1
0
POLYLINE
8
Layer 1
62
7
70
0
10
0.000000
20
0.000000
66
1
0
VERTEX
8
Layer 1
10
6.370894
20
0.690564
70
0
0
VERTEX
8
Layer 1
10
6.336234
20
0.660137
70
0
0
VERTEX
8
Layer 1
10
6.315596
20
0.617275
70
0
0
VERTEX
8
Layer 1
10
6.308717
20
0.568327
70
0
0
VERTEX
8
Layer 1
10
6.315596
20
0.519379
70
0
0
VERTEX
8
Layer 1
10
6.336234
20
0.476516
70
0
0
VERTEX
8
Layer 1
10
6.370894
20
0.446089
70
0
0
VERTEX
8
Layer 1
10
6.418784
20
0.434448
70
0
0
VERTEX
8
Layer 1
10
6.466938
20
0.446089
70
0
0
VERTEX
8
Layer 1
10
6.501333
20
0.476516
70
0
0
VERTEX
8
Layer 1
10
6.521971
20
0.519379
70
0
0
VERTEX
8
Layer 1
10
6.521971
20
0.617539
70
0
0
VERTEX
8
Layer 1
10
6.501333
20
0.660402
70
0
0
VERTEX
8
Layer 1
10
6.466938
20
0.690829
70
0
0
VERTEX
8
Layer 1
10
6.418784
20
0.702470
70
0
0
VERTEX
8
Layer 1
10
6.370894
20
0.690829
70
0
0
SEQEND
8
Layer 1
0
POLYLINE
8
Layer 1
62
7
70
0
10
0.000000
20
0.000000
66
1
0
VERTEX
8
Layer 1
10
7.339268
20
1.210470
70
0
0
VERTEX
8
Layer 1
10
7.339268
20
0.775760
70
0
0
VERTEX
8
Layer 1
10
7.300903
20
0.775760
70
0
0
VERTEX
8
Layer 1
10
7.300903
20
1.210470
70
0
0
VERTEX
8
Layer 1
10
7.339268
20
1.210470
70
0
0
SEQEND
8
Layer 1
0
POLYLINE
8
Layer 1
62
7
70
0
10
0.000000
20
0.000000
66
1
0
VERTEX
8
Layer 1
10
7.609142
20
1.085586
70
0
0
VERTEX
8
Layer 1
10
7.655709
20
1.049868
70
0
0
VERTEX
8
Layer 1
10
7.684284
20
0.997216
70
0
0
VERTEX
8
Layer 1
10
7.694074
20
0.932922
70
0
0
VERTEX
8
Layer 1
10
7.684284
20
0.868628
70
0
0
VERTEX
8
Layer 1
10
7.655709
20
0.815976
70
0
0
VERTEX
8
Layer 1
10
7.609142
20
0.780258
70
0
0
VERTEX
8
Layer 1
10
7.545643
20
0.767293
70
0
0
VERTEX
8
Layer 1
10
7.482143
20
0.780258
70
0
0
VERTEX
8
Layer 1
10
7.435576
20
0.815976
70
0
0
VERTEX
8
Layer 1
10
7.407001
20
0.868628
70
0
0
VERTEX
8
Layer 1
10
7.397212
20
0.932922
70
0
0
VERTEX
8
Layer 1
10
7.407001
20
0.997216
70
0
0
VERTEX
8
Layer 1
10
7.435576
20
1.049868
70
0
0
VERTEX
8
Layer 1
10
7.482143
20
1.085586
70
0
0
VERTEX
8
Layer 1
10
7.545643
20
1.099080
70
0
0
VERTEX
8
Layer 1
10
7.609142
20
1.085586
70
0
0
SEQEND
8
Layer 1
0
POLYLINE
8
Layer 1
62
7
70
0
10
0.000000
20
0.000000
66
1
0
VERTEX
8
Layer 1
10
7.497488
20
1.055159
70
0
0
VERTEX
8
Layer 1
10
7.462828
20
1.024732
70
0
0
VERTEX
8
Layer 1
10
7.442191
20
0.981870
70
0
0
VERTEX
8
Layer 1
10
7.435311
20
0.932922
70
0
0
VERTEX
8
Layer 1
10
7.442191
20
0.883974
70
0
0
VERTEX
8
Layer 1
10
7.462828
20
0.841112
70
0
0
VERTEX
8
Layer 1
10
7.497488
20
0.810685
70
0
0
VERTEX
8
Layer 1
10
7.545643
20
0.799043
70
0
0
VERTEX
8
Layer 1
10
7.593797
20
0.810685
70
0
0
VERTEX
8
Layer 1
10
7.628192
20
0.841112
70
0
0
VERTEX
8
Layer 1
10
7.648830
20
0.883974
70
0
0
VERTEX
8
Layer 1
10
7.648830
20
0.982134
70
0
0
VERTEX
8
Layer 1
10
7.628192
20
1.024997
70
0
0
VERTEX
8
Layer 1
10
7.593797
20
1.055424
70
0
0
VERTEX
8
Layer 1
10
7.545643
20
1.067066
70
0
0
VERTEX
8
Layer 1
10
7.497488
20
1.055424
70
0
0
SEQEND
8
Layer 1
0
POLYLINE
8
Layer 1
62
7
70
0
10
0.000000
20
0.000000
66
1
0
VERTEX
8
Layer 1
10
7.786678
20
1.090349
70
0
0
VERTEX
8
Layer 1
10
6.612458
20
0.566475
70
0
0
VERTEX
8
Layer 1
10
6.613517
20
0.566475
70
0
0
VERTEX
8
Layer 1
10
6.658760
20
0.625741
70
0
0
VERTEX
8
Layer 1
10
6.732050
20
0.644791
70
0
0
VERTEX
8
Layer 1
10
6.732050
20
0.606162
70
0
0
VERTEX
8
Layer 1
10
6.684689
20
0.599283
70
0
0
VERTEX
8
Layer 1
10
6.647912
20
0.575735
70
0
0
VERTEX
8
Layer 1
10
6.623835
20
0.539487
70
0
0
VERTEX
8
Layer 1
10
6.615369
20
0.493450
70
0
0
VERTEX
8
Layer 1
10
6.615369
20
0.325969
70
0
0
VERTEX
8
Layer 1
10
6.577004
20
0.325969
70
0
0
VERTEX
8
Layer 1
10
6.577004
20
1.090084
70
0
0
VERTEX
8
Layer 1
10
7.786678
20
1.090349
70
0
0
SEQEND
8
Layer 1
0
POLYLINE
8
Layer 1
62
7
70
0
10
0.000000
20
0.000000
66
1
0
VERTEX
8
Layer 1
10
7.950984
20
1.041666
70
0
0
VERTEX
8
Layer 1
10
7.977442
20
1.074474
70
0
0
VERTEX
8
Layer 1
10
8.016865
20
1.093524
70
0
0
VERTEX
8
Layer 1
10
8.066871
20
1.099609
70
0
0
VERTEX
8
Layer 1
10
8.108411
20
1.095641
70
0
0
VERTEX
8
Layer 1
10
8.145452
20
1.080824
70
0
0
VERTEX
8
Layer 1
10
8.172175
20
1.049868
70
0
0
VERTEX
8
Layer 1
10
8.182494
20
0.998539
70
0
0
VERTEX
8
Layer 1
10
6.830739
20
0.376769
70
0
0
VERTEX
8
Layer 1
10
6.853229
20
0.353750
70
0
0
VERTEX
8
Layer 1
10
6.865400
20
0.356131
70
0
0
VERTEX
8
Layer 1
10
6.865400
20
0.323852
70
0
0
VERTEX
8
Layer 1
10
6.853758
20
0.322000
70
0
0
VERTEX
8
Layer 1
10
6.840793
20
0.321471
70
0
0
VERTEX
8
Layer 1
10
6.817246
20
0.325439
70
0
0
VERTEX
8
Layer 1
10
6.803487
20
0.336552
70
0
0
VERTEX
8
Layer 1
10
6.797137
20
0.354014
70
0
0
VERTEX
8
Layer 1
10
6.795550
20
0.376239
70
0
0
VERTEX
8
Layer 1
10
6.794227
20
0.376239
70
0
0
VERTEX
8
Layer 1
10
6.773325
20
0.348987
70
0
0
VERTEX
8
Layer 1
10
6.749512
20
0.329144
70
0
0
VERTEX
8
Layer 1
10
6.719879
20
0.316973
70
0
0
VERTEX
8
Layer 1
10
6.679927
20
0.312739
70
0
0
VERTEX
8
Layer 1
10
6.638652
20
0.317767
70
0
0
VERTEX
8
Layer 1
10
6.605050
20
0.334171
70
0
0
VERTEX
8
Layer 1
10
6.582560
20
0.362746
70
0
0
VERTEX
8
Layer 1
10
6.574358
20
0.404021
70
0
0
VERTEX
8
Layer 1
10
6.589175
20
0.455350
70
0
0
VERTEX
8
Layer 1
10
6.627804
20
0.483660
70
0
0
VERTEX
8
Layer 1
10
6.682044
20
0.497154
70
0
0
VERTEX
8
Layer 1
10
6.743162
20
0.504827
70
0
0
VERTEX
8
Layer 1
10
6.764594
20
0.508002
70
0
0
VERTEX
8
Layer 1
10
6.779939
20
0.514352
70
0
0
VERTEX
8
Layer 1
10
6.789464
20
0.526787
70
0
0
VERTEX
8
Layer 1
10
6.792639
20
0.547425
70
0
0
VERTEX
8
Layer 1
10
6.786289
20
0.579439
70
0
0
VERTEX
8
Layer 1
10
6.768562
20
0.599283
70
0
0
VERTEX
8
Layer 1
10
6.742369
20
0.609337
70
0
0
VERTEX
8
Layer 1
10
6.710354
20
0.611983
70
0
0
VERTEX
8
Layer 1
10
6.650558
20
0.594520
70
0
0
VERTEX
8
Layer 1
10
6.626217
20
0.538958
70
0
0
VERTEX
8
Layer 1
10
6.587852
20
0.538958
70
0
0
VERTEX
8
Layer 1
10
6.599494
20
0.586583
70
0
0
SEQEND
8
Layer 1
0
POLYLINE
8
Layer 1
62
7
70
0
10
0.000000
20
0.000000
66
1
0
VERTEX
8
Layer 1
10
6.791316
20
0.492656
70
0
0
VERTEX
8
Layer 1
10
6.777294
20
0.482866
70
0
0
VERTEX
8
Layer 1
10
6.759037
20
0.478633
70
0
0
VERTEX
8
Layer 1
10
6.708767
20
0.471225
70
0
0
VERTEX
8
Layer 1
10
6.661671
20
0.461171
70
0
0
VERTEX
8
Layer 1
10
6.626481
20
0.442121
70
0
0
VERTEX
8
Layer 1
10
6.612988
20
0.406402
70
0
0
VERTEX
8
Layer 1
10
6.618808
20
0.380473
70
0
0
VERTEX
8
Layer 1
10
6.634419
20
0.360894
70
0
0
VERTEX
8
Layer 1
10
6.656908
20
0.348458
70
0
0
VERTEX
8
Layer 1
10
6.683102
20
0.344225
70
0
0
VERTEX
8
Layer 1
10
6.725171
20
0.350839
70
0
0
VERTEX
8
Layer 1
10
6.760360
20
0.370419
70
0
0
VERTEX
8
Layer 1
10
6.784173
20
0.401375
70
0
0
VERTEX
8
Layer 1
10
6.792904
20
0.442650
70
0
0
VERTEX
8
Layer 1
10
6.792904
20
0.492656
70
0
0
VERTEX
8
Layer 1
10
6.791316
20
0.492656
70
0
0
SEQEND
8
Layer 1
0
POLYLINE
8
Layer 1
62
7
70
0
10
0.000000
20
0.000000
66
1
0
VERTEX
8
Layer 1
10
7.148768
20
0.320942
70
0
0
VERTEX
8
Layer 1
10
6.956681
20
0.474664
70
0
0
VERTEX
8
Layer 1
10
6.955358
20
0.474664
70
0
0
VERTEX
8
Layer 1
10
6.937366
20
0.446618
70
0
0
VERTEX
8
Layer 1
10
6.910114
20
0.424923
70
0
0
VERTEX
8
Layer 1
10
6.877571
20
0.411164
70
0
0
VERTEX
8
Layer 1
10
6.843175
20
0.406402
70
0
0
VERTEX
8
Layer 1
10
6.780733
20
0.419366
70
0
0
VERTEX
8
Layer 1
10
6.736548
20
0.455085
70
0
0
VERTEX
8
Layer 1
10
6.710354
20
0.508002
70
0
0
VERTEX
8
Layer 1
10
6.701887
20
0.571502
70
0
0
VERTEX
8
Layer 1
10
6.710354
20
0.635002
70
0
0
VERTEX
8
Layer 1
10
6.736548
20
0.688183
70
0
0
VERTEX
8
Layer 1
10
6.780733
20
0.724431
70
0
0
VERTEX
8
Layer 1
10
6.843175
20
0.737924
70
0
0
VERTEX
8
Layer 1
10
6.877571
20
0.733691
70
0
0
VERTEX
8
Layer 1
10
6.909056
20
0.720726
70
0
0
VERTEX
8
Layer 1
10
6.934985
20
0.699031
70
0
0
VERTEX
8
Layer 1
10
6.952183
20
0.669397
70
0
0
VERTEX
8
Layer 1
10
6.953506
20
0.669397
70
0
0
VERTEX
8
Layer 1
10
6.953506
20
1.210470
70
0
0
VERTEX
8
Layer 1
10
6.991870
20
1.210470
70
0
0
VERTEX
8
Layer 1
10
6.991870
20
0.775760
70
0
0
VERTEX
8
Layer 1
10
7.148768
20
0.320942
70
0
0
SEQEND
8
Layer 1
0
POLYLINE
8
Layer 1
62
7
70
0
10
0.000000
20
0.000000
66
1
0
VERTEX
8
Layer 1
10
6.938425
20
0.429685
70
0
0
VERTEX
8
Layer 1
10
6.956681
20
0.386823
70
0
0
VERTEX
8
Layer 1
10
6.988695
20
0.355867
70
0
0
VERTEX
8
Layer 1
10
7.035527
20
0.344225
70
0
0
VERTEX
8
Layer 1
10
7.086856
20
0.355867
70
0
0
VERTEX
8
Layer 1
10
7.120987
20
0.386823
70
0
0
VERTEX
8
Layer 1
10
7.140037
20
0.429685
70
0
0
VERTEX
8
Layer 1
10
7.145858
20
0.478104
70
0
0
VERTEX
8
Layer 1
10
7.140037
20
0.526523
70
0
0
VERTEX
8
Layer 1
10
7.120987
20
0.569385
70
0
0
VERTEX
8
Layer 1
10
7.086856
20
0.600341
70
0
0
VERTEX
8
Layer 1
10
7.035527
20
0.612247
70
0
0
VERTEX
8
Layer 1
10
6.988695
20
0.600341
70
0
0
VERTEX
8
Layer 1
10
6.956681
20
0.569385
70
0
0
VERTEX
8
Layer 1
10
6.938425
20
0.526523
70
0
0
VERTEX
8
Layer 1
10
6.932604
20
0.478104
70
0
0
VERTEX
8
Layer 1
10
6.938425
20
0.429685
70
0
0
SEQEND
8
Layer 1
0
POLYLINE
8
Layer 1
62
7
70
0
10
0.000000
20
0.000000
66
1
0
VERTEX
8
Layer 1
10
8.805322
20
1.085586
70
0
0
VERTEX
8
Layer 1
10
8.851889
20
1.049868
70
0
0
VERTEX
8
Layer 1
10
8.880464
20
0.997216
70
0
0
VERTEX
8
Layer 1
10
8.889989
20
0.932922
70
0
0
VERTEX
8
Layer 1
10
8.880464
20
0.868628
70
0
0
VERTEX
8
Layer 1
10
8.851889
20
0.815976
70
0
0
VERTEX
8
Layer 1
10
8.805322
20
0.780258
70
0
0
VERTEX
8
Layer 1
10
8.741822
20
0.767293
70
0
0
VERTEX
8
Layer 1
10
8.678322
20
0.780258
70
0
0
VERTEX
8
Layer 1
10
8.631756
20
0.815976
70
0
0
VERTEX
8
Layer 1
10
8.603181
20
0.868628
70
0
0
VERTEX
8
Layer 1
10
8.593391
20
0.932922
70
0
0
VERTEX
8
Layer 1
10
8.603181
20
0.997216
70
0
0
VERTEX
8
Layer 1
10
8.631756
20
1.049868
70
0
0
VERTEX
8
Layer 1
10
8.678322
20
1.085586
70
0
0
VERTEX
8
Layer 1
10
8.741822
20
1.099080
70
0
0
VERTEX
8
Layer 1
10
8.805322
20
1.085586
70
0
0
SEQEND
8
Layer 1
0
POLYLINE
8
Layer 1
62
7
70
0
10
0.000000
20
0.000000
66
1
0
VERTEX
8
Layer 1
10
8.693668
20
1.055159
70
0
0
VERTEX
8
Layer 1
10
8.659272
20
1.024732
70
0
0
VERTEX
8
Layer 1
10
8.638635
20
0.981870
70
0
0
VERTEX
8
Layer 1
10
8.631756
20
0.932922
70
0
0
VERTEX
8
Layer 1
10
8.638635
20
0.883974
70
0
0
VERTEX
8
Layer 1
10
8.659272
20
0.841112
70
0
0
VERTEX
8
Layer 1
10
8.693668
20
0.810685
70
0
0
VERTEX
8
Layer 1
10
8.741822
20
0.799043
70
0
0
VERTEX
8
Layer 1
10
8.789976
20
0.810685
70
0
0
VERTEX
8
Layer 1
10
8.824637
20
0.841112
70
0
0
VERTEX
8
Layer 1
10
8.845274
20
0.883974
70
0
0
VERTEX
8
Layer 1
10
8.845274
20
0.982134
70
0
0
VERTEX
8
Layer 1
10
8.824637
20
1.024997
70
0
0
VERTEX
8
Layer 1
10
8.789976
20
1.055424
70
0
0
VERTEX
8
Layer 1
10
8.741822
20
1.067066
70
0
0
VERTEX
8
Layer 1
10
8.693668
20
1.055424
70
0
0
SEQEND
8
Layer 1
0
POLYLINE
8
Layer 1
62
7
70
0
10
0.000000
20
0.000000
66
1
0
VERTEX
8
Layer 1
10
3.491437
20
0.473077
70
0
0
VERTEX
8
Layer 1
10
3.461010
20
0.506414
70
0
0
VERTEX
8
Layer 1
10
3.421587
20
0.526787
70
0
0
VERTEX
8
Layer 1
10
3.376344
20
0.533666
70
0
0
VERTEX
8
Layer 1
10
3.302260
20
0.517262
70
0
0
VERTEX
8
Layer 1
10
3.251460
20
0.473606
70
0
0
VERTEX
8
Layer 1
10
3.222356
20
0.412487
70
0
0
VERTEX
8
Layer 1
10
3.213096
20
0.342637
70
0
0
VERTEX
8
Layer 1
10
3.222356
20
0.272787
70
0
0
VERTEX
8
Layer 1
10
3.251460
20
0.211140
70
0
0
VERTEX
8
Layer 1
10
3.302260
20
0.167483
70
0
0
VERTEX
8
Layer 1
10
3.376344
20
0.151079
70
0
0
VERTEX
8
Layer 1
10
3.431112
20
0.162192
70
0
0
VERTEX
8
Layer 1
10
3.473181
20
0.191825
70
0
0
VERTEX
8
Layer 1
10
3.501756
20
0.236010
70
0
0
VERTEX
8
Layer 1
10
3.515779
20
0.290250
70
0
0
VERTEX
8
Layer 1
10
3.557054
20
0.290250
70
0
0
VERTEX
8
Layer 1
10
3.538004
20
0.217754
70
0
0
VERTEX
8
Layer 1
10
3.500169
20
0.162985
70
0
0
VERTEX
8
Layer 1
10
3.445664
20
0.128325
70
0
0
VERTEX
8
Layer 1
10
3.375814
20
0.116154
70
0
0
VERTEX
8
Layer 1
10
3.286121
20
0.134675
70
0
0
VERTEX
8
Layer 1
10
3.221827
20
0.184152
70
0
0
VERTEX
8
Layer 1
10
3.183463
20
0.255854
70
0
0
VERTEX
8
Layer 1
10
3.170498
20
0.341579
70
0
0
VERTEX
8
Layer 1
10
3.183463
20
0.427304
70
0
0
VERTEX
8
Layer 1
10
3.221827
20
0.499535
70
0
0
VERTEX
8
Layer 1
10
3.286121
20
0.549541
70
0
0
VERTEX
8
Layer 1
10
3.375814
20
0.568062
70
0
0
VERTEX
8
Layer 1
10
3.436404
20
0.558802
70
0
0
VERTEX
8
Layer 1
10
3.490114
20
0.531550
70
0
0
VERTEX
8
Layer 1
10
3.530331
20
0.487364
70
0
0
VERTEX
8
Layer 1
10
3.550704
20
0.427039
70
0
0
VERTEX
8
Layer 1
10
3.509429
20
0.427039
70
0
0
VERTEX
8
Layer 1
10
3.491437
20
0.471754
70
0
0
SEQEND
8
Layer 1
0
POLYLINE
8
Layer 1
62
7
70
0
10
0.000000
20
0.000000
66
1
0
VERTEX
8
Layer 1
10
3.809201
20
0.433654
70
0
0
VERTEX
8
Layer 1
10
3.855768
20
0.397671
70
0
0
VERTEX
8
Layer 1
10
3.884343
20
0.345019
70
0
0
VERTEX
8
Layer 1
10
3.894133
20
0.280725
70
0
0
VERTEX
8
Layer 1
10
3.884343
20
0.216431
70
0
0
VERTEX
8
Layer 1
10
3.855768
20
0.163779
70
0
0
VERTEX
8
Layer 1
10
3.809201
20
0.128061
70
0
0
VERTEX
8
Layer 1
10
3.745702
20
0.115096
70
0
0
VERTEX
8
Layer 1
10
3.682202
20
0.128061
70
0
0
VERTEX
8
Layer 1
10
3.635635
20
0.163779
70
0
0
VERTEX
8
Layer 1
10
3.607060
20
0.216431
70
0
0
VERTEX
8
Layer 1
10
3.597270
20
0.280725
70
0
0
VERTEX
8
Layer 1
10
3.607060
20
0.345019
70
0
0
VERTEX
8
Layer 1
10
3.635635
20
0.397671
70
0
0
VERTEX
8
Layer 1
10
3.682202
20
0.433654
70
0
0
VERTEX
8
Layer 1
10
3.745702
20
0.447148
70
0
0
VERTEX
8
Layer 1
10
3.809201
20
0.433654
70
0
0
SEQEND
8
Layer 1
0
POLYLINE
8
Layer 1
62
7
70
0
10
0.000000
20
0.000000
66
1
0
VERTEX
8
Layer 1
10
3.697547
20
0.403227
70
0
0
VERTEX
8
Layer 1
10
3.663152
20
0.372800
70
0
0
VERTEX
8
Layer 1
10
3.642514
20
0.329937
70
0
0
VERTEX
8
Layer 1
10
3.635635
20
0.280990
70
0
0
VERTEX
8
Layer 1
10
3.642514
20
0.232042
70
0
0
VERTEX
8
Layer 1
10
3.663152
20
0.189179
70
0
0
VERTEX
8
Layer 1
10
3.697547
20
0.158752
70
0
0
VERTEX
8
Layer 1
10
3.745702
20
0.147111
70
0
0
VERTEX
8
Layer 1
10
3.793856
20
0.158752
70
0
0
VERTEX
8
Layer 1
10
3.828251
20
0.189179
70
0
0
VERTEX
8
Layer 1
10
3.848889
20
0.232042
70
0
0
VERTEX
8
Layer 1
10
3.848889
20
0.330202
70
0
0
VERTEX
8
Layer 1
10
3.828251
20
0.373064
70
0
0
VERTEX
8
Layer 1
10
3.793856
20
0.403491
70
0
0
VERTEX
8
Layer 1
10
3.745702
20
0.415133
70
0
0
VERTEX
8
Layer 1
10
3.697547
20
0.403491
70
0
0
SEQEND
8
Layer 1
0
POLYLINE
8
Layer 1
62
7
70
0
10
0.000000
20
0.000000
66
1
0
VERTEX
8
Layer 1
10
3.990441
20
0.558802
70
0
0
VERTEX
8
Layer 1
10
3.990441
20
0.124092
70
0
0
VERTEX
8
Layer 1
10
3.952076
20
0.124092
70
0
0
VERTEX
8
Layer 1
10
3.952076
20
0.559860
70
0
0
VERTEX
8
Layer 1
10
3.990441
20
0.558802
70
0
0
SEQEND
8
Layer 1
0
POLYLINE
8
Layer 1
62
7
70
0
10
0.000000
20
0.000000
66
1
0
VERTEX
8
Layer 1
10
4.260315
20
0.433918
70
0
0
VERTEX
8
Layer 1
10
4.306882
20
0.397935
70
0
0
VERTEX
8
Layer 1
10
4.335457
20
0.345283
70
0
0
VERTEX
8
Layer 1
10
4.345247
20
0.280990
70
0
0
VERTEX
8
Layer 1
10
4.335457
20
0.216696
70
0
0
VERTEX
8
Layer 1
10
4.306882
20
0.164044
70
0
0
VERTEX
8
Layer 1
10
4.260315
20
0.128325
70
0
0
VERTEX
8
Layer 1
10
4.196816
20
0.115361
70
0
0
VERTEX
8
Layer 1
10
4.133316
20
0.128325
70
0
0
VERTEX
8
Layer 1
10
4.086749
20
0.164044
70
0
0
VERTEX
8
Layer 1
10
4.058174
20
0.216696
70
0
0
VERTEX
8
Layer 1
10
4.048649
20
0.280990
70
0
0
VERTEX
8
Layer 1
10
4.058174
20
0.345283
70
0
0
VERTEX
8
Layer 1
10
4.086749
20
0.397935
70
0
0
VERTEX
8
Layer 1
10
4.133316
20
0.433918
70
0
0
VERTEX
8
Layer 1
10
4.196816
20
0.447412
70
0
0
VERTEX
8
Layer 1
10
4.260315
20
0.433918
70
0
0
SEQEND
8
Layer 1
0
POLYLINE
8
Layer 1
62
7
70
0
10
0.000000
20
0.000000
66
1
0
VERTEX
8
Layer 1
10
4.148661
20
0.403491
70
0
0
VERTEX
8
Layer 1
10
4.114266
20
0.373064
70
0
0
VERTEX
8
Layer 1
10
4.093628
20
0.330202
70
0
0
VERTEX
8
Layer 1
10
4.093628
20
0.232042
70
0
0
VERTEX
8
Layer 1
10
4.114266
20
0.189179
70
0
0
VERTEX
8
Layer 1
10
4.148661
20
0.158752
70
0
0
VERTEX
8
Layer 1
10
4.196816
20
0.147111
70
0
0
VERTEX
8
Layer 1
10
4.244970
20
0.158752
70
0
0
VERTEX
8
Layer 1
10
4.279365
20
0.189179
70
0
0
VERTEX
8
Layer 1
10
4.300003
20
0.232042
70
0
0
VERTEX
8
Layer 1
10
4.306882
20
0.280990
70
0
0
VERTEX
8
Layer 1
10
4.300003
20
0.329937
70
0
0
VERTEX
8
Layer 1
10
4.279365
20
0.372800
70
0
0
VERTEX
8
Layer 1
10
4.244970
20
0.403227
70
0
0
VERTEX
8
Layer 1
10
4.196816
20
0.414869
70
0
0
VERTEX
8
Layer 1
10
4.148661
20
0.403227
70
0
0
SEQEND
8
Layer 1
0
POLYLINE
8
Layer 1
62
7
70
0
10
0.000000
20
0.000000
66
1
0
VERTEX
8
Layer 1
10
4.437851
20
0.437887
70
0
0
VERTEX
8
Layer 1
10
7.193747
20
0.329144
70
0
0
VERTEX
8
Layer 1
10
7.195070
20
0.329144
70
0
0
VERTEX
8
Layer 1
10
7.240314
20
0.388410
70
0
0
VERTEX
8
Layer 1
10
7.313603
20
0.407460
70
0
0
VERTEX
8
Layer 1
10
7.313603
20
0.369096
70
0
0
VERTEX
8
Layer 1
10
7.266243
20
0.362216
70
0
0
VERTEX
8
Layer 1
10
7.229201
20
0.338669
70
0
0
VERTEX
8
Layer 1
10
7.205124
20
0.302421
70
0
0
VERTEX
8
Layer 1
10
7.196658
20
0.256383
70
0
0
VERTEX
8
Layer 1
10
7.196658
20
0.088902
70
0
0
VERTEX
8
Layer 1
10
7.158293
20
0.088902
70
0
0
VERTEX
8
Layer 1
10
7.158293
20
0.439210
70
0
0
VERTEX
8
Layer 1
10
4.437851
20
0.437887
70
0
0
SEQEND
8
Layer 1
0
POLYLINE
8
Layer 1
62
7
70
0
10
0.000000
20
0.000000
66
1
0
VERTEX
8
Layer 1
10
4.602157
20
0.389204
70
0
0
VERTEX
8
Layer 1
10
4.628615
20
0.422012
70
0
0
VERTEX
8
Layer 1
10
4.668038
20
0.441062
70
0
0
VERTEX
8
Layer 1
10
4.717779
20
0.447148
70
0
0
VERTEX
8
Layer 1
10
4.759319
20
0.443179
70
0
0
VERTEX
8
Layer 1
10
4.796361
20
0.428362
70
0
0
VERTEX
8
Layer 1
10
4.823084
20
0.397406
70
0
0
VERTEX
8
Layer 1
10
4.833402
20
0.346077
70
0
0
VERTEX
8
Layer 1
10
7.411764
20
0.140231
70
0
0
VERTEX
8
Layer 1
10
7.434253
20
0.117213
70
0
0
VERTEX
8
Layer 1
10
7.446424
20
0.119858
70
0
0
VERTEX
8
Layer 1
10
7.446424
20
0.087579
70
0
0
VERTEX
8
Layer 1
10
7.434782
20
0.085727
70
0
0
VERTEX
8
Layer 1
10
7.421818
20
0.085198
70
0
0
VERTEX
8
Layer 1
10
7.398270
20
0.089167
70
0
0
VERTEX
8
Layer 1
10
7.384512
20
0.100279
70
0
0
VERTEX
8
Layer 1
10
7.378162
20
0.117477
70
0
0
VERTEX
8
Layer 1
10
7.376574
20
0.139702
70
0
0
VERTEX
8
Layer 1
10
7.375516
20
0.139702
70
0
0
VERTEX
8
Layer 1
10
7.354349
20
0.112715
70
0
0
VERTEX
8
Layer 1
10
7.330537
20
0.092871
70
0
0
VERTEX
8
Layer 1
10
7.300903
20
0.080700
70
0
0
VERTEX
8
Layer 1
10
7.260951
20
0.076467
70
0
0
VERTEX
8
Layer 1
10
7.219676
20
0.081494
70
0
0
VERTEX
8
Layer 1
10
7.186339
20
0.097898
70
0
0
VERTEX
8
Layer 1
10
7.163849
20
0.126473
70
0
0
VERTEX
8
Layer 1
10
7.155647
20
0.167483
70
0
0
VERTEX
8
Layer 1
10
7.170464
20
0.218813
70
0
0
VERTEX
8
Layer 1
10
7.209093
20
0.247123
70
0
0
VERTEX
8
Layer 1
10
7.263333
20
0.260617
70
0
0
VERTEX
8
Layer 1
10
7.324451
20
0.268290
70
0
0
VERTEX
8
Layer 1
10
7.345882
20
0.271465
70
0
0
VERTEX
8
Layer 1
10
7.361228
20
0.277815
70
0
0
VERTEX
8
Layer 1
10
7.370489
20
0.290250
70
0
0
VERTEX
8
Layer 1
10
7.373664
20
0.310887
70
0
0
VERTEX
8
Layer 1
10
7.367314
20
0.342902
70
0
0
VERTEX
8
Layer 1
10
7.349587
20
0.362746
70
0
0
VERTEX
8
Layer 1
10
7.323393
20
0.372800
70
0
0
VERTEX
8
Layer 1
10
7.291378
20
0.375446
70
0
0
VERTEX
8
Layer 1
10
7.231583
20
0.357983
70
0
0
VERTEX
8
Layer 1
10
7.207241
20
0.302421
70
0
0
VERTEX
8
Layer 1
10
7.168876
20
0.302421
70
0
0
VERTEX
8
Layer 1
10
7.180518
20
0.350046
70
0
0
SEQEND
8
Layer 1
0
POLYLINE
8
Layer 1
62
7
70
0
10
0.000000
20
0.000000
66
1
0
VERTEX
8
Layer 1
10
7.372341
20
0.256119
70
0
0
VERTEX
8
Layer 1
10
7.358318
20
0.246329
70
0
0
VERTEX
8
Layer 1
10
7.340062
20
0.242096
70
0
0
VERTEX
8
Layer 1
10
7.289791
20
0.234423
70
0
0
VERTEX
8
Layer 1
10
7.242695
20
0.224369
70
0
0
VERTEX
8
Layer 1
10
7.207506
20
0.205319
70
0
0
VERTEX
8
Layer 1
10
7.194012
20
0.169600
70
0
0
VERTEX
8
Layer 1
10
7.199833
20
0.143671
70
0
0
VERTEX
8
Layer 1
10
7.215443
20
0.124092
70
0
0
VERTEX
8
Layer 1
10
7.237933
20
0.111656
70
0
0
VERTEX
8
Layer 1
10
7.264126
20
0.107423
70
0
0
VERTEX
8
Layer 1
10
7.306195
20
0.114302
70
0
0
VERTEX
8
Layer 1
10
7.341385
20
0.133881
70
0
0
VERTEX
8
Layer 1
10
7.365197
20
0.164838
70
0
0
VERTEX
8
Layer 1
10
7.373928
20
0.206113
70
0
0
VERTEX
8
Layer 1
10
7.373928
20
0.256119
70
0
0
VERTEX
8
Layer 1
10
7.372341
20
0.256119
70
0
0
SEQEND
8
Layer 1
0
POLYLINE
8
Layer 1
62
7
70
0
10
0.000000
20
0.000000
66
1
0
VERTEX
8
Layer 1
10
7.729792
20
0.084404
70
0
0
VERTEX
8
Layer 1
10
7.537970
20
0.238127
70
0
0
VERTEX
8
Layer 1
10
7.536647
20
0.238127
70
0
0
VERTEX
8
Layer 1
10
7.518655
20
0.210081
70
0
0
VERTEX
8
Layer 1
10
7.491403
20
0.188385
70
0
0
VERTEX
8
Layer 1
10
7.458859
20
0.174892
70
0
0
VERTEX
8
Layer 1
10
7.424199
20
0.170129
70
0
0
VERTEX
8
Layer 1
10
7.361757
20
0.183094
70
0
0
VERTEX
8
Layer 1
10
7.317572
20
0.218813
70
0
0
VERTEX
8
Layer 1
10
7.291378
20
0.271994
70
0
0
VERTEX
8
Layer 1
10
7.282912
20
0.335494
70
0
0
VERTEX
8
Layer 1
10
7.291378
20
0.398994
70
0
0
VERTEX
8
Layer 1
10
7.317572
20
0.451910
70
0
0
VERTEX
8
Layer 1
10
7.361757
20
0.488158
70
0
0
VERTEX
8
Layer 1
10
7.424199
20
0.501652
70
0
0
VERTEX
8
Layer 1
10
7.458859
20
0.497418
70
0
0
VERTEX
8
Layer 1
10
7.490345
20
0.484454
70
0
0
VERTEX
8
Layer 1
10
7.516274
20
0.462758
70
0
0
VERTEX
8
Layer 1
10
7.533736
20
0.432860
70
0
0
VERTEX
8
Layer 1
10
7.534795
20
0.432860
70
0
0
VERTEX
8
Layer 1
10
7.534795
20
0.613570
70
0
0
VERTEX
8
Layer 1
10
7.573159
20
0.613570
70
0
0
VERTEX
8
Layer 1
10
7.573159
20
0.124886
70
0
0
VERTEX
8
Layer 1
10
7.729792
20
0.084404
70
0
0
SEQEND
8
Layer 1
0
POLYLINE
8
Layer 1
62
7
70
0
10
0.000000
20
0.000000
66
1
0
VERTEX
8
Layer 1
10
7.519184
20
0.193148
70
0
0
VERTEX
8
Layer 1
10
7.537441
20
0.150286
70
0
0
VERTEX
8
Layer 1
10
7.569455
20
0.119858
70
0
0
VERTEX
8
Layer 1
10
7.616286
20
0.107952
70
0
0
VERTEX
8
Layer 1
10
7.667615
20
0.119858
70
0
0
VERTEX
8
Layer 1
10
7.701747
20
0.150550
70
0
0
VERTEX
8
Layer 1
10
7.720797
20
0.193413
70
0
0
VERTEX
8
Layer 1
10
7.726617
20
0.241831
70
0
0
VERTEX
8
Layer 1
10
7.720797
20
0.290250
70
0
0
VERTEX
8
Layer 1
10
7.701747
20
0.333112
70
0
0
VERTEX
8
Layer 1
10
7.667615
20
0.364069
70
0
0
VERTEX
8
Layer 1
10
7.616286
20
0.375710
70
0
0
VERTEX
8
Layer 1
10
7.569455
20
0.364069
70
0
0
VERTEX
8
Layer 1
10
7.537441
20
0.333112
70
0
0
VERTEX
8
Layer 1
10
7.519184
20
0.290250
70
0
0
VERTEX
8
Layer 1
10
7.519184
20
0.193413
70
0
0
SEQEND
8
Layer 1
0
POLYLINE
8
Layer 1
62
7
70
0
10
0.000000
20
0.000000
66
1
0
VERTEX
8
Layer 1
10
8.034327
20
0.394760
70
0
0
VERTEX
8
Layer 1
10
8.080894
20
0.358777
70
0
0
VERTEX
8
Layer 1
10
8.109469
20
0.306125
70
0
0
VERTEX
8
Layer 1
10
8.119259
20
0.241831
70
0
0
VERTEX
8
Layer 1
10
8.109469
20
0.177538
70
0
0
VERTEX
8
Layer 1
10
8.080894
20
0.124886
70
0
0
VERTEX
8
Layer 1
10
8.034327
20
0.089167
70
0
0
VERTEX
8
Layer 1
10
7.970827
20
0.076202
70
0
0
VERTEX
8
Layer 1
10
7.907063
20
0.089167
70
0
0
VERTEX
8
Layer 1
10
7.860496
20
0.124886
70
0
0
VERTEX
8
Layer 1
10
7.831921
20
0.177538
70
0
0
VERTEX
8
Layer 1
10
7.822132
20
0.241831
70
0
0
VERTEX
8
Layer 1
10
7.831921
20
0.306125
70
0
0
VERTEX
8
Layer 1
10
7.860496
20
0.358777
70
0
0
VERTEX
8
Layer 1
10
7.907063
20
0.394760
70
0
0
VERTEX
8
Layer 1
10
7.970827
20
0.408254
70
0
0
VERTEX
8
Layer 1
10
8.034327
20
0.394760
70
0
0
SEQEND
8
Layer 1
0
POLYLINE
8
Layer 1
62
7
70
0
10
0.000000
20
0.000000
66
1
0
VERTEX
8
Layer 1
10
7.922673
20
0.364333
70
0
0
VERTEX
8
Layer 1
10
7.888278
20
0.333906
70
0
0
VERTEX
8
Layer 1
10
7.867640
20
0.291044
70
0
0
VERTEX
8
Layer 1
10
7.860761
20
0.242096
70
0
0
VERTEX
8
Layer 1
10
7.867640
20
0.193148
70
0
0
VERTEX
8
Layer 1
10
7.888278
20
0.150286
70
0
0
VERTEX
8
Layer 1
10
7.922673
20
0.119858
70
0
0
VERTEX
8
Layer 1
10
7.970827
20
0.108217
70
0
0
VERTEX
8
Layer 1
10
8.018982
20
0.119858
70
0
0
VERTEX
8
Layer 1
10
8.053377
20
0.150286
70
0
0
VERTEX
8
Layer 1
10
8.074015
20
0.193148
70
0
0
VERTEX
8
Layer 1
10
8.074015
20
0.291308
70
0
0
VERTEX
8
Layer 1
10
8.053377
20
0.334171
70
0
0
VERTEX
8
Layer 1
10
8.018982
20
0.364598
70
0
0
VERTEX
8
Layer 1
10
7.970827
20
0.376239
70
0
0
VERTEX
8
Layer 1
10
7.922673
20
0.364598
70
0
0
SEQEND
8
Layer 1
0
POLYLINE
8
Layer 1
62
7
70
0
10
0.000000
20
0.000000
66
1
0
VERTEX
8
Layer 1
10
8.383048
20
0.172246
70
0
0
VERTEX
8
Layer 1
10
8.413210
20
0.136263
70
0
0
VERTEX
8
Layer 1
10
8.458454
20
0.117213
70
0
0
VERTEX
8
Layer 1
10
8.514546
20
0.111392
70
0
0
VERTEX
8
Layer 1
10
8.551587
20
0.116419
70
0
0
VERTEX
8
Layer 1
10
8.589158
20
0.131765
70
0
0
VERTEX
8
Layer 1
10
8.617997
20
0.159017
70
0
0
VERTEX
8
Layer 1
10
8.629639
20
0.199498
70
0
0
VERTEX
8
Layer 1
10
8.621437
20
0.230983
70
0
0
VERTEX
8
Layer 1
10
8.600006
20
0.253473
70
0
0
VERTEX
8
Layer 1
10
8.570902
20
0.268290
70
0
0
VERTEX
8
Layer 1
10
8.539945
20
0.277550
70
0
0
VERTEX
8
Layer 1
10
8.443108
20
0.301362
70
0
0
VERTEX
8
Layer 1
10
8.406066
20
0.313533
70
0
0
VERTEX
8
Layer 1
10
8.374581
20
0.333112
70
0
0
VERTEX
8
Layer 1
10
8.353150
20
0.362746
70
0
0
VERTEX
8
Layer 1
10
8.344948
20
0.405873
70
0
0
VERTEX
8
Layer 1
10
8.351033
20
0.443179
70
0
0
VERTEX
8
Layer 1
10
8.373787
20
0.483131
70
0
0
VERTEX
8
Layer 1
10
8.419825
20
0.515145
70
0
0
VERTEX
8
Layer 1
10
8.494702
20
0.528110
70
0
0
VERTEX
8
Layer 1
10
8.556350
20
0.519643
70
0
0
VERTEX
8
Layer 1
10
8.607414
20
0.493979
70
0
0
VERTEX
8
Layer 1
10
8.642604
20
0.451646
70
0
0
VERTEX
8
Layer 1
10
8.655568
20
0.392908
70
0
0
VERTEX
8
Layer 1
10
8.422471
20
0.486835
70
0
0
VERTEX
8
Layer 1
10
8.411358
20
0.530491
70
0
0
VERTEX
8
Layer 1
10
8.385164
20
0.561447
70
0
0
VERTEX
8
Layer 1
10
8.348123
20
0.580497
70
0
0
VERTEX
8
Layer 1
10
8.303937
20
0.586847
70
0
0
VERTEX
8
Layer 1
10
8.262663
20
0.582350
70
0
0
VERTEX
8
Layer 1
10
8.228002
20
0.567797
70
0
0
VERTEX
8
Layer 1
10
8.203925
20
0.541339
70
0
0
VERTEX
8
Layer 1
10
8.194665
20
0.500593
70
0
0
VERTEX
8
Layer 1
10
8.199692
20
0.473871
70
0
0
VERTEX
8
Layer 1
10
8.213979
20
0.454821
70
0
0
VERTEX
8
Layer 1
10
8.234881
20
0.441856
70
0
0
VERTEX
8
Layer 1
10
8.260281
20
0.433918
70
0
0
VERTEX
8
Layer 1
10
8.366379
20
0.407725
70
0
0
VERTEX
8
Layer 1
10
8.410035
20
0.392908
70
0
0
VERTEX
8
Layer 1
10
8.446019
20
0.370948
70
0
0
VERTEX
8
Layer 1
10
8.470360
20
0.338933
70
0
0
VERTEX
8
Layer 1
10
8.479091
20
0.293160
70
0
0
VERTEX
8
Layer 1
10
8.477504
20
0.273581
70
0
0
VERTEX
8
Layer 1
10
8.470096
20
0.247652
70
0
0
VERTEX
8
Layer 1
10
8.453691
20
0.219871
70
0
0
VERTEX
8
Layer 1
10
8.424587
20
0.194471
70
0
0
VERTEX
8
Layer 1
10
8.378550
20
0.176215
70
0
0
VERTEX
8
Layer 1
10
8.312669
20
0.169335
70
0
0
VERTEX
8
Layer 1
10
8.241496
20
0.178067
70
0
0
VERTEX
8
Layer 1
10
8.185404
20
0.205054
70
0
0
VERTEX
8
Layer 1
10
8.149686
20
0.252150
70
0
0
VERTEX
8
Layer 1
10
8.139102
20
0.320942
70
0
0
VERTEX
8
Layer 1
10
8.180377
20
0.320942
70
0
0
VERTEX
8
Layer 1
10
8.190696
20
0.264850
70
0
0
SEQEND
8
Layer 1
0
POLYLINE
8
Layer 1
62
7
70
0
10
0.000000
20
0.000000
66
1
0
VERTEX
8
Layer 1
10
8.572489
20
0.491862
70
0
0
VERTEX
8
Layer 1
10
8.572489
20
0.432066
70
0
0
VERTEX
8
Layer 1
10
8.573812
20
0.432066
70
0
0
VERTEX
8
Layer 1
10
8.617468
20
0.482866
70
0
0
VERTEX
8
Layer 1
10
8.685995
20
0.500858
70
0
0
VERTEX
8
Layer 1
10
8.748437
20
0.487364
70
0
0
VERTEX
8
Layer 1
10
8.792622
20
0.451116
70
0
0
VERTEX
8
Layer 1
10
8.818816
20
0.398200
70
0
0
VERTEX
8
Layer 1
10
8.827283
20
0.334700
70
0
0
VERTEX
8
Layer 1
10
8.818816
20
0.271200
70
0
0
VERTEX
8
Layer 1
10
8.792622
20
0.218019
70
0
0
VERTEX
8
Layer 1
10
8.748437
20
0.182300
70
0
0
VERTEX
8
Layer 1
10
8.685995
20
0.169335
70
0
0
VERTEX
8
Layer 1
10
8.651864
20
0.173569
70
0
0
VERTEX
8
Layer 1
10
8.620379
20
0.186533
70
0
0
VERTEX
8
Layer 1
10
8.594450
20
0.207965
70
0
0
VERTEX
8
Layer 1
10
8.577252
20
0.237598
70
0
0
VERTEX
8
Layer 1
10
8.575929
20
0.237598
70
0
0
VERTEX
8
Layer 1
10
8.575929
20
0.062973
70
0
0
VERTEX
8
Layer 1
10
8.537564
20
0.062973
70
0
0
VERTEX
8
Layer 1
10
8.537564
20
0.439210
70
0
0
VERTEX
8
Layer 1
10
8.572489
20
0.491862
70
0
0
SEQEND
8
Layer 1
0
POLYLINE
8
Layer 1
62
7
70
0
10
0.000000
20
0.000000
66
1
0
VERTEX
8
Layer 1
10
8.783097
20
0.383119
70
0
0
VERTEX
8
Layer 1
10
8.764841
20
0.425981
70
0
0
VERTEX
8
Layer 1
10
8.732826
20
0.456937
70
0
0
VERTEX
8
Layer 1
10
8.685995
20
0.468579
70
0
0
VERTEX
8
Layer 1
10
8.633079
20
0.457466
70
0
0
VERTEX
8
Layer 1
10
8.598947
20
0.428362
70
0
0
VERTEX
8
Layer 1
10
8.580956
20
0.385764
70
0
0
VERTEX
8
Layer 1
10
8.575929
20
0.334700
70
0
0
VERTEX
8
Layer 1
10
8.581750
20
0.286281
70
0
0
VERTEX
8
Layer 1
10
8.600800
20
0.243419
70
0
0
VERTEX
8
Layer 1
10
8.634666
20
0.212727
70
0
0
VERTEX
8
Layer 1
10
8.685995
20
0.200821
70
0
0
VERTEX
8
Layer 1
10
8.732826
20
0.212727
70
0
0
VERTEX
8
Layer 1
10
8.764841
20
0.243419
70
0
0
VERTEX
8
Layer 1
10
8.783097
20
0.286281
70
0
0
VERTEX
8
Layer 1
10
8.788918
20
0.334700
70
0
0
VERTEX
8
Layer 1
10
8.783097
20
0.383119
70
0
0
SEQEND
8
Layer 1
0
POLYLINE
8
Layer 1
62
7
70
0
10
0.000000
20
0.000000
66
1
0
VERTEX
8
Layer 1
10
8.922268
20
0.491862
70
0
0
VERTEX
8
Layer 1
10
7.677140
20
0.213521
70
0
0
VERTEX
8
Layer 1
10
7.678463
20
0.213521
70
0
0
VERTEX
8
Layer 1
10
7.723707
20
0.272787
70
0
0
VERTEX
8
Layer 1
10
7.796996
20
0.291837
70
0
0
VERTEX
8
Layer 1
10
7.796996
20
0.253473
70
0
0
VERTEX
8
Layer 1
10
7.749636
20
0.246594
70
0
0
VERTEX
8
Layer 1
10
7.712594
20
0.223046
70
0
0
VERTEX
8
Layer 1
10
7.688517
20
0.186798
70
0
0
VERTEX
8
Layer 1
10
7.680051
20
0.140761
70
0
0
VERTEX
8
Layer 1
10
7.680051
20
-0.026721
70
0
0
VERTEX
8
Layer 1
10
7.641686
20
-0.026721
70
0
0
VERTEX
8
Layer 1
10
7.641686
20
0.439210
70
0
0
VERTEX
8
Layer 1
10
8.922268
20
0.491862
70
0
0
SEQEND
8
Layer 1
0
POLYLINE
8
Layer 1
62
7
70
0
10
0.000000
20
0.000000
66
1
0
VERTEX
8
Layer 1
10
9.117795
20
0.612512
70
0
0
VERTEX
8
Layer 1
10
7.733497
20
0.237333
70
0
0
VERTEX
8
Layer 1
10
7.695132
20
0.237333
70
0
0
VERTEX
8
Layer 1
10
7.695132
20
0.298981
70
0
0
VERTEX
8
Layer 1
10
9.117795
20
0.612512
70
0
0
SEQEND
8
Layer 1
0
POLYLINE
8
Layer 1
62
7
70
0
10
0.000000
20
0.000000
66
1
0
VERTEX
8
Layer 1
10
9.117795
20
0.491862
70
0
0
VERTEX
8
Layer 1
10
7.733497
20
-0.135993
70
0
0
VERTEX
8
Layer 1
10
7.695132
20
-0.135993
70
0
0
VERTEX
8
Layer 1
10
7.695132
20
0.439210
70
0
0
VERTEX
8
Layer 1
10
9.117795
20
0.491862
70
0
0
SEQEND
8
Layer 1
0
POLYLINE
8
Layer 1
62
7
70
0
10
0.000000
20
0.000000
66
1
0
VERTEX
8
Layer 1
10
9.229184
20
0.491862
70
0
0
VERTEX
8
Layer 1
10
7.844886
20
0.124092
70
0
0
VERTEX
8
Layer 1
10
7.845944
20
0.124092
70
0
0
VERTEX
8
Layer 1
10
7.884838
20
0.170129
70
0
0
VERTEX
8
Layer 1
10
7.946486
20
0.187327
70
0
0
VERTEX
8
Layer 1
10
8.001519
20
0.178860
70
0
0
VERTEX
8
Layer 1
10
8.037238
20
0.154783
70
0
0
VERTEX
8
Layer 1
10
8.056023
20
0.116683
70
0
0
VERTEX
8
Layer 1
10
8.061579
20
0.066148
70
0
0
VERTEX
8
Layer 1
10
8.061579
20
-0.135993
70
0
0
VERTEX
8
Layer 1
10
8.023215
20
-0.135993
70
0
0
VERTEX
8
Layer 1
10
8.023215
20
0.320942
70
0
0
VERTEX
8
Layer 1
10
8.019511
20
0.358248
70
0
0
VERTEX
8
Layer 1
10
8.006546
20
0.388675
70
0
0
VERTEX
8
Layer 1
10
7.981940
20
0.408783
70
0
0
VERTEX
8
Layer 1
10
7.943311
20
0.416191
70
0
0
VERTEX
8
Layer 1
10
7.902036
20
0.407989
70
0
0
VERTEX
8
Layer 1
10
7.871609
20
0.385500
70
0
0
VERTEX
8
Layer 1
10
7.852030
20
0.351369
70
0
0
VERTEX
8
Layer 1
10
7.844621
20
0.308506
70
0
0
VERTEX
8
Layer 1
10
7.844621
20
0.125150
70
0
0
VERTEX
8
Layer 1
10
7.806521
20
0.125150
70
0
0
VERTEX
8
Layer 1
10
7.806521
20
0.439210
70
0
0
VERTEX
8
Layer 1
10
9.229184
20
0.491862
70
0
0
SEQEND
8
Layer 1
0
POLYLINE
8
Layer 1
62
7
70
0
10
0.000000
20
0.000000
66
1
0
VERTEX
8
Layer 1
10
9.776077
20
0.140496
70
0
0
VERTEX
8
Layer 1
10
9.752000
20
0.092871
70
0
0
VERTEX
8
Layer 1
10
9.709138
20
0.063238
70
0
0
VERTEX
8
Layer 1
10
9.644315
20
0.052919
70
0
0
VERTEX
8
Layer 1
10
9.598013
20
0.058475
70
0
0
VERTEX
8
Layer 1
10
9.557532
20
0.075673
70
0
0
VERTEX
8
Layer 1
10
9.527898
20
0.105306
70
0
0
VERTEX
8
Layer 1
10
9.514140
20
0.148169
70
0
0
VERTEX
8
Layer 1
10
8.168206
20
-0.165362
70
0
0
VERTEX
8
Layer 1
10
8.180113
20
-0.194995
70
0
0
VERTEX
8
Layer 1
10
8.201544
20
-0.214045
70
0
0
VERTEX
8
Layer 1
10
8.229325
20
-0.224629
70
0
0
VERTEX
8
Layer 1
10
8.260281
20
-0.227804
70
0
0
VERTEX
8
Layer 1
10
8.337539
20
-0.197377
70
0
0
VERTEX
8
Layer 1
10
8.361352
20
-0.109800
70
0
0
VERTEX
8
Layer 1
10
8.361352
20
-0.067202
70
0
0
VERTEX
8
Layer 1
10
8.360294
20
-0.067202
70
0
0
VERTEX
8
Layer 1
10
8.320871
20
-0.114297
70
0
0
VERTEX
8
Layer 1
10
8.260281
20
-0.132025
70
0
0
VERTEX
8
Layer 1
10
8.195723
20
-0.119589
70
0
0
VERTEX
8
Layer 1
10
8.151538
20
-0.085193
70
0
0
VERTEX
8
Layer 1
10
8.126138
20
-0.033864
70
0
0
VERTEX
8
Layer 1
10
8.118200
20
0.029107
70
0
0
VERTEX
8
Layer 1
10
8.127461
20
0.090225
70
0
0
VERTEX
8
Layer 1
10
8.154713
20
0.141025
70
0
0
VERTEX
8
Layer 1
10
8.199163
20
0.174892
70
0
0
VERTEX
8
Layer 1
10
8.259752
20
0.187327
70
0
0
VERTEX
8
Layer 1
10
8.293090
20
0.182565
70
0
0
VERTEX
8
Layer 1
10
8.321400
20
0.169071
70
0
0
VERTEX
8
Layer 1
10
8.344154
20
0.148698
70
0
0
VERTEX
8
Layer 1
10
8.359764
20
0.124356
70
0
0
VERTEX
8
Layer 1
10
8.360823
20
0.124356
70
0
0
VERTEX
8
Layer 1
10
8.360823
20
0.178596
70
0
0
VERTEX
8
Layer 1
10
8.399187
20
0.178596
70
0
0
VERTEX
8
Layer 1
10
8.399187
20
-0.110064
70
0
0
VERTEX
8
Layer 1
10
8.391779
20
-0.172770
70
0
0
SEQEND
8
Layer 1
0
POLYLINE
8
Layer 1
62
7
70
0
10
0.000000
20
0.000000
66
1
0
VERTEX
8
Layer 1
10
8.303673
20
-0.088898
70
0
0
VERTEX
8
Layer 1
10
8.335423
20
-0.060852
70
0
0
VERTEX
8
Layer 1
10
8.354473
20
-0.020900
70
0
0
VERTEX
8
Layer 1
10
8.360823
20
0.025402
70
0
0
VERTEX
8
Layer 1
10
8.355267
20
0.071704
70
0
0
VERTEX
8
Layer 1
10
8.337539
20
0.113773
70
0
0
VERTEX
8
Layer 1
10
8.306054
20
0.144200
70
0
0
VERTEX
8
Layer 1
10
8.259488
20
0.155842
70
0
0
VERTEX
8
Layer 1
10
8.212656
20
0.144729
70
0
0
VERTEX
8
Layer 1
10
8.180642
20
0.115096
70
0
0
VERTEX
8
Layer 1
10
8.162121
20
0.073292
70
0
0
VERTEX
8
Layer 1
10
8.156300
20
0.025667
70
0
0
VERTEX
8
Layer 1
10
8.162386
20
-0.020635
70
0
0
VERTEX
8
Layer 1
10
8.181171
20
-0.060587
70
0
0
VERTEX
8
Layer 1
10
8.213450
20
-0.088633
70
0
0
VERTEX
8
Layer 1
10
8.259752
20
-0.099216
70
0
0
VERTEX
8
Layer 1
10
8.303673
20
-0.088633
70
0
0
SEQEND
8
Layer 1
0
POLYLINE
8
Layer 1
62
7
70
0
10
0.000000
20
0.000000
66
1
0
VERTEX
8
Layer 1
10
8.653187
20
0.117742
70
0
0
VERTEX
8
Layer 1
10
8.635195
20
0.139173
70
0
0
VERTEX
8
Layer 1
10
8.609266
20
0.151608
70
0
0
VERTEX
8
Layer 1
10
8.578310
20
0.155577
70
0
0
VERTEX
8
Layer 1
10
8.552381
20
0.152931
70
0
0
VERTEX
8
Layer 1
10
8.528304
20
0.143671
70
0
0
VERTEX
8
Layer 1
10
8.510577
20
0.126738
70
0
0
VERTEX
8
Layer 1
10
8.503698
20
0.101338
70
0
0
VERTEX
8
Layer 1
10
8.510048
20
0.079906
70
0
0
VERTEX
8
Layer 1
10
8.526187
20
0.064825
70
0
0
VERTEX
8
Layer 1
10
8.547618
20
0.055036
70
0
0
VERTEX
8
Layer 1
10
8.568785
20
0.048686
70
0
0
VERTEX
8
Layer 1
10
8.620114
20
0.037044
70
0
0
VERTEX
8
Layer 1
10
8.652922
20
0.028313
70
0
0
VERTEX
8
Layer 1
10
8.681497
20
0.011644
70
0
0
VERTEX
8
Layer 1
10
8.701870
20
-0.013756
70
0
0
VERTEX
8
Layer 1
10
8.710072
20
-0.049475
70
0
0
VERTEX
8
Layer 1
10
8.698431
20
-0.093131
70
0
0
VERTEX
8
Layer 1
10
8.668797
20
-0.122235
70
0
0
VERTEX
8
Layer 1
10
8.628316
20
-0.138375
70
0
0
VERTEX
8
Layer 1
10
8.583866
20
-0.143137
70
0
0
VERTEX
8
Layer 1
10
8.494173
20
-0.116943
70
0
0
VERTEX
8
Layer 1
10
8.455014
20
-0.033071
70
0
0
VERTEX
8
Layer 1
10
8.493114
20
-0.033071
70
0
0
VERTEX
8
Layer 1
10
8.521425
20
-0.091543
70
0
0
VERTEX
8
Layer 1
10
8.585718
20
-0.111387
70
0
0
VERTEX
8
Layer 1
10
8.614558
20
-0.108212
70
0
0
VERTEX
8
Layer 1
10
8.642339
20
-0.097893
70
0
0
VERTEX
8
Layer 1
10
8.663241
20
-0.079373
70
0
0
VERTEX
8
Layer 1
10
8.671443
20
-0.051591
70
0
0
VERTEX
8
Layer 1
10
8.665622
20
-0.028043
70
0
0
VERTEX
8
Layer 1
10
8.650012
20
-0.012168
70
0
0
VERTEX
8
Layer 1
10
8.627787
20
-0.001585
70
0
0
VERTEX
8
Layer 1
10
8.602652
20
0.005823
70
0
0
VERTEX
8
Layer 1
10
8.553439
20
0.016936
70
0
0
VERTEX
8
Layer 1
10
8.518779
20
0.028048
70
0
0
VERTEX
8
Layer 1
10
8.491262
20
0.043923
70
0
0
VERTEX
8
Layer 1
10
8.472741
20
0.066942
70
0
0
VERTEX
8
Layer 1
10
8.465862
20
0.100808
70
0
0
VERTEX
8
Layer 1
10
8.476446
20
0.141554
70
0
0
VERTEX
8
Layer 1
10
8.504227
20
0.168806
70
0
0
VERTEX
8
Layer 1
10
8.542327
20
0.184152
70
0
0
VERTEX
8
Layer 1
10
8.584131
20
0.188915
70
0
0
VERTEX
8
Layer 1
10
8.628316
20
0.182829
70
0
0
VERTEX
8
Layer 1
10
8.664300
20
0.163779
70
0
0
VERTEX
8
Layer 1
10
8.688906
20
0.132294
70
0
0
VERTEX
8
Layer 1
10
8.699489
20
0.087844
70
0
0
VERTEX
8
Layer 1
10
8.661125
20
0.087844
70
0
0
VERTEX
8
Layer 1
10
8.653981
20
0.118536
70
0
0
SEQEND
8
Layer 1
0
POLYLINE
8
Layer 1
62
7
70
0
10
0.000000
20
0.000000
66
1
0
VERTEX
8
Layer 1
10
2.694778
20
1.041666
70
0
0
VERTEX
8
Layer 1
10
2.238637
20
1.041666
70
0
0
VERTEX
8
Layer 1
10
2.125395
20
0.926837
70
0
0
VERTEX
8
Layer 1
10
2.011095
20
1.041666
70
0
0
VERTEX
8
Layer 1
10
1.556542
20
1.041666
70
0
0
VERTEX
8
Layer 1
10
1.441713
20
0.926572
70
0
0
VERTEX
8
Layer 1
10
1.326884
20
1.041666
70
0
0
VERTEX
8
Layer 1
10
0.872595
20
1.041666
70
0
0
VERTEX
8
Layer 1
10
0.793484
20
0.962555
70
0
0
VERTEX
8
Layer 1
10
0.793484
20
1.041666
70
0
0
VERTEX
8
Layer 1
10
0.471751
20
1.041666
70
0
0
VERTEX
8
Layer 1
10
0.471751
20
0.975520
70
0
0
VERTEX
8
Layer 1
10
0.326231
20
0.975520
70
0
0
VERTEX
8
Layer 1
10
0.326231
20
1.041666
70
0
0
VERTEX
8
Layer 1
10
0.009260
20
1.041666
70
0
0
VERTEX
8
Layer 1
10
0.009260
20
0.772056
70
0
0
VERTEX
8
Layer 1
10
0.054504
20
0.772056
70
0
0
VERTEX
8
Layer 1
10
0.054504
20
0.416721
70
0
0
VERTEX
8
Layer 1
10
0.198702
20
0.273846
70
0
0
VERTEX
8
Layer 1
10
0.600868
20
0.273846
70
0
0
VERTEX
8
Layer 1
10
0.727339
20
0.400581
70
0
0
VERTEX
8
Layer 1
10
0.746653
20
0.400581
70
0
0
VERTEX
8
Layer 1
10
0.873124
20
0.274110
70
0
0
VERTEX
8
Layer 1
10
1.327148
20
0.274110
70
0
0
VERTEX
8
Layer 1
10
1.441448
20
0.389469
70
0
0
VERTEX
8
Layer 1
10
1.556542
20
0.274110
70
0
0
VERTEX
8
Layer 1
10
2.010831
20
0.274110
70
0
0
VERTEX
8
Layer 1
10
2.125131
20
0.389204
70
0
0
VERTEX
8
Layer 1
10
2.238372
20
0.274110
70
0
0
VERTEX
8
Layer 1
10
2.693984
20
0.274110
70
0
0
VERTEX
8
Layer 1
10
2.837124
20
0.417250
70
0
0
VERTEX
8
Layer 1
10
2.837124
20
0.658285
70
0
0
VERTEX
8
Layer 1
10
2.782355
20
0.713054
70
0
0
VERTEX
8
Layer 1
10
2.837388
20
0.713054
70
0
0
VERTEX
8
Layer 1
10
2.837388
20
0.898526
70
0
0
VERTEX
8
Layer 1
10
2.694778
20
1.041666
70
0
0
SEQEND
8
Layer 1
0
POLYLINE
8
Layer 1
62
7
70
0
10
0.000000
20
0.000000
66
1
0
VERTEX
8
Layer 1
10
0.604572
20
0.264850
70
0
0
VERTEX
8
Layer 1
10
0.194998
20
0.264850
70
0
0
VERTEX
8
Layer 1
10
0.185737
20
0.274110
70
0
0
VERTEX
8
Layer 1
10
0.045508
20
0.413281
70
0
0
VERTEX
8
Layer 1
10
0.045508
20
0.762795
70
0
0
VERTEX
8
Layer 1
10
0.000000
20
0.762795
70
0
0
VERTEX
8
Layer 1
10
0.000000
20
1.051191
70
0
0
VERTEX
8
Layer 1
10
0.335756
20
1.051191
70
0
0
VERTEX
8
Layer 1
10
0.335756
20
0.985045
70
0
0
VERTEX
8
Layer 1
10
0.462756
20
0.985045
70
0
0
VERTEX
8
Layer 1
10
0.462756
20
1.051191
70
0
0
VERTEX
8
Layer 1
10
0.803009
20
1.051191
70
0
0
VERTEX
8
Layer 1
10
0.803009
20
0.985309
70
0
0
VERTEX
8
Layer 1
10
0.868891
20
1.051191
70
0
0
VERTEX
8
Layer 1
10
1.330588
20
1.051191
70
0
0
VERTEX
8
Layer 1
10
1.441448
20
0.940066
70
0
0
VERTEX
8
Layer 1
10
1.552308
20
1.051191
70
0
0
VERTEX
8
Layer 1
10
2.014535
20
1.051191
70
0
0
VERTEX
8
Layer 1
10
2.125131
20
0.940330
70
0
0
VERTEX
8
Layer 1
10
2.234668
20
1.051191
70
0
0
VERTEX
8
Layer 1
10
2.698747
20
1.051191
70
0
0
VERTEX
8
Layer 1
10
2.846913
20
0.902230
70
0
0
VERTEX
8
Layer 1
10
2.846913
20
0.703529
70
0
0
VERTEX
8
Layer 1
10
2.805109
20
0.703529
70
0
0
VERTEX
8
Layer 1
10
2.846913
20
0.661724
70
0
0
VERTEX
8
Layer 1
10
2.846913
20
0.413281
70
0
0
VERTEX
8
Layer 1
10
2.698217
20
0.264850
70
0
0
VERTEX
8
Layer 1
10
2.234668
20
0.264850
70
0
0
VERTEX
8
Layer 1
10
2.125131
20
0.376239
70
0
0
VERTEX
8
Layer 1
10
2.014800
20
0.264850
70
0
0
VERTEX
8
Layer 1
10
1.552573
20
0.264850
70
0
0
VERTEX
8
Layer 1
10
1.441184
20
0.376239
70
0
0
VERTEX
8
Layer 1
10
1.330588
20
0.264850
70
0
0
VERTEX
8
Layer 1
10
0.868891
20
0.264850
70
0
0
VERTEX
8
Layer 1
10
0.859366
20
0.274375
70
0
0
VERTEX
8
Layer 1
10
0.742420
20
0.391321
70
0
0
VERTEX
8
Layer 1
10
0.730778
20
0.391321
70
0
0
VERTEX
8
Layer 1
10
0.604572
20
0.264850
70
0
0
SEQEND
8
Layer 1
0
POLYLINE
8
Layer 1
62
7
70
0
10
0.000000
20
0.000000
66
1
0
VERTEX
8
Layer 1
10
0.202406
20
0.283371
70
0
0
VERTEX
8
Layer 1
10
0.596635
20
0.283371
70
0
0
VERTEX
8
Layer 1
10
0.723105
20
0.410106
70
0
0
VERTEX
8
Layer 1
10
0.750093
20
0.410106
70
0
0
VERTEX
8
Layer 1
10
0.876563
20
0.283635
70
0
0
VERTEX
8
Layer 1
10
1.322915
20
0.283635
70
0
0
VERTEX
8
Layer 1
10
1.441184
20
0.402962
70
0
0
VERTEX
8
Layer 1
10
1.560511
20
0.283635
70
0
0
VERTEX
8
Layer 1
10
2.007127
20
0.283635
70
0
0
VERTEX
8
Layer 1
10
2.125131
20
0.402698
70
0
0
VERTEX
8
Layer 1
10
2.242341
20
0.283635
70
0
0
VERTEX
8
Layer 1
10
2.690015
20
0.283635
70
0
0
VERTEX
8
Layer 1
10
2.827599
20
0.421483
70
0
0
VERTEX
8
Layer 1
10
2.827599
20
0.654316
70
0
0
VERTEX
8
Layer 1
10
2.759865
20
0.722314
70
0
0
VERTEX
8
Layer 1
10
2.828128
20
0.722314
70
0
0
VERTEX
8
Layer 1
10
2.828128
20
0.894557
70
0
0
VERTEX
8
Layer 1
10
2.690809
20
1.032405
70
0
0
VERTEX
8
Layer 1
10
2.242341
20
1.032405
70
0
0
VERTEX
8
Layer 1
10
2.125395
20
0.913607
70
0
0
VERTEX
8
Layer 1
10
2.007127
20
1.032405
70
0
0
VERTEX
8
Layer 1
10
1.560511
20
1.032405
70
0
0
VERTEX
8
Layer 1
10
1.441977
20
0.913607
70
0
0
VERTEX
8
Layer 1
10
1.323444
20
1.032405
70
0
0
VERTEX
8
Layer 1
10
0.876299
20
1.032405
70
0
0
VERTEX
8
Layer 1
10
0.784224
20
0.940066
70
0
0
VERTEX
8
Layer 1
10
0.784224
20
1.032405
70
0
0
VERTEX
8
Layer 1
10
0.481276
20
1.032405
70
0
0
VERTEX
8
Layer 1
10
0.481276
20
0.966259
70
0
0
VERTEX
8
Layer 1
10
0.317235
20
0.966259
70
0
0
VERTEX
8
Layer 1
10
0.317235
20
1.032405
70
0
0
VERTEX
8
Layer 1
10
0.018521
20
1.032405
70
0
0
VERTEX
8
Layer 1
10
0.018521
20
0.781316
70
0
0
VERTEX
8
Layer 1
10
0.063765
20
0.781316
70
0
0
VERTEX
8
Layer 1
10
0.063765
20
0.420689
70
0
0
VERTEX
8
Layer 1
10
0.202406
20
0.283371
70
0
0
SEQEND
8
Layer 1
0
POLYLINE
8
Layer 1
62
7
70
0
10
0.000000
20
0.000000
66
1
0
VERTEX
8
Layer 1
10
2.266418
20
0.341314
70
0
0
VERTEX
8
Layer 1
10
2.164024
20
0.445560
70
0
0
VERTEX
8
Layer 1
10
2.164024
20
0.537635
70
0
0
VERTEX
8
Layer 1
10
2.303195
20
0.537635
70
0
0
VERTEX
8
Layer 1
10
2.303195
20
0.479691
70
0
0
VERTEX
8
Layer 1
10
2.631543
20
0.479691
70
0
0
VERTEX
8
Layer 1
10
2.631543
20
0.600870
70
0
0
VERTEX
8
Layer 1
10
2.248691
20
0.600606
70
0
0
VERTEX
8
Layer 1
10
2.164024
20
0.685272
70
0
0
VERTEX
8
Layer 1
10
2.164024
20
0.871010
70
0
0
VERTEX
8
Layer 1
10
2.266418
20
0.974991
70
0
0
VERTEX
8
Layer 1
10
2.666732
20
0.975255
70
0
0
VERTEX
8
Layer 1
10
2.770449
20
0.871010
70
0
0
VERTEX
8
Layer 1
10
2.770449
20
0.779993
70
0
0
VERTEX
8
Layer 1
10
2.631807
20
0.779993
70
0
0
VERTEX
8
Layer 1
10
2.631807
20
0.839524
70
0
0
VERTEX
8
Layer 1
10
2.302666
20
0.839524
70
0
0
VERTEX
8
Layer 1
10
2.302666
20
0.717551
70
0
0
VERTEX
8
Layer 1
10
2.683401
20
0.717551
70
0
0
VERTEX
8
Layer 1
10
2.770713
20
0.630239
70
0
0
VERTEX
8
Layer 1
10
2.770713
20
0.445560
70
0
0
VERTEX
8
Layer 1
10
2.666732
20
0.341314
70
0
0
VERTEX
8
Layer 1
10
2.266418
20
0.341314
70
0
0
SEQEND
8
Layer 1
0
POLYLINE
8
Layer 1
62
7
70
0
10
0.000000
20
0.000000
66
1
0
VERTEX
8
Layer 1
10
2.662499
20
0.965201
70
0
0
VERTEX
8
Layer 1
10
2.760130
20
0.867041
70
0
0
VERTEX
8
Layer 1
10
2.760130
20
0.790312
70
0
0
VERTEX
8
Layer 1
10
2.641597
20
0.790312
70
0
0
VERTEX
8
Layer 1
10
2.641597
20
0.849843
70
0
0
VERTEX
8
Layer 1
10
2.292347
20
0.849843
70
0
0
VERTEX
8
Layer 1
10
2.292347
20
0.707762
70
0
0
VERTEX
8
Layer 1
10
2.678903
20
0.707762
70
0
0
VERTEX
8
Layer 1
10
2.760394
20
0.626535
70
0
0
VERTEX
8
Layer 1
10
2.760394
20
0.450058
70
0
0
VERTEX
8
Layer 1
10
2.662234
20
0.351898
70
0
0
VERTEX
8
Layer 1
10
2.270651
20
0.351898
70
0
0
VERTEX
8
Layer 1
10
2.174343
20
0.450058
70
0
0
VERTEX
8
Layer 1
10
2.174343
20
0.528110
70
0
0
VERTEX
8
Layer 1
10
2.293405
20
0.528110
70
0
0
VERTEX
8
Layer 1
10
2.293405
20
0.470166
70
0
0
VERTEX
8
Layer 1
10
2.642126
20
0.470166
70
0
0
VERTEX
8
Layer 1
10
2.642126
20
0.611454
70
0
0
VERTEX
8
Layer 1
10
2.253453
20
0.611189
70
0
0
VERTEX
8
Layer 1
10
2.174608
20
0.690035
70
0
0
VERTEX
8
Layer 1
10
2.174608
20
0.867305
70
0
0
VERTEX
8
Layer 1
10
2.270916
20
0.965466
70
0
0
VERTEX
8
Layer 1
10
2.662499
20
0.965201
70
0
0
SEQEND
8
Layer 1
0
POLYLINE
8
Layer 1
62
7
70
0
10
0.000000
20
0.000000
66
1
0
VERTEX
8
Layer 1
10
2.670965
20
0.985309
70
0
0
VERTEX
8
Layer 1
10
2.262185
20
0.985045
70
0
0
VERTEX
8
Layer 1
10
2.153970
20
0.874978
70
0
0
VERTEX
8
Layer 1
10
2.153970
20
0.681039
70
0
0
VERTEX
8
Layer 1
10
2.244722
20
0.590552
70
0
0
VERTEX
8
Layer 1
10
2.621753
20
0.590816
70
0
0
VERTEX
8
Layer 1
10
2.621753
20
0.489746
70
0
0
VERTEX
8
Layer 1
10
2.313778
20
0.489746
70
0
0
VERTEX
8
Layer 1
10
2.313778
20
0.547689
70
0
0
VERTEX
8
Layer 1
10
2.154235
20
0.547689
70
0
0
VERTEX
8
Layer 1
10
2.154235
20
0.441062
70
0
0
VERTEX
8
Layer 1
10
2.262449
20
0.330996
70
0
0
VERTEX
8
Layer 1
10
2.670701
20
0.330996
70
0
0
VERTEX
8
Layer 1
10
2.780503
20
0.441062
70
0
0
VERTEX
8
Layer 1
10
2.780503
20
0.634472
70
0
0
VERTEX
8
Layer 1
10
2.687370
20
0.727606
70
0
0
VERTEX
8
Layer 1
10
2.312455
20
0.727606
70
0
0
VERTEX
8
Layer 1
10
2.312455
20
0.829205
70
0
0
VERTEX
8
Layer 1
10
2.621488
20
0.829205
70
0
0
VERTEX
8
Layer 1
10
2.621488
20
0.769674
70
0
0
VERTEX
8
Layer 1
10
2.780503
20
0.769674
70
0
0
VERTEX
8
Layer 1
10
2.780503
20
0.874978
70
0
0
VERTEX
8
Layer 1
10
2.670965
20
0.985309
70
0
0
SEQEND
8
Layer 1
0
POLYLINE
8
Layer 1
62
7
70
0
10
0.000000
20
0.000000
66
1
0
VERTEX
8
Layer 1
10
1.584058
20
0.341314
70
0
0
VERTEX
8
Layer 1
10
1.480077
20
0.445296
70
0
0
VERTEX
8
Layer 1
10
1.480342
20
0.870745
70
0
0
VERTEX
8
Layer 1
10
1.584058
20
0.974991
70
0
0
VERTEX
8
Layer 1
10
1.983050
20
0.974991
70
0
0
VERTEX
8
Layer 1
10
2.086766
20
0.871010
70
0
0
VERTEX
8
Layer 1
10
2.086766
20
0.775231
70
0
0
VERTEX
8
Layer 1
10
1.948389
20
0.775231
70
0
0
VERTEX
8
Layer 1
10
1.948389
20
0.839260
70
0
0
VERTEX
8
Layer 1
10
1.617660
20
0.839260
70
0
0
VERTEX
8
Layer 1
10
1.617660
20
0.479427
70
0
0
VERTEX
8
Layer 1
10
1.948389
20
0.479427
70
0
0
VERTEX
8
Layer 1
10
1.948389
20
0.537635
70
0
0
VERTEX
8
Layer 1
10
2.085972
20
0.537635
70
0
0
VERTEX
8
Layer 1
10
2.085972
20
0.445560
70
0
0
VERTEX
8
Layer 1
10
1.983050
20
0.341314
70
0
0
VERTEX
8
Layer 1
10
1.584058
20
0.341314
70
0
0
SEQEND
8
Layer 1
0
POLYLINE
8
Layer 1
62
7
70
0
10
0.000000
20
0.000000
66
1
0
VERTEX
8
Layer 1
10
1.978816
20
0.964937
70
0
0
VERTEX
8
Layer 1
10
2.076447
20
0.866776
70
0
0
VERTEX
8
Layer 1
10
2.076447
20
0.785285
70
0
0
VERTEX
8
Layer 1
10
1.958443
20
0.785285
70
0
0
VERTEX
8
Layer 1
10
1.958443
20
0.849314
70
0
0
VERTEX
8
Layer 1
10
1.607606
20
0.849314
70
0
0
VERTEX
8
Layer 1
10
1.607606
20
0.469373
70
0
0
VERTEX
8
Layer 1
10
1.958443
20
0.469373
70
0
0
VERTEX
8
Layer 1
10
1.958443
20
0.527316
70
0
0
VERTEX
8
Layer 1
10
2.075918
20
0.527316
70
0
0
VERTEX
8
Layer 1
10
2.075918
20
0.449264
70
0
0
VERTEX
8
Layer 1
10
1.978816
20
0.351104
70
0
0
VERTEX
8
Layer 1
10
1.588292
20
0.351104
70
0
0
VERTEX
8
Layer 1
10
1.490131
20
0.449000
70
0
0
VERTEX
8
Layer 1
10
1.490396
20
0.866247
70
0
0
VERTEX
8
Layer 1
10
1.588292
20
0.964407
70
0
0
VERTEX
8
Layer 1
10
1.978816
20
0.964937
70
0
0
SEQEND
8
Layer 1
0
POLYLINE
8
Layer 1
62
7
70
0
10
0.000000
20
0.000000
66
1
0
VERTEX
8
Layer 1
10
1.987283
20
0.985045
70
0
0
VERTEX
8
Layer 1
10
1.579825
20
0.985045
70
0
0
VERTEX
8
Layer 1
10
1.470288
20
0.874978
70
0
0
VERTEX
8
Layer 1
10
1.470023
20
0.441062
70
0
0
VERTEX
8
Layer 1
10
1.579825
20
0.331260
70
0
0
VERTEX
8
Layer 1
10
1.987283
20
0.331260
70
0
0
VERTEX
8
Layer 1
10
2.096291
20
0.441327
70
0
0
VERTEX
8
Layer 1
10
2.096291
20
0.547954
70
0
0
VERTEX
8
Layer 1
10
1.938335
20
0.547954
70
0
0
VERTEX
8
Layer 1
10
1.938335
20
0.490010
70
0
0
VERTEX
8
Layer 1
10
1.627979
20
0.490010
70
0
0
VERTEX
8
Layer 1
10
1.627979
20
0.829205
70
0
0
VERTEX
8
Layer 1
10
1.938335
20
0.829205
70
0
0
VERTEX
8
Layer 1
10
1.938335
20
0.765176
70
0
0
VERTEX
8
Layer 1
10
2.096556
20
0.765176
70
0
0
VERTEX
8
Layer 1
10
2.096556
20
0.875243
70
0
0
VERTEX
8
Layer 1
10
1.987283
20
0.985045
70
0
0
SEQEND
8
Layer 1
0
POLYLINE
8
Layer 1
62
7
70
0
10
0.000000
20
0.000000
66
1
0
VERTEX
8
Layer 1
10
0.900111
20
0.341314
70
0
0
VERTEX
8
Layer 1
10
0.795866
20
0.445296
70
0
0
VERTEX
8
Layer 1
10
0.796130
20
0.870745
70
0
0
VERTEX
8
Layer 1
10
0.900111
20
0.974991
70
0
0
VERTEX
8
Layer 1
10
1.299103
20
0.974991
70
0
0
VERTEX
8
Layer 1
10
1.402819
20
0.871010
70
0
0
VERTEX
8
Layer 1
10
1.402554
20
0.775231
70
0
0
VERTEX
8
Layer 1
10
1.264178
20
0.775231
70
0
0
VERTEX
8
Layer 1
10
1.264178
20
0.839260
70
0
0
VERTEX
8
Layer 1
10
0.934507
20
0.839260
70
0
0
VERTEX
8
Layer 1
10
0.934507
20
0.479427
70
0
0
VERTEX
8
Layer 1
10
1.263648
20
0.479427
70
0
0
VERTEX
8
Layer 1
10
1.263648
20
0.537635
70
0
0
VERTEX
8
Layer 1
10
1.402025
20
0.537635
70
0
0
VERTEX
8
Layer 1
10
1.402025
20
0.445560
70
0
0
VERTEX
8
Layer 1
10
1.299103
20
0.341314
70
0
0
VERTEX
8
Layer 1
10
0.900111
20
0.341314
70
0
0
SEQEND
8
Layer 1
0
POLYLINE
8
Layer 1
62
7
70
0
10
0.000000
20
0.000000
66
1
0
VERTEX
8
Layer 1
10
1.294869
20
0.964937
70
0
0
VERTEX
8
Layer 1
10
1.392500
20
0.866776
70
0
0
VERTEX
8
Layer 1
10
1.392236
20
0.785285
70
0
0
VERTEX
8
Layer 1
10
1.273703
20
0.785285
70
0
0
VERTEX
8
Layer 1
10
1.273703
20
0.849314
70
0
0
VERTEX
8
Layer 1
10
0.924188
20
0.849314
70
0
0
VERTEX
8
Layer 1
10
0.924188
20
0.469373
70
0
0
VERTEX
8
Layer 1
10
1.273438
20
0.469373
70
0
0
VERTEX
8
Layer 1
10
1.273438
20
0.527316
70
0
0
VERTEX
8
Layer 1
10
1.391442
20
0.527316
70
0
0
VERTEX
8
Layer 1
10
1.391442
20
0.449264
70
0
0
VERTEX
8
Layer 1
10
1.294340
20
0.351104
70
0
0
VERTEX
8
Layer 1
10
0.904345
20
0.351104
70
0
0
VERTEX
8
Layer 1
10
0.806184
20
0.449000
70
0
0
VERTEX
8
Layer 1
10
0.806184
20
0.866512
70
0
0
VERTEX
8
Layer 1
10
0.904345
20
0.964672
70
0
0
VERTEX
8
Layer 1
10
1.294869
20
0.964937
70
0
0
SEQEND
8
Layer 1
0
POLYLINE
8
Layer 1
62
7
70
0
10
0.000000
20
0.000000
66
1
0
VERTEX
8
Layer 1
10
1.303336
20
0.985045
70
0
0
VERTEX
8
Layer 1
10
0.895878
20
0.985045
70
0
0
VERTEX
8
Layer 1
10
0.786076
20
0.874978
70
0
0
VERTEX
8
Layer 1
10
0.785812
20
0.441062
70
0
0
VERTEX
8
Layer 1
10
0.895878
20
0.331260
70
0
0
VERTEX
8
Layer 1
10
1.303336
20
0.331260
70
0
0
VERTEX
8
Layer 1
10
1.412079
20
0.441327
70
0
0
VERTEX
8
Layer 1
10
1.412079
20
0.547954
70
0
0
VERTEX
8
Layer 1
10
1.253594
20
0.547954
70
0
0
VERTEX
8
Layer 1
10
1.253594
20
0.490010
70
0
0
VERTEX
8
Layer 1
10
0.944561
20
0.490010
70
0
0
VERTEX
8
Layer 1
10
0.944561
20
0.829205
70
0
0
VERTEX
8
Layer 1
10
1.253594
20
0.829205
70
0
0
VERTEX
8
Layer 1
10
1.253594
20
0.765176
70
0
0
VERTEX
8
Layer 1
10
1.412344
20
0.765176
70
0
0
VERTEX
8
Layer 1
10
1.412609
20
0.875243
70
0
0
VERTEX
8
Layer 1
10
1.303336
20
0.985045
70
0
0
SEQEND
8
Layer 1
0
POLYLINE
8
Layer 1
62
7
70
0
10
0.000000
20
0.000000
66
1
0
VERTEX
8
Layer 1
10
0.226218
20
0.341050
70
0
0
VERTEX
8
Layer 1
10
0.121444
20
0.444766
70
0
0
VERTEX
8
Layer 1
10
0.121444
20
0.839260
70
0
0
VERTEX
8
Layer 1
10
0.075935
20
0.839260
70
0
0
VERTEX
8
Layer 1
10
0.075935
20
0.974991
70
0
0
VERTEX
8
Layer 1
10
0.259556
20
0.974991
70
0
0
VERTEX
8
Layer 1
10
0.259556
20
0.479427
70
0
0
VERTEX
8
Layer 1
10
0.538691
20
0.479427
70
0
0
VERTEX
8
Layer 1
10
0.538691
20
0.974991
70
0
0
VERTEX
8
Layer 1
10
0.726280
20
0.974991
70
0
0
VERTEX
8
Layer 1
10
0.726280
20
0.839260
70
0
0
VERTEX
8
Layer 1
10
0.676803
20
0.839260
70
0
0
VERTEX
8
Layer 1
10
0.676803
20
0.445560
70
0
0
VERTEX
8
Layer 1
10
0.572822
20
0.341050
70
0
0
VERTEX
8
Layer 1
10
0.226218
20
0.341050
70
0
0
SEQEND
8
Layer 1
0
POLYLINE
8
Layer 1
62
7
70
0
10
0.000000
20
0.000000
66
1
0
VERTEX
8
Layer 1
10
0.716226
20
0.964937
70
0
0
VERTEX
8
Layer 1
10
0.716226
20
0.849314
70
0
0
VERTEX
8
Layer 1
10
0.666749
20
0.849314
70
0
0
VERTEX
8
Layer 1
10
0.666749
20
0.449529
70
0
0
VERTEX
8
Layer 1
10
0.568589
20
0.351104
70
0
0
VERTEX
8
Layer 1
10
0.230452
20
0.351104
70
0
0
VERTEX
8
Layer 1
10
0.131762
20
0.449000
70
0
0
VERTEX
8
Layer 1
10
0.131762
20
0.849314
70
0
0
VERTEX
8
Layer 1
10
0.086254
20
0.849314
70
0
0
VERTEX
8
Layer 1
10
0.086254
20
0.964937
70
0
0
VERTEX
8
Layer 1
10
0.249502
20
0.964937
70
0
0
VERTEX
8
Layer 1
10
0.249502
20
0.469373
70
0
0
VERTEX
8
Layer 1
10
0.549010
20
0.469373
70
0
0
VERTEX
8
Layer 1
10
0.549010
20
0.964937
70
0
0
VERTEX
8
Layer 1
10
0.716226
20
0.964937
70
0
0
SEQEND
8
Layer 1
0
POLYLINE
8
Layer 1
62
7
70
0
10
0.000000
20
0.000000
66
1
0
VERTEX
8
Layer 1
10
0.736334
20
0.985045
70
0
0
VERTEX
8
Layer 1
10
0.528637
20
0.985045
70
0
0
VERTEX
8
Layer 1
10
0.528637
20
0.489481
70
0
0
VERTEX
8
Layer 1
10
0.269610
20
0.489481
70
0
0
VERTEX
8
Layer 1
10
0.269610
20
0.985045
70
0
0
VERTEX
8
Layer 1
10
0.066146
20
0.985045
70
0
0
VERTEX
8
Layer 1
10
0.066146
20
0.829205
70
0
0
VERTEX
8
Layer 1
10
0.111389
20
0.829205
70
0
0
VERTEX
8
Layer 1
10
0.111389
20
0.440798
70
0
0
VERTEX
8
Layer 1
10
0.222250
20
0.330996
70
0
0
VERTEX
8
Layer 1
10
0.577585
20
0.330996
70
0
0
VERTEX
8
Layer 1
10
0.687387
20
0.441327
70
0
0
VERTEX
8
Layer 1
10
0.687387
20
0.829205
70
0
0
VERTEX
8
Layer 1
10
0.736864
20
0.829205
70
0
0
VERTEX
8
Layer 1
10
0.736334
20
0.985045
70
0
0
SEQEND
8
Layer 1
 0 
ENDSEC
 0 
EOF